<?xml version="1.0" encoding="utf-8"?>
<!-- Generator: Adobe Illustrator 14.0.0, SVG Export Plug-In . SVG Version: 6.00 Build 43363)  -->
<!DOCTYPE svg PUBLIC "-//W3C//DTD SVG 1.1//EN" "http://www.w3.org/Graphics/SVG/1.1/DTD/svg11.dtd">
<svg version="1.1" id="Layer_1" xmlns="http://www.w3.org/2000/svg" xmlns:xlink="http://www.w3.org/1999/xlink" x="0px" y="0px"
	 width="612px" height="792px" viewBox="0 0 612 792" enable-background="new 0 0 612 792" xml:space="preserve">
<g>
	<g>
		<path fill-rule="evenodd" clip-rule="evenodd" fill="#FFFFFF" d="M441.949,227.987c11.285,6.886,25.254-0.832,34.996,3
			c10.681,4.201,13.812,25.328,31.995,19.998c4.513,6.486,6.796,15.201,8.999,23.997c-28.972,4.024-52.261,13.73-77.99,20.997
			c0.403-5.276,3.805-16.182,6.999-21.997C447.508,256.425,444.915,242.02,441.949,227.987z"/>
		<path fill-rule="evenodd" clip-rule="evenodd" d="M288.968,253.984c-3.666,1.667-1.371,9.294-2,13.999
			C284.269,266.189,282.757,252.985,288.968,253.984z"/>
		<path fill-rule="evenodd" clip-rule="evenodd" fill="#FFFFFF" d="M421.952,307.977c0,1,0,2,0,3c-1.334,0-2.667,0-4,0
			C418.821,309.513,419.449,307.808,421.952,307.977z"/>
		<path fill-rule="evenodd" clip-rule="evenodd" fill="#FFFFFF" d="M210.978,328.975c1.333,0,2.667,0,4,0
			c0.196,6.195,0.746,12.744-5,12.999C209.672,337,210.137,332.799,210.978,328.975z"/>
		<path fill-rule="evenodd" clip-rule="evenodd" d="M572.933,333.974c0.381-1.903,1.272,0.638,1,2
			C573.552,337.877,572.66,335.335,572.933,333.974z"/>
		<path fill-rule="evenodd" clip-rule="evenodd" fill="#FFFFFF" d="M205.979,333.974c3.008-1.008,1.772,2.228,2,4
			C206.637,337.316,206.116,335.836,205.979,333.974z"/>
		<path fill-rule="evenodd" clip-rule="evenodd" fill="#FFFFFF" d="M421.952,335.974c-0.163,1.163,0.221,1.779,0.999,2
			c-0.941,3.906-5.044,0.85-7.999,1C415.484,336.172,419.77,337.125,421.952,335.974z"/>
		<path fill-rule="evenodd" clip-rule="evenodd" fill="#FFFFFF" d="M398.955,338.973c-2.232,3.327-9.387,9.632-9.999,1
			C392.818,340.17,396.324,340.009,398.955,338.973z"/>
		<path fill-rule="evenodd" clip-rule="evenodd" d="M343.962,342.973C347.452,346.695,341.235,348.046,343.962,342.973
			L343.962,342.973z"/>
		<path fill-rule="evenodd" clip-rule="evenodd" d="M160.984,369.97c-0.437,1.229-1.279,2.053-3,2
			C158.421,370.739,159.264,369.916,160.984,369.97z"/>
		<path fill-rule="evenodd" clip-rule="evenodd" fill="#FFFFFF" d="M153.985,398.966c2.143-0.11,0.471,12.169,1,16.998
			c-1.757,0.909-1.829,3.504-3,4.999C151.23,416.189,155.478,407.806,153.985,398.966z"/>
		<path fill-rule="evenodd" clip-rule="evenodd" d="M242.974,428.962c-0.256,2.341-4.393,0.576-5,0
			C238.231,426.622,242.368,428.386,242.974,428.962z"/>
		<path fill-rule="evenodd" clip-rule="evenodd" fill="#FFFFFF" d="M144.986,441.961c3.078,0.699,1.921,0.699,5,0
			c-0.294,4.371-3.125,6.207-6,7.998C143.218,446.191,145.207,445.18,144.986,441.961z"/>
		<path fill-rule="evenodd" clip-rule="evenodd" fill="#FFFFFF" d="M207.979,452.959c0.319,2.318-0.161,3.839-1,5
			c-1.463-0.87-3.169-1.497-3-4C204.869,453.183,206.237,452.884,207.979,452.959z"/>
		<path fill-rule="evenodd" clip-rule="evenodd" d="M426.951,476.956c1.704-3.788,1.646,2.171,3,2c-0.658,1.342-2.138,1.862-4,2
			c0.354-1.313,1.761-1.573,2-3C428.135,477.105,427.561,477.013,426.951,476.956z"/>
		<path fill-rule="evenodd" clip-rule="evenodd" d="M224.977,560.945c0.89,0.615,1.788,1.209,2,0c2.487,0.15,0.292,3.386,0,4
			C225.634,564.287,225.114,562.808,224.977,560.945z"/>
		<path fill-rule="evenodd" clip-rule="evenodd" d="M294.968,606.939c-9.938,8.326-31.633,12.474-45.995,5
			c-5.316-8.016-16.102-10.562-20.997-18.998c-5.607,1.119-11.92,4.535-18.998,5c-7.653,0.502-14.213-2.51-19.998-2
			c-9.652-8.21-15.309-14.328-20.998-25.997c-3.546-7.275-5.57-13.681-6.999-25.997c-1.012-8.728-1.14-14.83,0-21.997
			c2.203-13.847,2.185-30.001-5-39.995c-9.587,3.083-10.03,12.199-15.998,19.998c-2.823,3.689-7.197,6.216-9.999,9.999
			c-5.251,7.09-8.968,16.306-13.998,24.996c-2.337,4.038-5.913,8.289-7,11.999c-3.513,11.99,0.69,26.3-10.999,28.996
			c-19.656,4.535-42.136-15.164-50.994-25.997c-3.478-4.253-8.431-12.716-7.999-16.997c1.04-10.307,13.211-8.873,21.998-12.999
			c7.644-3.589,12.235-12.604,17.998-20.997c5.453-7.942,11.197-15.142,15.998-22.997c10.52-17.212,18.482-35.649,28.996-48.994
			c-6.126-7.049-13.952-10.678-15.998-21.997c-1.042-5.766,1.96-12.327,1-18.998c-0.72-4.998-5.957-9.729-6.999-15.998
			c-0.754-4.534,0.894-10.217,0-14.998c-2.064-11.048-12.199-20.776-13.998-34.996c-0.734-5.799-0.988-12.603,0-17.998
			c1.06-5.788,4.484-13.107,10.999-15.998c-5.023-23.202,8.11-47.259,24.997-53.993c4.505-1.796,9.492-0.321,13.999-2
			c11.328-4.219,15.396-17.094,25.997-23.997c7.693-5.009,19.276-9.271,30.996-9.999c3.368-0.209,6.907,1.867,10.999,1
			c4.446-0.942,8.421-5.517,12.999-7.999c10.705-5.804,32.349-9.788,44.995,0c15.189-9.771,43.642-17.844,66.991-9.999
			c9.2-4.575,19.191-9.931,30.996-9.999c17.066-0.098,30.532,9.88,39.995,17.998c13.42-2.712,25.51-1.977,36.995,4
			c6.415,3.338,10.955,9.87,15.998,10.999c9.309,2.084,18.053-2.739,25.997,0c3.215,1.108,12.017,8.017,14.998,10.999
			c3.533,3.533,5.665,8.794,8.999,12.999c8.785,0.875,15.917,2.354,20.997,5.999c11.325,8.127,10.846,25.886,16.998,37.996
			c6.947,13.673,23.257,23.576,19.997,43.994c5.885,6.175,8.197,12.732,7,25.997c-0.126,1.39,1.293,4.205,1,5.999
			c-0.326,1.987-1.96,1.918-2,4c-0.137,7.043,1.925,13.984,1,18.998c-2.185,11.838-13.181,18.23-20.998,20.998
			c-2.811,13.854-11.299,22.029-25.996,23.997c-8.465,10.866-13.349,25.313-33.996,23.997c-4.229,7.77-12.415,11.581-17.998,17.998
			c-2.339,3.392,3.061,3.427,0,6.999c-10.864,25.131-18.278,53.712-51.993,55.992c-10.961,22.369-24.814,41.845-54.993,44.995
			c-5.38,13.168-8.767,26.076-20.997,30.996c-2.022,0.813-5.827,0.49-8.999,1c-8.025,1.288-16.789,2.857-28.997,1.999
			c-3.201,0.946-5.325,5.747-8.999,8.999c-2.388,2.114-8.976,7.559-7.999,4C291.059,611.697,293.333,609.639,294.968,606.939z
			 M291.968,364.97c0.797-0.24,7.376,0.868,5-2c-8.698,3.683-18.014-0.639-18.998-7.999c1.464-0.869,3.169-1.497,3-4
			c-1.049-12.279,3.992-23.02,2-32.996c9.183-12.019,4.669-31.201,5-48.994c0.073-3.976-1.779-9.711,2-11.999
			c2.212,18.354,3.486,39.007,2,56.993c-1.275,15.429-8.004,31.77-2,37.995c25.367-3.984,40.93-29.659,43.995-58.993
			c2.04-19.532,12.265-38.794,13.998-56.993c1.117-11.724,1.569-19.591,4.999-27.997c11.786,14.211,16.96,35.034,15.998,61.992
			c0.24,1.875,1.646-0.567,2,1c1.221,14.998-0.219,26.922-3.999,38.995c17.383-3.594,25.312-18.952,33.995-33.996
			c7.307-12.658,18.022-27.912,18.998-39.995c2.438,1.291,3.603-6.079,5.999-8.999c2.23-2.718,6.987-2.311,6.999-6.999
			c-7.284-2.381-10.286-9.045-20.997-7.999c-1.576,0.09-0.783,2.55-3,2c-23.191,2.686-27.021-15.149-42.994-16.998
			c-15.916-1.843-18.912,11.608-32.996,11.999c-4.401,0.122-10.09-3.293-15.998-4c-2.392-0.286-5.056,0.421-6.999,0
			c-1.651-0.358-0.756-1.861-3-2c-17.387-1.072-23.767,10.675-36.995,11.999c-7.627,0.763-17.478-5.533-26.997-5
			c-14.258,0.799-24.147,20.102-40.995,13.999c-1.322,0.012-0.914,1.752-2,2c-10.171-6.626-23.611,0.877-27.997,8.999
			c1.72,0.395,2.563-1.484,3,0c-10.819,3.838-18.215,14.899-30.996,17.998c-3.196,0.774-7.733-0.215-10.999,1
			c-8.155,3.033-15.409,13.209-16.998,21.998c-1.372,7.591,1.524,16.037-4,21.997c1.72,0.395,2.563-1.484,3,0
			c-5.731,7.896-10.816,12.628-10.999,20.998c-0.268,12.244,11.725,23.192,12.998,34.996c0.708,6.555-2.2,12.335-1,17.998
			c1.399,6.601,7.433,8.274,7.999,14.998c-9.352,15.248,2.508,30.894,17.998,32.996c6.673-17.753-5.997-33.888-7.999-51.993
			c9.73,1.268,9.427,12.57,13.998,18.998c-1.476-7.021-4.384-15.855-5.999-20.998c-0.347-1.104,0.348,0.498-1-1
			c7.749-3.266,4.188,5.923,5,9.999c1.474,7.402,5.794,15.788,7.999,20.998c-0.553-12.746-7.897-21.398-4-32.996
			c-4.007-1.992-10.853-1.146-14.998-3c-0.598,1.78,2.931,4.152,0,5c0.585-6.252-6.306-5.027-7.999-8.999
			c1.683-1.241,5.106-2.908,3-5c-3.739-1.761-3.713-2.248-7.999-4c1.022-3.644,6.166-3.167,8.999-4.999c0.855-2.333-3.497-4.308-1-5
			c1.161,0.839,2.681,1.319,5,1c2.968-2.364,3.25-7.415,5.999-9.999c-0.304,4.082,2.087,0.534,4,1c1.196,2.803,1.1,6.899,1,10.999
			c2.575,3.178,6.379,2.357,7.999,2c0.846,3.613-3.758,4.452-4,5.999c0.129-0.826,2.958,0.916,3,1c0.603,1.229-1.964,5.495,0,7.999
			c-3.537,0.338-5.151,0.058-5.999,1c3.838,0.161,3.232,4.767,4.999,6.999c0.24-1.086,1.646-2.401,2-1
			c-0.175,3.001,1.888,7.128,3,10.999c1.033,3.597-0.107,10.747,4,8.999c-2.521-2.682-0.74-7.931,1-10.999
			c0.853,3.146,1.855,6.144,4.999,6.999c0-2.333,0-4.666,0-6.999c2,0,4,0,6,0c-0.874-6.459-3.146-11.519-6-15.998
			c1.315-5.254,2.18-11.754-2-13.999c-0.911-4.309,4.498-9.878,3-13.998c-0.316-0.106-2.211-10.368-5-13.998
			c-3.401-1.308-6.977,2.227-7.999,0c2.699,0.01,3.569-3.811,3.999-6c1.065-5.418-0.046-13.878-2-17.998
			c0.776-0.224,1.972-0.028,2-1c-3.833,0.182-0.362-0.818-1-3c-3.231-2.102-3.686-6.98-6.999-8.999c0.332-3.998-1.783-5.55-1-9.999
			c25.332,6.331,30.842,32.483,44.994,49.994c0.593,5.247,2.205,9.559,2,12.999c2.125,1.54,3.723,3.609,5.999,4.999
			c-0.722-3.055,1.022-3.644,1-5.999c-2.51-1.156-5.142-2.19-6-5c4.447-2.219,8.109-5.223,12.999-6.999
			c-0.637-6.362-3.967-10.032-4-16.998c-4.224-0.224-6.458,1.542-9.999,2c-2.507-3.795-2.072-13.699-6-12.999
			c-1.975-7.69,0.661-19.992-4.999-23.997c4.584-1.249,1.139-4.669,2-9.999c2.359-0.764,6.91-1.971,8.999,0
			c1.373-2.279-2.578-3.759,0-4c4.876,3.167,14.609-2.678,16.998-2c2.156,14.152,13.711,24.101,16.998,37.995
			c0.723,3.057,0.006,6.827,1,9.999c0.691,2.206,2.961,3.573,4,5.999c1.924,4.498,1.796,9.844,4,11.999
			c-2.372,5.664-0.46,14.911,3,17.998c-4.775,5.896-14.854,21.51-5,26.997c3.471-4.862,8.573-8.092,12.999-11.999
			c1.396-8.315,5.926-7.359,5.999-16.998c-2.847-1.598-6.814-10.082-2-12.998c0.156,1.176-0.172,2.838,1,3
			c1.289-2.71,2.446-5.552,2-9.999c4.723,0.434,2.735-5.507,3-5.999c0.289-0.539,2.6-0.256,3-1
			c3.874-7.193,2.294-18.773,6.999-22.997c-4.025-4.136,1.666-6.721,1-12.999c1.376-0.043,2.195,0.471,3,1
			c-0.31-5.642,1.773-8.892,1-14.998c8.43-3.902,3.769-20.896,12.999-23.997c1.939,8.92,0.405,15.128-5,18.998
			c-4.29,39.067-6.804,82.006-22.997,105.987c-2.106,3.12-5.733,5.819-7.999,9.999c-0.216,0.399,0.272,3.617,0,4
			c-5.952,8.36-15.968,12.999-24.997,17.998c-4.663,0.664-6.424-1.575-9.999-2c-2.802,5.197-7.609,8.389-10.999,12.999
			c-1.434-1.566-5.212-0.787-4.999-4c0.355-2.644,5.095-0.904,5.999-3c-6.886-3.913-6.163,5.812-13.998,4
			c-1.298-2.48,2.23-4.853,0-5c-9.433,10.302-13.985,29.674-25.997,35.995c0.778-6.777-1.365-10.633-1-16.997
			c-4.1-1.733-0.21-5.598-4.999-6.999c1.713,18.378-6.702,26.627-19.998,29.996c4.591,7.417,14.389,3.633,20.997,1.999
			c-0.792,5.874,2.217,15.549-3,16.998c0.715-2.715-4.715,0.716-4-2c1.667,0,3.333,0,5,0c-3.14-7.219-10.373-8.33-11.999,1
			c2.874,1.397,5.079-2.725,6,0c-5.553-0.704-0.693,5.202-3,6c-2.63-1.036-6.136-1.197-9.999-1c-4.344-4.75-1.358-11.752-4-18.998
			c-7.7,11.965-18.851,20.478-21.997,36.995c6.994,0.329,8.121-5.21,14.998-4.999c-1.339,5.049,2.998,9.608,0,12.998
			c-3.123-1.21-6.24-2.425-8.999-3.999c-1.188,3.145-3.375,5.29-4,8.999c4.107-0.26,10.381-3.572,12.999-2
			c-4.113-0.468,0.785,2.514-2,4c-2.312-2.019-7.67-1.021-8.999,0.999c-2.527,4.275,2.498,5.097,1,6.999
			c-5.932-1.281-14.81-0.497-17.998,6c0.551-2.507,4.67-6.585,3-7.999c-5.933,8.122-16.549,16.703-16.998,26.996
			c3.552-0.398,3.067-3.28,4-3.999c3.729-1.062,1.583,3.75,5,2.999c-0.895-3.228,3.261-1.404,4-2.999
			c3.152,1.848,5.455,4.544,6,8.999c-5.754,1.604-4.739-1.398-10.999-1c1.322,5.316,9.696,6.105,6,10.998
			c-2.502-0.83-3.927-2.739-6.999-2.999c-0.045,4.287-6.223,2.442-8.999,3.999c-3.597-3.068-2.662-10.669-5-14.998
			c-4.043,10.954-18.893,11.104-28.996,15.998c1.386,2.489,2.833,2.376,4,3c2.378,8.62,8.827,13.17,13.998,18.997
			c10.574,0.478,14.891,8.921,24.997,6.999c3.5-21.273,8.982-32.524,18.998-45.994c5.401-7.264,11.114-14.312,15.998-20.997
			c10.331-14.144,24.262-26.047,27.996-44.994c2.421-1.246,4.857-2.476,7.999-3c-0.219,1.257-1.557,2.044,1,2
			c10.114,1.552,15.862,7.468,28.997,5.999c0.409-2.409-1.826-2.173-1-4.999c-4.628,2.705-6.03-2.201-8.999-4
			c-0.276-1.752,2.815-4.988,0-5.999c-0.095,3.726-5.083-3.075-7.999-3c2.168,0.169,0.453-3.546,1-4.999
			c24.219-8.6,37.603,9.274,55.993,12.998c1.002,2.665,4.036,3.297,5.999,5c-1.466-6.533-7.608-8.39-9.999-13.998
			c-1.5,3.305-2.445-2.078-5-1c2.689-5.663-8.014-3.961-7.999-9.999c-4.444-1.556-10.05-1.948-10.999-6.999
			c7.674-3.115,16.17,0.783,23.997-2c-10.236-5.096-20.334-10.328-29.996-15.998c19.458-9.205,36.594-20.731,62.992-22.997
			c-2.884-1.448-5.934-2.732-7.999-4.999C267.453,374.141,281.554,368.104,291.968,364.97z M446.948,273.981
			c-3.194,5.815-6.596,16.721-6.999,21.997c25.729-7.267,49.019-16.973,77.99-20.997c-2.203-8.796-4.486-17.511-8.999-23.997
			c-18.184,5.33-21.314-15.797-31.995-19.998c-9.742-3.831-23.711,3.887-34.996-3C444.915,242.02,447.508,256.425,446.948,273.981z
			 M346.961,307.977c-5.087,13.245-10.836,25.826-19.997,34.996c0.775,0.224,1.972,0.028,1.999,1
			c-9.237,5.094-18.279,10.383-26.996,15.998c6.662,3.52,12.723-2.693,18.998-4c8.207-1.708,15.942-0.141,24.996,1
			c1.668-5.521,4.377-9.817,0-13.999c18.521-4.144,31.201-14.127,50.994-16.998c3.844-7.488,7.762-14.902,10.998-22.997
			c-9.78,5.884-15.072,16.257-26.996,19.998c-2.705,2.422-0.033,4.422-4,5.999c-6.081,3.111-19.476,8.492-25.996,2
			c-1.865-4.952,0.842-9.985-3-13.999c3.314-9.356,6.463-24.192,5.999-33.996c-2.071,9.287-6.531,19.153-5.999,27.997
			C347.805,309.8,348.133,308.139,346.961,307.977z M464.946,409.965c0.499,7.175-11.274,3.75-5.999,7.999
			c-5.224-0.465-9.894-6.742-13.998-5c4.266,1.733,7.231,4.768,10.998,6.999c-2.115,1.218-2.903,3.763-5.999,4
			c-10.507-7.158-19.328-16.001-33.996-18.998c-4.811-5.341-9.872-8.245-16.997-6.999c0.074-1.741-0.224-3.11-1-4
			c-15.106-3.558-31.254-6.075-47.994-7.999c-2.062,0.272-0.238,4.428-3,4c-5.347-4.78-15.011-5.921-19.997-2
			c5.382,1.326-2.525,4.816,1,7.999c0.24,2.578,1.72-1.373,3.999,0c2.01,4.872,6.24,5.591,11.999,8.999
			c3.06,1.811,6.924,5.166,8.998,6c1.996,0.802,5.114,0.046,6.999,0.999c0.655,0.331,0.474,2.673,1,3c0.959,0.596,3.049-0.606,4,0
			c1.796,1.145,2.845,4.827,5.999,3.999c2.521-1.821,8.321-5.174,10.999-0.999c-0.014,2.805-2.729-2.381-2,1.999
			c1.64,2.36,5.151,2.849,6.999,5c0.601,7.074,13.649,10.341,14.998,19.997c5.867,0.522,8.847,6.286,5.999,9.999
			c4.361,1.203,5.229,6.56,7.999,9.999c3.623,4.496,10.953,7.58,8.999,13.998c-10.511-6.486-18.215-15.78-25.996-24.997
			c-14.856,2.807-26.425-10.479-38.996-9.999c-5.799-5.866-19.184-4.146-24.996-9.998c-2.729-0.729-2.013,1.986-4,1.999
			c0.856-3.78-4.476-3.538-5.999-1.999c-3.195-3.138-7.803-4.862-10.999-7.999c2.748-5.255,0.102-4.863,1-9.999
			c-6.564-1.435-11.161-4.837-18.998-4.999c-1.386,1.613-0.845,5.153-3,5.999c-3.773-2.578-11.501-6.472-15.998-5
			c8.992,9.006,21.263,14.733,29.996,23.997c2.409,0.409,2.174-1.826,5-1c13.93,13.066,33.285,20.708,41.994,38.995
			c3.089,1.577,5.887,3.446,7.999,6c1.737,3.596,2.313,8.352,2,13.998c3.648,6.683,9.755,10.909,13.998,16.998
			c-3.19,2.137-2.969,1.463-5.999,0c-0.004,1.785,2.692,5.816,0,6.999c-2.539-3.396-5.568-0.954-8.999,0
			c-2.438-5.562-6.357-9.641-7.999-15.998c-6.214-1.805-7.868-8.094-14.998-9.999c-4.716-1.26-11.671,2.513-14.998-3.999
			c1.741-0.075,3.109,0.223,3.999,1c-1.303-5.029-6.112-6.554-9.998-8.999c-5.347-12.317-19.111-16.219-26.997-25.997
			c-0.186,1.48-2.416,0.917-3.999,1c-0.105-3.721-6.572-4.207-8.999-6.999c-0.669-0.77,1.632-1.716,0-3
			c-3.477-2.735-9.367-3.413-13.999-5.999c-1.588-0.887-1.496-3.265-3-4c-2.767-1.352-7-1.728-9.999-2.999
			c-7.552-3.202-12.201-6.547-16.998-7.999c0.284,4.283-7.739,0.26-7.999,3.999c30.344,11.813,49.42,34.355,64.992,62.992
			c2.319-0.318,3.839,0.161,5,1c-2.921,4.658,4.169,9.913,6,9.999c6.627,7.45,8.318,21.629,3.999,29.996
			c1.709,4.957,4.318,9.014,5,14.998c-4.936,4.397-8.235,10.43-14.999,12.998c-4.351-6.939-19.013-17.006-16.998-27.996
			c0.282-1.541,2.405-0.81,2-3c-0.334-3.331-2.897-4.435-2-8.998c-2.955,0.711-7.058,0.274-7.999,2.999c1.176,0.156,2.838-0.172,3,1
			c-2.039,0.294-1.961,2.705-4,3c-5.529-12.802-12.701-23.962-19.998-34.996c-10.442-3.556-13.906-14.09-17.998-23.997
			c-5.804,3.073-4.256-6.99-10.999-5.999c3.723,3.177,2.256,9.975,1,15.998c2.91,5.781,4.945,15.408,5,20.997
			c1.613,2.387,8.809-0.81,8.999,3c-6.06,0.606-3.944,9.388-7,12.998c0.776,0.224,1.973,0.027,2,1
			c-3.554,2.003-2.553,9.259-4,11.999c-4.47-2.981-5.952-9.046-7.999-13.999c-2.143-5.183-5.095-11.093-5-17.997
			c-4.417-7.915-10.695-13.969-14.998-21.998c-1.987-1.665-1.271,0.091-4,0c0.055-1.278,1.282-1.384,1-2.999
			c-7.878-5.945-19.145-12.166-31.996-9.999c-9.091,7.343,3.256,14.917,0,24.997c12.92,3.264,5.956,17.345,5,23.997
			c-4.473,31.115,5.798,71.792,29.996,74.99c13.926,1.841,20.302-7.641,30.996-5.999c4.481,0.688,8.746,6.256,13.998,9.999
			c4.476,3.189,10.184,7.261,14.999,8.999c20.184,7.287,24.588-13.736,34.996-15.998c8.05-1.75,17.516,4.956,25.997,4.999
			c4.172,0.021,18.758-2.074,22.997-6.999c4.324-5.025,1.854-12.561,5.999-18.998c7.772-12.07,25.938-6.265,37.995-16.998
			c3.997-3.558,8.193-9.342,10.999-13.998c4.661-7.736,6.876-21.138,14.998-22.997c11.95-2.735,19.982-3.922,25.996-11.998
			c9.682-13.003,10.98-37.684,19.998-49.994c2.359-3.221,7.046-4.969,9.998-6.999c5.176-3.56,7.408-10.484,10.999-12.998
			c3.948-2.764,9.078-3.762,13.998-5c7.415-9.25,9.788-23.541,24.997-24.997c5.434-12.23,10.666-24.663,25.997-26.997
			c0.201-11.048-2.917-23.016,1-31.996c-17.784-5.098-1.172-32.6-15.998-39.995c0.084,3.582,1.555,5.778,1.999,8.999
			c-17.747,12.915-39.492,21.833-64.991,26.997c-0.41-2.409,1.826-2.173,1-5c-3.63,0.037-7.894-0.561-8.999,2
			c2.896,0.56-1.534,1.56-1,3c12,1.999,20.45,7.546,31.996,9.999c5.776,5.888,10.725,12.605,18.997,15.998
			c1.389,1.278,0.612,4.721,2,5.999c1.862,0.956,3.342-2.995,3.999,0c-2.637,3.696-4.834,7.831-6.999,11.999
			c2.471,0.862,2.959,3.707,5,5c-3.101,0.101-4.777-1.223-6.999-2c-2.647,4.353-4.407,9.592-7.999,12.999
			c-6.73-8.883-16.961-27.711-27.997-29.996c-1.943-0.403-3.72,0.783-5.999,1c-9.995,0.95-23.564-0.91-31.996,0
			c-4.223,0.456-9.008,3.746-12.998,1c-0.485,1.182-1.066,2.267-2,3c-1.671-4.851-5.649,2.476-9.999-1
			c-0.716-2.95-1.142-6.19-2.999-7.999c-6.179,3.487-16.448,2.883-23.997,4.999c8.083,7.646,21.066,9.649,29.996,13.999
			c3.641-2.651,8.323-5.976,11.998-1c-1.57,0.095-3.467-0.134-2.999,2c2.091,0.575,2.854,2.479,5.999,2
			c-0.898,6.086,8.277,10.249,9.999,16.998c3.349,0.317,6.303,1.03,7.999,3c-2.651,1.175-5.888-1.917-5.999,0
			C445.952,404.295,456.513,406.066,464.946,409.965z M417.952,310.977c1.333,0,2.666,0,4,0c0-1,0-2,0-3
			C419.449,307.808,418.821,309.513,417.952,310.977z M209.978,341.973c5.745-0.255,5.196-6.803,5-12.999c-1.333,0-2.666,0-4,0
			C210.137,332.799,209.672,337,209.978,341.973z M207.979,337.974c-0.228-1.772,1.008-5.007-2-4
			C206.116,335.836,206.637,337.316,207.979,337.974z M414.952,338.973c2.955-0.149,7.058,2.907,7.999-1
			c-0.778-0.221-1.162-0.837-0.999-2C419.77,337.125,415.484,336.172,414.952,338.973z M388.956,339.973
			c0.612,8.632,7.767,2.327,9.999-1C396.324,340.009,392.818,340.17,388.956,339.973z M179.982,357.971
			c-2.208-0.125-0.424-4.242-1-6c-2.409,0.409-2.173-1.826-4.999-1C174.744,353.92,178.154,359.408,179.982,357.971z
			 M151.985,420.963c1.171-1.495,1.243-4.09,3-4.999c-0.529-4.829,1.143-17.108-1-16.998
			C155.478,407.806,151.23,416.189,151.985,420.963z M143.986,449.959c2.874-1.791,5.705-3.627,6-7.998
			c-3.078,0.699-1.922,0.699-5,0C145.207,445.18,143.218,446.191,143.986,449.959z M203.979,453.959c-0.169,2.503,1.536,3.13,3,4
			c0.839-1.161,1.319-2.682,1-5C206.237,452.884,204.869,453.183,203.979,453.959z"/>
		<path fill-rule="evenodd" clip-rule="evenodd" fill="#FFFFFF" d="M256.972,377.969c2.065,2.267,5.115,3.551,7.999,4.999
			c-26.397,2.266-43.534,13.792-62.992,22.997c9.662,5.67,19.76,10.902,29.996,15.998c-7.827,2.783-16.323-1.115-23.997,2
			c0.948,5.051,6.555,5.443,10.999,6.999c-0.015,6.038,10.688,4.336,7.999,9.999c2.555-1.078,3.5,4.305,5,1
			c2.391,5.608,8.532,7.465,9.999,13.998c-1.963-1.703-4.997-2.335-5.999-5c-18.39-3.724-31.774-21.598-55.993-12.998
			c-0.547,1.453,1.168,5.168-1,4.999c2.916-0.075,7.904,6.726,7.999,3c2.815,1.011-0.276,4.247,0,5.999
			c2.969,1.799,4.371,6.705,8.999,4c-0.826,2.826,1.409,2.59,1,4.999c-13.134,1.469-18.883-4.447-28.997-5.999
			c-2.557,0.044-1.219-0.743-1-2c-3.142,0.524-5.578,1.754-7.999,3c-3.734,18.947-17.665,30.851-27.996,44.994
			c-4.884,6.686-10.597,13.733-15.998,20.997c-10.016,13.47-15.498,24.721-18.998,45.994c-10.106,1.922-14.423-6.521-24.997-6.999
			c-5.171-5.827-11.62-10.377-13.998-18.997c-1.167-0.624-2.614-0.511-4-3c10.104-4.895,24.953-5.044,28.996-15.998
			c2.337,4.329,1.402,11.93,5,14.998c2.776-1.557,8.954,0.288,8.999-3.999c3.072,0.26,4.497,2.169,6.999,2.999
			c3.697-4.893-4.678-5.682-6-10.998c6.26-0.398,5.245,2.604,10.999,1c-0.545-4.455-2.848-7.151-6-8.999
			c-0.738,1.595-4.894-0.229-4,2.999c-3.417,0.751-1.27-4.062-5-2.999c-0.932,0.719-0.447,3.601-4,3.999
			c0.449-10.293,11.065-18.874,16.998-26.996c1.67,1.414-2.449,5.492-3,7.999c3.188-6.497,12.066-7.281,17.998-6
			c1.498-1.902-3.527-2.724-1-6.999c1.329-2.021,6.687-3.018,8.999-0.999c2.785-1.486-2.113-4.468,2-4
			c-2.617-1.572-8.892,1.74-12.999,2c0.625-3.709,2.811-5.854,4-8.999c2.759,1.574,5.876,2.789,8.999,3.999
			c2.998-3.39-1.339-7.949,0-12.998c-6.877-0.211-8.004,5.328-14.998,4.999c3.146-16.518,14.297-25.03,21.997-36.995
			c2.642,7.246-0.344,14.248,4,18.998c3.863-0.197,7.368-0.036,9.999,1c2.307-0.798-2.553-6.704,3-6c-0.92-2.725-3.126,1.397-6,0
			c1.626-9.33,8.859-8.219,11.999-1c-1.667,0-3.333,0-5,0c-0.715,2.716,4.715-0.715,4,2c5.217-1.449,2.208-11.124,3-16.998
			c-6.608,1.634-16.406,5.418-20.997-1.999c13.295-3.369,21.711-11.618,19.998-29.996c4.789,1.401,0.899,5.266,4.999,6.999
			c-0.365,6.364,1.778,10.22,1,16.997c12.012-6.321,16.564-25.693,25.997-35.995c2.23,0.147-1.298,2.52,0,5
			c7.835,1.813,7.112-7.912,13.998-4c-0.904,2.095-5.644,0.355-5.999,3c-0.213,3.212,3.565,2.433,4.999,4
			c3.389-4.61,8.197-7.801,10.999-12.999c3.575,0.425,5.336,2.664,9.999,2c9.028-4.999,19.044-9.637,24.997-17.998
			c0.272-0.383-0.216-3.601,0-4c2.266-4.179,5.893-6.879,7.999-9.999c16.193-23.981,18.707-66.92,22.997-105.987
			c5.405-3.869,6.939-10.077,5-18.998c-9.23,3.102-4.569,20.095-12.999,23.997c0.774,6.106-1.31,9.356-1,14.998
			c-0.804-0.529-1.624-1.043-3-1c0.666,6.278-5.025,8.862-1,12.999c-4.705,4.224-3.125,15.804-6.999,22.997
			c-0.4,0.744-2.711,0.461-3,1c-0.264,0.492,1.724,6.433-3,5.999c0.447,4.447-0.71,7.289-2,9.999c-1.172-0.162-0.844-1.823-1-3
			c-4.814,2.916-0.848,11.4,2,12.998c-0.073,9.639-4.603,8.683-5.999,16.998c-4.425,3.907-9.528,7.137-12.999,11.999
			c-9.854-5.487,0.224-21.101,5-26.997c-3.459-3.087-5.372-12.334-3-17.998c-2.204-2.154-2.076-7.501-4-11.999
			c-1.038-2.426-3.308-3.793-4-5.999c-0.994-3.172-0.277-6.942-1-9.999c-3.287-13.894-14.842-23.843-16.998-37.995
			c-2.388-0.678-12.121,5.167-16.998,2c-2.578,0.241,1.373,1.72,0,4c-2.089-1.971-6.64-0.764-8.999,0
			c-0.861,5.33,2.585,8.75-2,9.999c5.66,4.005,3.024,16.307,4.999,23.997c3.928-0.701,3.493,9.203,6,12.999
			c3.541-0.458,5.775-2.224,9.999-2c0.033,6.966,3.362,10.636,4,16.998c-4.889,1.776-8.551,4.78-12.999,6.999
			c0.857,2.809,3.489,3.843,6,5c0.022,2.355-1.722,2.944-1,5.999c-2.276-1.39-3.874-3.459-5.999-4.999
			c0.205-3.439-1.407-7.752-2-12.999c-14.152-17.51-19.663-43.663-44.994-49.994c-0.783,4.449,1.332,6,1,9.999
			c3.313,2.019,3.768,6.897,6.999,8.999c0.637,2.181-2.834,3.181,1,3c-0.027,0.972-1.224,0.776-2,1
			c1.954,4.119,3.064,12.579,2,17.998c-0.43,2.188-1.3,6.009-3.999,6c1.021,2.227,4.597-1.308,7.999,0
			c2.789,3.63,4.683,13.892,5,13.998c1.498,4.12-3.91,9.689-3,13.998c4.18,2.244,3.314,8.745,2,13.999
			c2.854,4.479,5.125,9.539,6,15.998c-2,0-4,0-6,0c0,2.333,0,4.666,0,6.999c-3.144-0.855-4.146-3.853-4.999-6.999
			c-1.74,3.068-3.521,8.316-1,10.999c-4.106,1.748-2.966-5.402-4-8.999c-1.112-3.87-3.174-7.997-3-10.999
			c-0.354-1.401-1.76-0.086-2,1c-1.767-2.232-1.161-6.838-4.999-6.999c0.848-0.942,2.462-0.662,5.999-1
			c-1.964-2.504,0.603-6.77,0-7.999c-0.041-0.084-2.871-1.826-3-1c0.241-1.547,4.845-2.386,4-5.999c-1.62,0.357-5.424,1.178-7.999-2
			c0.1-4.099,0.196-8.195-1-10.999c-1.912-0.466-4.304,3.082-4-1c-2.749,2.584-3.031,7.635-5.999,9.999
			c-2.319,0.319-3.839-0.161-5-1c-2.497,0.691,1.855,2.667,1,5c-2.833,1.833-7.977,1.355-8.999,4.999
			c4.286,1.751,4.26,2.239,7.999,4c2.107,2.092-1.317,3.758-3,5c1.693,3.972,8.584,2.747,7.999,8.999c2.931-0.847-0.598-3.219,0-5
			c4.146,1.854,10.991,1.007,14.998,3c-3.898,11.598,3.447,20.25,4,32.996c-2.205-5.21-6.525-13.595-7.999-20.998
			c-0.812-4.076,2.75-13.265-5-9.999c1.348,1.498,0.653-0.104,1,1c1.615,5.143,4.523,13.977,5.999,20.998
			c-4.571-6.427-4.268-17.729-13.998-18.998c2.002,18.105,14.672,34.24,7.999,51.993c-15.49-2.102-27.35-17.748-17.998-32.996
			c-0.565-6.724-6.6-8.397-7.999-14.998c-1.2-5.662,1.707-11.442,1-17.998c-1.273-11.804-13.266-22.752-12.998-34.996
			c0.183-8.37,5.267-13.102,10.999-20.998c-0.437-1.484-1.28,0.395-3,0c5.524-5.96,2.627-14.406,4-21.997
			c1.588-8.789,8.842-18.965,16.998-21.998c3.266-1.214,7.803-0.225,10.999-1c12.781-3.099,20.177-14.16,30.996-17.998
			c-0.436-1.484-1.279,0.395-3,0c4.385-8.122,17.826-15.625,27.997-8.999c1.086-0.247,0.678-1.988,2-2
			c16.847,6.103,26.737-13.2,40.995-13.999c9.519-0.533,19.37,5.763,26.997,5c13.229-1.323,19.608-13.071,36.995-11.999
			c2.244,0.139,1.349,1.642,3,2c1.943,0.421,4.607-0.286,6.999,0c5.908,0.707,11.597,4.122,15.998,4
			c14.084-0.391,17.08-13.841,32.996-11.999c15.973,1.849,19.803,19.684,42.994,16.998c2.217,0.55,1.424-1.91,3-2
			c10.711-1.046,13.713,5.618,20.997,7.999c-0.012,4.688-4.769,4.281-6.999,6.999c-2.396,2.92-3.561,10.29-5.999,8.999
			c-0.976,12.083-11.691,27.337-18.998,39.995c-8.684,15.043-16.612,30.402-33.995,33.996c3.78-12.073,5.22-23.997,3.999-38.995
			c-0.354-1.567-1.76,0.875-2-1c0.962-26.958-4.212-47.781-15.998-61.992c-3.43,8.406-3.882,16.272-4.999,27.997
			c-1.733,18.198-11.958,37.461-13.998,56.993c-3.064,29.333-18.628,55.008-43.995,58.993c-6.005-6.226,0.724-22.566,2-37.995
			c1.487-17.986,0.212-38.64-2-56.993c-3.778,2.287-1.926,8.022-2,11.999c-0.33,17.793,4.183,36.975-5,48.994
			c1.992,9.976-3.049,20.716-2,32.996c0.169,2.503-1.536,3.13-3,4c0.984,7.36,10.3,11.682,18.998,7.999c2.376,2.868-4.202,1.76-5,2
			C281.554,368.104,267.453,374.141,256.972,377.969z M289.968,228.987c-1.122-0.211-1.557-1.11-2-2c-2.665,0.068-7.156,3.419-4,6
			C283.365,228.184,289.149,229.774,289.968,228.987z M286.969,267.982c0.629-4.704-1.666-12.332,2-13.999
			C282.757,252.985,284.269,266.189,286.969,267.982z M237.975,356.971c1.171-0.923,6.278-2.926,3-5
			C240.217,353.297,235.885,359.164,237.975,356.971z M157.985,371.969c1.72,0.054,2.563-0.77,3-2
			C159.264,369.916,158.421,370.739,157.985,371.969z"/>
		<path fill-rule="evenodd" clip-rule="evenodd" d="M283.969,232.987c-3.156-2.58,1.335-5.931,4-6c0.443,0.89,0.878,1.789,2,2
			C289.149,229.774,283.365,228.184,283.969,232.987z"/>
		<path fill-rule="evenodd" clip-rule="evenodd" fill="#FFFFFF" d="M437.95,399.966c0.111-1.917,3.348,1.175,5.999,0
			c-1.696-1.97-4.65-2.683-7.999-3c-1.722-6.749-10.897-10.911-9.999-16.998c-3.146,0.479-3.908-1.424-5.999-2
			c-0.468-2.134,1.429-1.905,2.999-2c-3.675-4.976-8.357-1.651-11.998,1c-8.93-4.35-21.913-6.353-29.996-13.999
			c7.549-2.116,17.818-1.512,23.997-4.999c1.857,1.808,2.283,5.049,2.999,7.999c4.35,3.476,8.328-3.851,9.999,1
			c0.934-0.733,1.515-1.818,2-3c3.99,2.746,8.775-0.544,12.998-1c8.432-0.91,22.001,0.95,31.996,0c2.279-0.216,4.056-1.402,5.999-1
			c11.036,2.285,21.267,21.113,27.997,29.996c3.592-3.407,5.352-8.646,7.999-12.999c2.222,0.777,3.898,2.101,6.999,2
			c-2.041-1.292-2.529-4.137-5-5c2.165-4.168,4.362-8.303,6.999-11.999c-0.657-2.995-2.137,0.956-3.999,0
			c-1.388-1.278-0.611-4.721-2-5.999c-8.272-3.393-13.221-10.11-18.997-15.998c-11.546-2.453-19.996-8-31.996-9.999
			c-0.534-1.44,3.896-2.44,1-3c1.105-2.561,5.369-1.963,8.999-2c0.826,2.826-1.41,2.59-1,5
			c25.499-5.163,47.244-14.082,64.991-26.997c-0.444-3.221-1.915-5.417-1.999-8.999c14.826,7.395-1.786,34.897,15.998,39.995
			c-3.917,8.98-0.799,20.948-1,31.996c-15.331,2.333-20.563,14.766-25.997,26.997c-15.209,1.456-17.582,15.747-24.997,24.997
			c-4.92,1.238-10.05,2.236-13.998,5c-3.591,2.514-5.823,9.438-10.999,12.998c-2.952,2.03-7.639,3.778-9.998,6.999
			c-9.018,12.311-10.316,36.991-19.998,49.994c-6.014,8.076-14.046,9.263-25.996,11.998c-8.122,1.859-10.337,15.261-14.998,22.997
			c-2.806,4.656-7.002,10.44-10.999,13.998c-12.058,10.733-30.223,4.928-37.995,16.998c-4.146,6.438-1.675,13.973-5.999,18.998
			c-4.239,4.925-18.825,7.021-22.997,6.999c-8.481-0.043-17.947-6.749-25.997-4.999c-10.407,2.262-14.812,23.285-34.996,15.998
			c-4.815-1.738-10.522-5.81-14.999-8.999c-5.252-3.743-9.517-9.312-13.998-9.999c-10.694-1.642-17.07,7.84-30.996,5.999
			c-24.198-3.198-34.469-43.875-29.996-74.99c0.956-6.652,7.92-20.733-5-23.997c3.256-10.08-9.091-17.654,0-24.997
			c12.852-2.167,24.118,4.054,31.996,9.999c0.282,1.615-0.945,1.721-1,2.999c2.728,0.091,2.013-1.665,4,0
			c4.303,8.029,10.582,14.083,14.998,21.998c-0.096,6.904,2.857,12.814,5,17.997c2.047,4.953,3.529,11.018,7.999,13.999
			c1.447-2.74,0.445-9.996,4-11.999c-0.027-0.973-1.224-0.776-2-1c3.055-3.61,0.94-12.392,7-12.998c-0.19-3.81-7.386-0.613-8.999-3
			c-0.055-5.589-2.089-15.216-5-20.997c1.256-6.023,2.723-12.821-1-15.998c6.743-0.991,5.195,9.072,10.999,5.999
			c4.091,9.907,7.555,20.441,17.998,23.997c7.296,11.034,14.468,22.194,19.998,34.996c2.039-0.295,1.96-2.706,4-3
			c-0.162-1.172-1.823-0.844-3-1c0.941-2.725,5.044-2.288,7.999-2.999c-0.897,4.563,1.665,5.667,2,8.998c0.405,2.19-1.717,1.459-2,3
			c-2.015,10.99,12.647,21.057,16.998,27.996c6.763-2.568,10.063-8.601,14.999-12.998c-0.682-5.984-3.291-10.041-5-14.998
			c4.319-8.367,2.628-22.546-3.999-29.996c-1.831-0.086-8.921-5.341-6-9.999c-1.161-0.839-2.681-1.318-5-1
			c-15.572-28.637-34.647-51.179-64.992-62.992c0.26-3.739,8.283,0.284,7.999-3.999c4.797,1.452,9.446,4.797,16.998,7.999
			c2.998,1.271,7.232,1.647,9.999,2.999c1.503,0.735,1.411,3.113,3,4c4.631,2.586,10.522,3.264,13.999,5.999
			c1.632,1.284-0.669,2.23,0,3c2.427,2.792,8.894,3.278,8.999,6.999c1.583-0.083,3.813,0.48,3.999-1
			c7.886,9.778,21.65,13.68,26.997,25.997c3.886,2.445,8.695,3.97,9.998,8.999c-0.89-0.777-2.258-1.075-3.999-1
			c3.327,6.512,10.282,2.739,14.998,3.999c7.13,1.905,8.784,8.194,14.998,9.999c1.642,6.357,5.562,10.437,7.999,15.998
			c3.431-0.954,6.46-3.396,8.999,0c2.692-1.183-0.004-5.214,0-6.999c3.03,1.463,2.809,2.137,5.999,0
			c-4.243-6.089-10.35-10.315-13.998-16.998c0.313-5.646-0.263-10.402-2-13.998c-2.112-2.554-4.91-4.423-7.999-6
			c-8.709-18.287-28.064-25.929-41.994-38.995c-2.826-0.826-2.591,1.409-5,1c-8.733-9.264-21.004-14.991-29.996-23.997
			c4.497-1.472,12.225,2.422,15.998,5c2.155-0.846,1.613-4.386,3-5.999c7.836,0.162,12.433,3.564,18.998,4.999
			c-0.898,5.136,1.748,4.744-1,9.999c3.196,3.137,7.804,4.861,10.999,7.999c1.523-1.539,6.855-1.781,5.999,1.999
			c1.987-0.013,1.271-2.728,4-1.999c5.812,5.852,19.197,4.132,24.996,9.998c12.571-0.48,24.14,12.806,38.996,9.999
			c7.781,9.217,15.485,18.511,25.996,24.997c1.954-6.418-5.376-9.502-8.999-13.998c-2.771-3.439-3.638-8.796-7.999-9.999
			c2.848-3.713-0.132-9.477-5.999-9.999c-1.349-9.656-14.397-12.923-14.998-19.997c-1.848-2.151-5.359-2.64-6.999-5
			c-0.729-4.38,1.986,0.806,2-1.999c-2.678-4.175-8.479-0.822-10.999,0.999c-3.154,0.828-4.203-2.854-5.999-3.999
			c-0.951-0.606-3.041,0.596-4,0c-0.526-0.327-0.345-2.669-1-3c-1.885-0.953-5.003-0.197-6.999-0.999
			c-2.074-0.834-5.938-4.189-8.998-6c-5.759-3.407-9.989-4.127-11.999-8.999c-2.279-1.373-3.759,2.578-3.999,0
			c-3.525-3.183,4.382-6.673-1-7.999c4.986-3.922,14.65-2.781,19.997,2c2.762,0.428,0.938-3.728,3-4
			c16.74,1.924,32.888,4.441,47.994,7.999c0.776,0.89,1.074,2.258,1,4c7.125-1.246,12.187,1.658,16.997,6.999
			c14.668,2.997,23.489,11.84,33.996,18.998c3.096-0.237,3.884-2.782,5.999-4c-3.767-2.231-6.732-5.266-10.998-6.999
			c4.104-1.742,8.774,4.535,13.998,5c-5.275-4.249,6.498-0.824,5.999-7.999C456.513,406.066,445.952,404.295,437.95,399.966z
			 M237.975,428.962c0.606,0.576,4.743,2.341,5,0C242.368,428.386,238.231,426.622,237.975,428.962z M427.951,477.956
			c-0.239,1.427-1.646,1.687-2,3c1.862-0.138,3.342-0.658,4-2c-1.354,0.171-1.296-5.788-3-2
			C427.561,477.013,428.135,477.105,427.951,477.956z M220.977,525.95c-0.503,8.712,0.179,10.216-4,13.998
			c4.141,2.191,0.661,12.004,3,15.998c4.789,0.456,1.863-6.802,7.999-4.999c-1.806,1.79,0.065,5.009,4,3.999
			c-2.088-8.099,1.583-16.396-5-22.997c2.487,0.943,0.292-5.723,0-2C225.938,534.856,223.851,525.648,220.977,525.95z
			 M209.978,538.948c0.174,2.883,4.95,6.306,7,4c-1.165-0.169-1.086-1.581-1-3c-1.453-0.547-5.168,1.168-5-1
			c6.893,0.894,4.991-7.008,7.999-9.999C212.94,529.245,215.065,537.702,209.978,538.948z M226.976,564.945
			c0.292-0.614,2.487-3.85,0-4c-0.211,1.209-1.11,0.615-2,0C225.114,562.808,225.634,564.287,226.976,564.945z"/>
		<path fill-rule="evenodd" clip-rule="evenodd" fill="#FFFFFF" d="M173.983,350.972c2.826-0.826,2.59,1.409,4.999,1
			c0.576,1.758-1.208,5.875,1,6C178.154,359.408,174.744,353.92,173.983,350.972z"/>
		<path fill-rule="evenodd" clip-rule="evenodd" d="M240.975,351.972c3.278,2.073-1.829,4.076-3,5
			C235.885,359.164,240.217,353.297,240.975,351.972z"/>
		<path fill-rule="evenodd" clip-rule="evenodd" d="M152.985,484.955c3.576-1.873,4.42,7.551,6.999,9.999
			C156.276,496.959,155.755,487.213,152.985,484.955z"/>
		<path fill-rule="evenodd" clip-rule="evenodd" d="M226.976,529.949c0.292-3.723,2.487,2.943,0,2
			c6.582,6.602,2.911,14.898,5,22.997c-3.934,1.01-5.806-2.209-4-3.999c-6.136-1.803-3.21,5.455-7.999,4.999
			c-2.339-3.994,1.141-13.807-3-15.998c4.178-3.782,3.496-5.286,4-13.998C223.851,525.648,225.938,534.856,226.976,529.949z"/>
		<path fill-rule="evenodd" clip-rule="evenodd" d="M218.977,528.949c-3.008,2.991-1.106,10.893-7.999,9.999
			c-0.168,2.168,3.546,0.453,5,1c-0.086,1.419-0.165,2.831,1,3c-2.049,2.306-6.825-1.117-7-4
			C215.065,537.702,212.94,529.245,218.977,528.949z"/>
		<path fill-rule="evenodd" clip-rule="evenodd" fill="#FFFFFF" d="M347.961,310.977c-0.532-8.843,3.928-18.709,5.999-27.997
			c0.464,9.804-2.685,24.639-5.999,33.996c3.842,4.013,1.135,9.046,3,13.999c6.521,6.492,19.915,1.111,25.996-2
			c3.967-1.577,1.295-3.577,4-5.999c11.924-3.741,17.216-14.113,26.996-19.998c-3.236,8.095-7.154,15.509-10.998,22.997
			c-19.793,2.871-32.474,12.854-50.994,16.998c4.377,4.182,1.668,8.477,0,13.999c-9.054-1.141-16.789-2.708-24.996-1
			c-6.275,1.306-12.336,7.52-18.998,4c8.717-5.615,17.759-10.904,26.996-15.998c-0.027-0.972-1.224-0.776-1.999-1
			c9.161-9.17,14.91-21.751,19.997-34.996C348.133,308.139,347.805,309.8,347.961,310.977z M343.962,342.973
			C341.235,348.046,347.452,346.695,343.962,342.973L343.962,342.973z"/>
		<path fill-rule="evenodd" clip-rule="evenodd" fill="#FFFFFF" d="M37,126c179.647,0,359.283,0,538.933,0
			c0,179.979,0,359.952,0,539.933c-179.979,0-359.952,0-539.933,0C36,486.959,36,307.971,36,129
			C35.914,127.581,35.835,126.168,37,126z M287.969,612.939c-0.978,3.559,5.611-1.886,7.999-4c3.674-3.252,5.798-8.053,8.999-8.999
			c12.208,0.858,20.971-0.711,28.997-1.999c3.172-0.51,6.977-0.187,8.999-1c12.23-4.92,15.617-17.828,20.997-30.996
			c30.179-3.15,44.032-22.626,54.993-44.995c33.715-2.28,41.129-30.861,51.993-55.992c3.061-3.572-2.339-3.607,0-6.999
			c5.583-6.417,13.769-10.229,17.998-17.998c20.647,1.316,25.531-13.131,33.996-23.997c14.697-1.968,23.186-10.144,25.996-23.997
			c7.817-2.768,18.813-9.16,20.998-20.998c0.925-5.013-1.137-11.955-1-18.998c0.04-2.082,1.674-2.013,2-4
			c0.293-1.794-1.126-4.609-1-5.999c1.197-13.265-1.115-19.822-7-25.997c3.26-20.418-13.05-30.321-19.997-43.994
			c-6.152-12.109-5.673-29.869-16.998-37.996c-5.08-3.646-12.212-5.125-20.997-5.999c-3.334-4.204-5.466-9.465-8.999-12.999
			c-2.981-2.981-11.783-9.891-14.998-10.999c-7.944-2.739-16.688,2.084-25.997,0c-5.043-1.129-9.583-7.661-15.998-10.999
			c-11.485-5.976-23.575-6.712-36.995-4c-9.463-8.118-22.929-18.096-39.995-17.998c-11.805,0.068-21.796,5.424-30.996,9.999
			c-23.35-7.846-51.802,0.227-66.991,9.999c-12.646-9.788-34.29-5.804-44.995,0c-4.577,2.482-8.552,7.057-12.999,7.999
			c-4.091,0.867-7.631-1.209-10.999-1c-11.72,0.728-23.303,4.989-30.996,9.999c-10.6,6.903-14.669,19.778-25.997,23.997
			c-4.507,1.679-9.493,0.203-13.999,2c-16.887,6.734-30.02,30.791-24.997,53.993c-6.514,2.891-9.939,10.21-10.999,15.998
			c-0.988,5.396-0.734,12.199,0,17.998c1.799,14.219,11.934,23.948,13.998,34.996c0.894,4.781-0.754,10.464,0,14.998
			c1.042,6.27,6.279,11,6.999,15.998c0.961,6.671-2.042,13.232-1,18.998c2.045,11.319,9.871,14.948,15.998,21.997
			c-10.514,13.345-18.476,31.782-28.996,48.994c-4.801,7.855-10.545,15.055-15.998,22.997c-5.763,8.394-10.354,17.408-17.998,20.997
			C52.21,526.076,40.04,524.643,39,534.949c-0.432,4.281,4.521,12.744,7.999,16.997c8.858,10.833,31.338,30.532,50.994,25.997
			c11.688-2.696,7.485-17.006,10.999-28.996c1.087-3.71,4.662-7.961,7-11.999c5.03-8.69,8.747-17.906,13.998-24.996
			c2.801-3.783,7.176-6.31,9.999-9.999c5.968-7.799,6.411-16.915,15.998-19.998c7.184,9.994,7.203,26.148,5,39.995
			c-1.14,7.167-1.012,13.27,0,21.997c1.429,12.316,3.453,18.722,6.999,25.997c5.688,11.669,11.345,17.787,20.998,25.997
			c5.784-0.51,12.345,2.502,19.998,2c7.077-0.465,13.39-3.881,18.998-5c4.896,8.437,15.681,10.982,20.997,18.998
			c14.361,7.474,36.057,3.326,45.995-5C293.333,609.639,291.059,611.697,287.969,612.939z M573.933,335.974
			c0.272-1.361-0.619-3.903-1-2C572.66,335.335,573.552,337.877,573.933,335.974z M159.984,494.954
			c-2.579-2.448-3.423-11.872-6.999-9.999C155.755,487.213,156.276,496.959,159.984,494.954z"/>
	</g>
</g>
</svg>
