<?xml version="1.0" encoding="utf-8"?>
<!-- Generator: Adobe Illustrator 23.0.1, SVG Export Plug-In . SVG Version: 6.00 Build 0)  -->
<svg version="1.1" id="Layer_1" xmlns="http://www.w3.org/2000/svg" xmlns:xlink="http://www.w3.org/1999/xlink" x="0px" y="0px"
	 viewBox="0 0 612 792" style="enable-background:new 0 0 612 792;" xml:space="preserve">
<style type="text/css">
	.st0{fill-rule:evenodd;clip-rule:evenodd;fill:#E5A517;}
	.st1{fill-rule:evenodd;clip-rule:evenodd;fill:#E5A624;}
</style>
<path class="st0" d="M358.2,364.1c-2.5,1.2-4.9,2.4-7.9,3.8c0.6,0.7,2,2.3,3.5,3.9c0.1,0.1,0.3,0.3,0.4,0.5
	c-0.1,2.6-1.2,3.5-3.4,1.7c-2.4-2-4.7-4.2-7-6.3c0.2,2,0.6,4.1,1.8,5.3c2.9,3,6.2,5.7,9.3,8.6c-0.8,0.3-1.6,0.7-2.4,1
	c-0.1,2.5-1.1,5.7,0,7.5c1.5,2.4,4.7,3.7,7.2,5.6c-5.4,4.4-9,0.5-13.5-1.3c0.2,2.5,0.7,5,2.2,6.1c2.1,1.6,3.7,4.6,7.8,3.5
	c1.8-0.5,4.6,3.5,6.8,3.4c6.5-0.3,12,2.1,16.6,6c4,3.4,7.1,7.8,10.5,11.7c3.6,4.9,7.7,9.6,10.8,14.9c3.8,6.6,6.8,13.6,9.8,20.6
	c0.4,1-0.9,3.7-2.2,4.4c-2.3,1.4-5.1,1.9-7.7,2.7c0.1,0.6,0.1,1.2,0.2,1.7c2.7,0.1,5.3,0.2,8,0.4c2.7,0.2,4.7,2,3.1,4.2
	c-3.8,4.9-0.2,9.4,0.1,13.9c0.6,7.7,1.9,15.4,2.8,23.2c0.1,1.1-0.2,2.3-0.1,3.5c0.8,8-1.9,11.1-10.3,11.8c-0.9,0.1-1.9,0.3-2,0.3
	c3.9,4,7.6,8.7,12.3,12c3.2,2.3,7.7,2.8,11.7,4.1c1.7,0.6,4.9,1.2,4.9,1.8c0,3.9,0.3,8.3-1.4,11.5c-1.7,3.3-9.6,2.9-12.2,0.1
	c-1.1-1.1-1.5-2.8-1.3-4.9c1.7,0.7,3.4,1.4,5.1,2c0.2-0.2,0.4-0.5,0.6-0.7c-1.7-2-3.4-4.1-5.2-6.2c-4.8,1.1-5.5,0.4-7.7-7.1
	c-1,3.6-2.4,4-4.9,0.9c-1-1.3-2.9-1.9-4.4-2.8c-0.4-0.2-1.1-0.2-1.4-0.5c-6-8.5-16.3-14.4-15.8-26.7c0.5-12.1-1.8-24.4,2.5-36.2
	c0.3-0.8,0.4-1.7,0.2-2.5c-1.7-8.2-3.3-16.5-5.3-24.6c-1.3-5.2-3.1-10.2-4.6-15.3c-1-3.1-1.5-6.5-5.7-7.1c-1-0.1-1.8-1.9-3.4-3.8
	c2.4,0,3.7,0.4,4.5-0.1c1.5-0.9,3.1-2.1,4-3.6c0.3-0.6-0.9-2.8-1.9-3.3c-2.5-1.4-5.1-2.7-7.9-3.1c-1.7-0.2-3.7,1.3-6.4,2.3
	c3.6,2.3,5.9,3.8,8.2,5.3c-0.2,0.4-0.5,0.8-0.7,1.2c-7.6-0.9-15.5-0.7-21.1-8.1c-2-2.6-6.5-3.2-9.8-4.9c-1.1-0.5-2.1-1.4-2.9-2.3
	c-0.2-0.2,0.6-1.8,1.1-1.9c1.1-0.3,2.4-0.2,3.5,0.1c2.5,0.7,4.9,1.6,7.4,2.4c0.2-0.7,0.4-1.3,0.6-2c-3.8-1.2-7.6-3.2-11.5-3.3
	c-2.9,0-5.9,2.4-8.1,3.4c0.9,0.1,2.7,0.2,4.6,0.3c0,0.5,0.1,1.1,0.1,1.6c-8.1,1.4-15.4,7.2-24.6,3c-2.5-1.1-5.8,0-8.7-0.4
	c-4.9-0.7-9.8-1.8-14.7-2.5c-4.3-0.6-7.8,0.3-11.1,3.8c-2.6,2.7-6.9,3.9-11.1,6.1c33.5,1.5,66.2,3,99.7,4.5
	c-3.7,8.7,5.2,9.2,8.1,14.7c-2.3-0.5-3.5-0.8-4.3-1c-1.6,4,8.1,4.7,2.5,10.8c0.6,0.3,1.6,0.9,2.7,1.4c-0.5,0.2-0.9,0.4-1.4,0.6
	c0.1,2.2,0.3,4.4,0.4,6.6c0,0.6,0.6,1.5,0.3,1.8c-4.1,4.7-1.6,10.3-1.9,15.4c-0.4,8.6-0.9,16.9-4.4,25.1c-3.1,7.1-4.2,14.9-6.7,22.3
	c-1.2,3.7-3.5,7.1-5.2,10.7c-2.1,4.5-4.1,9-6,13.5c-3.6,8.3-10,13.6-17.5,18.1c-6.7,4-13.2,8.3-19.4,13c-2.9,2.2-5.3,2.6-8,0.5
	c-2.9-2.3-5.6-5-8.5-7.4c-2.7-2.2-5.3-4.8-8.4-6.1c-10-4.2-16-11.8-20.5-21.1c-2.7-5.6-5.7-11.1-8.1-16.8c-2-5-3.3-10.4-4.9-15.5
	c-1.5-4.7-2.9-9.4-4.3-14.1c-3.1-10-3.1-20.1-1.6-30.4c0.2-1.7-0.1-3.6,0.2-5.3c0.7-5.8,1.6-11.6,2.5-17.4c0.1-0.4,0.9-0.8,2.5-2
	c0,2.6,0.1,4.3,0,5.9c-0.1,1.8-0.7,3.6-0.7,5.4c-0.2,6.8,0.3,7.4,7.2,7.7c11.5,0.5,22.9,0.7,34.4,1.1c8,0.3,16,1.2,23.9,1
	c13.4-0.3,26.8-1.4,40.2-1.9c2.7-0.1,5.4,0.8,8.2,1.3c-1.1,0.8-2.1,1.9-3.3,2c-8.5,1-17,1.8-25.6,2.6c-4.2,0.4-8.5,0.7-12.7,1.1
	c-1.2,0.1-2.3,0.4-3.5,0.3c-9.1-0.6-18.3-1.3-27.4-1.8c-13.2-0.8-26.4-1.6-39.6-2.1c-1.2-0.1-3.5,1.5-3.5,2.4
	c-0.3,6.8-0.5,13.7,0,20.5c0.5,6.9,5,10.6,12,11.1c0.9,0.1,2.4,1.1,2.4,1.7c0,1.3-0.3,3-1.2,3.8c-1.6,1.3-3.7,2-5.7,3
	c-0.8-1.7-1.3-2.8-1.9-4c-0.5,0.2-0.9,0.4-1.4,0.5c1.5,5.1,2.9,10.3,4.6,15.4c2.7,7.8,6.1,11.8,14.1,13.2c1.1,0.2,1.9,1.7,3.6,3.2
	c-4.4,0-7.1,0-10.2,0c0.5,1.2,0.7,2.1,1.3,2.9c3,4.1,6.4,8,9.1,12.3c5.1,8,12,12.9,21.7,12c3.8-0.3,7.7,0.4,11.1,0.8
	c6.5,0.7,12.1,0.1,18.1-1.8c9.4-2.9,13.8-10.3,17.5-18.3c0.7-1.6,0-4.1-0.6-5.9c-0.8-2.5,2.2-8.3,4.5-9c2.1-0.6,4.7-1.6,5.6-3.3
	c2.3-4.2,3.7-8.8,5.4-13.3c1.1-3,2.1-6,3.1-9c-2.4-0.7-3.9-1.2-6-1.8c9.7-5.9,14.4-29.2,8.3-38.2c0.8-3,2.9-6.2,2.3-8.7
	c-1.8-7.5-4.5-14.7-7.2-21.9c-0.6-1.5-3.1-2.9-4.8-3.1c-12.2-1.4-24.4-2.8-36.6-3.5c-10.4-0.6-20.9-0.6-31.4-0.4
	c-7.6,0.2-15.1,1.5-22.7,1.7c-3.3,0.1-4.8,1.7-6,4.2c-1.7,3.5-3.4,7-5.1,10.6c-0.5-0.1-1-0.2-1.5-0.3c0.2-2,0.3-4,0.5-6.4
	c-0.4,0-1.3-0.1-3.7-0.3c3.2-3.6,5.7-6.4,7.8-8.8c-9.6-0.9-7.5,0.1-9.3,12.1c-1.6,11.1-4.7,21.6-10,31.4c-0.5,1-1.5,2-2.4,2.3
	c-3.2,1.1-2.9,3.1-3,6.2c-0.2,8.1-0.9,16.3-2.6,24.1c-1.4,6.4-4.5,12.3-7,18.5c-0.5,1.2-1.4,2.2-2.2,3.3c-2.1,3-4.3,6-6.6,9.2
	c-0.3-0.5-1-1.9-1.7-3.3c-0.2,0-0.3,0-0.5,0.1c0.5,2.7,1.1,5.4,1.8,9c-1.8-0.6-2.9-0.9-3.9-1.2c-0.2,3-0.4,6.1-0.6,9.3
	c-0.5,0-1,0-1.5,0c-0.6-1.6-1.3-3.2-1.9-4.8c-0.2,0.1-0.4,0.2-0.6,0.3c0,4.3,0,8.6,0,13.2c1.2-0.5,2.3-0.9,3.4-1.4
	c0.4,0.3,0.8,0.6,1.1,1c-1.3,1.8-2.3,4.8-3.9,5.1c-3.6,0.8-8.4,1.6-11.2,0c-4-2.4-3-7.5-2-12.7c1.2,1.5,1.8,2.3,2.9,3.7
	c1.1-2.7,2.1-5.1,3.2-7.6c0.6-1.3,1-3.2,2.1-3.7c6.2-3.3,4.7-10.8,8.7-15.2c0.2-0.3-0.6-1.7-1.2-2.4c-0.4-0.4-1.2-0.4-1.9-0.6
	c-10.3-3-13.1-9.5-9.3-19.6c3.3-8.7,6.2-17.7,9-26.6c0.4-1.3-0.1-2.9-0.3-4.3c-0.7-4,0.4-5,4.2-3.7c2.8,1,5.7,1.9,8.5,2.9
	c0.3-0.6,0.5-1.1,0.8-1.7c-1.6-0.9-3.2-2.3-4.9-2.6c-4.9-0.9-4.7-3.6-3.2-7.2c4.9-11.6,12.3-21.6,20.5-31c3.8-4.3,7.7-8.5,11.9-12.3
	c2.2-1.9,5.3-2.7,8-3.9c2-0.9,4-1.5,6.9-2.5c1.7,1.5,3.9,3.5,6.2,5.5c4.5-2.1,9.5-4.6,14.6-7c-0.1-0.3-0.2-0.7-0.3-1
	c-2.7,0.6-5.5,1.3-8.2,1.6c-1.1,0.1-2.9-0.5-3.2-1.2c-0.3-0.8,0.4-2.4,1.1-3.3c1.5-2,3.3-3.8,4.2-6.6c-2.5,1.4-4.9,2.9-7.4,4.3
	c-0.2-0.3-0.4-0.6-0.6-1c2.6-3.4,5.2-6.7,7.8-10.1c-0.4-0.4-0.7-0.8-1.1-1.2c-2.2,2-4.3,4-7.2,6.8c0.3-2.6,0.5-4.8,0.8-7.2
	c-0.9,0.5-2.2,0.9-2.9,1.7c-6.4,7.8-14.8,10.2-24.5,10.8c-3.4,0.2-7.4,2.8-9.6,5.4c-7.8,9.2-15.5,18.4-20.4,29.8
	c-2.3,5.3-7.8,9.1-11.9,13.6c-4.5,5.1-8.6,10.6-13.6,15.2c-3.7,3.4-8.6,5.5-13,8c-0.5,0.3-1.4-0.2-2.6-0.5c1.3-2.5,2.3-4.6,3.8-7.6
	c-3.4,1-5.9,1.8-8.2,2.4c5.5-6.5,10.4-12.9,16.1-18.6c4.2-4.2,9.5-7.3,13.8-11.3c2-1.8,3.1-4.7,4.2-7.3c1.8-4.2,2.5-9.2,5.2-12.7
	c2.1-2.7,2.7-4.4,0.5-7c3.2-2.7,5.9-6.4,10.9-1.8c-3.5,5-7,10.2-10.6,15.2c-3.5,4.8-3.1,7.7,1.4,9.3c4.8-7.6,9.5-15.2,14.2-22.7
	c-3.3-1.5-3.3-1.5-0.8-7.5c1.1,0.7,2.2,1.3,3.4,2.1c-0.2-1.2-0.3-2.3-0.5-3.7c5.5,2.8,6.8,2.7,9.4-0.8c-2.1,0.3-4.2,0.5-6.3,0.8
	c4.7-6.4,8.6-13.7,17.7-12.7c6.1,0.7,8.5-3.8,12-7.2c4.4-4.3,9.2-8.2,13.8-12.2c0.7-0.6,1.9-0.8,2.5-1.6c0.8-1,1.3-2.4,1.9-3.6
	c-1.5-0.4-3.1-1.3-4.3-0.9c-5.1,1.4-10.2,3-15.2,5c-7.9,3.1-15.8,6.3-23.5,9.9c-5.9,2.7-6.8,4.7-7.9,12.5
	c16.1-9.4,30.6-21,48.7-26.1c-20.2,12.5-42.1,22.2-58.5,39.9c2.7-7.2,5.4-14.4,8.1-21.6c-0.5-0.5-0.9-0.9-1.4-1.4
	c-5.1,1.7-10.2,3.2-15.2,5.2c-3.2,1.3-6.3,3.1-9.2,4.9c-1.9,1.2-3.6,2.7-5.1,4.4c-4.1,4.6-8,9.3-12.1,13.9c-0.9,1-2.3,1.4-3.5,2.1
	c-0.3-0.3-0.7-0.7-1-1c0.8-1.2,1.4-2.6,2.3-3.7c2.7-3.3,5.7-6.5,8.3-9.9c0.7-0.8,0.5-2.3,0.8-3.5c-1.2-0.2-2.6-0.9-3.6-0.6
	c-6.6,2.1-13.3,4.2-19.8,6.6c-1.5,0.6-2.8,2.2-3.9,3.6c-1.2,1.5-2.1,3.3-3.1,5c-0.8-0.6-1.7-1.3-2.5-1.9c1.1-2.2,2.2-4.5,3.5-7.3
	c-0.9-0.4-2.4-1.7-3.4-1.4c-5.7,1.5-11.4,3.3-17,5.1c-2.3,0.7-4.6,1.7-6.8,2.6c-0.3-0.8-0.7-1.6-1-2.4c4.5-2,8.8-4.9,13.4-5.9
	c15.7-3.3,29.3-11.3,43.1-18.7c0.6-0.3,1.2-0.6,1.8-0.9c-0.2-0.4-0.4-0.9-0.5-1.3c-2.9,0.2-5.9-0.1-8.6,0.7
	c-14.5,4.5-30.1,4.8-43.9,12.4c-4.2,2.3-8.8,2.9-8.8,8.6c0,2.2,0.1,4.8,1.3,6.5c4.9,7.4,12.1,11.1,20.7,12.5
	c1.9,0.3,3.6,1.3,5.2,2.4c-16,1.4-37.8-12.4-30.4-26.1c-8.4-3.4-17.3-6.2-25.3-10.5c-8.9-4.7-17.2-10.6-25.5-16.3
	c-4.2-2.9-8-6.4-12-9.7c-9.5-7.9-18.1-16.5-25.2-26.8c-11-15.7-1.8-31.1,13-35.9c18.9-6.1,38.3-6.7,57.6-2.9
	c13.1,2.6,26.2,5.9,39,9.9c13.6,4.2,26.6,10.3,40.2,14.2c15.5,4.4,31.4,7.3,47.1,10.9c8.2,1.9,16.4,3.8,24.6,5.4
	c2,0.4,4.2-0.5,6.3-0.9c3.9-0.7,7.9-1.4,12.4-2.8c-1.8-0.4-3.6-0.8-6.6-1.5c2.6-1.9,4.6-3.4,7.1-5.2c-2.5-2.9-4.8-5.6-7.5-8.8
	c2.9,0,5.5,0,8.4,0c-0.6-1.6-1.2-3.1-2.1-5.5c4.1,0,7.6,0,11.6,0c-1.7-3-3.7-6.3-6-10.2c1.3-1.4,2.8-4,6.9-1.8
	c1.2,0.7,3.7-1.1,5.7-1.8c3.1,2.6,11,2.4,15.1-0.4c1.5,1.2,2.9,2.5,4,3.3c3.1-1,6.3-2,10.5-3.4c-1.4,2.4-2.3,4-3.2,5.5
	c3.1-2.1,5.4-5.6,9.5-2c0.3,0.3,1.2-0.1,1.8-0.2c1.8-0.2,3.6-0.4,5.4-0.5c0.2,0.5,0.3,1,0.5,1.4c5.2-3.3,1.7-7.8,1.9-11.8
	c-6.1-0.2-6-0.2-6.3,5.4c-0.1,1.1-1.5,3-2.4,3c-1.6,0-3.2-1-4.8-1.6c0.8-1.9,1.7-3.7,2.9-6.5c-1.9,0.9-3.8,1.7-6.8,3.1
	c1.4-2.8,2.1-4.4,3.2-6.5c-1.6,1-2.6,1.7-4.5,3c0-4.6,0-8,0-11.3c-0.5,0-0.9,0.1-1.4,0.1c0.8,3.7-4,7.2,0.4,11.1
	c0.2,0.2-1.7,2.8-2.7,4.3c-1.3-1.3-2.7-2.7-4-4c-4.2-1.9-8.4-3.8-13.3-6c1.9,9.9,1.4,11-5.7,14c-2.5-0.2-4.9-0.6-7.4-0.6
	c-5.5-0.1-8.7-3.1-6.7-8c1.6-3.8,2.2-9.6,8.5-9.5c1.4,0,2.9,0.1,5,0.2c2.7-2.2,6.1-4.9,9.6-7.8c1.8,0.9,3.6,1.9,5.4,2.9
	c0.2-0.2,0.4-0.4,0.5-0.6c-1.1-1.6-2.2-3.2-3.2-4.9c-0.2,0.3-0.3,0.7-0.5,1c-4.3-1.8-8.5-4-12.9-5.4c-9.4-3-18.9-5.7-28.5-8.2
	c-1.7-0.5-3.9,0.9-5.9,1.1c-2.5,0.3-5.9,3-7.4-0.9c-1.5-3.8,1.3-6.2,4.7-6.6c5.1-0.6,10.6-1.5,15.3-0.1c10.1,3.1,19.8,7.6,29.6,11.6
	c3.4,1.4,6.6,3.4,10.3,5.3c2.2-2.9,4.4-2.8,5.8,2.2c0.2,0.9,1.9,1.3,2.8,2.1c1,0.8,2,1.6,2.9,2.4c1.4-1.2,3.3-2.5,4.8-4.2
	c2.9-3.3,4.7-2.9,5.4,0.2c3.3-2,6.7-4,10.1-5.9c10.6-6.1,22-10.1,34.1-12c5.3-0.8,10.5-0.8,14.1,3.9c0.9,1.2,1.4,4.3,0.6,5
	c-1.2,1.1-4.2,1.9-5.4,1.2c-6.9-4.2-13.2-2.5-19.9,0.6c-6.9,3.2-14.1,5.7-21.2,8.2c-1.3,0.4-3.2-0.8-4-0.4c-2.2,1.3-4.4,2.6-7.9,4.7
	c4.9-0.4,8.4-0.6,11.9-0.9c0.7,2.4,1.4,5.3,2.6,8c0.2,0.4,2.9,0.1,4.2-0.4c1.5-0.6,2.7-1.9,4.7-2.4c-2.7,3.5-1.7,5.7,0.8,8.4
	c2,2.2,3.6,5.3,4.2,8.3c0.4,1.8-1.3,4.1-2.1,6.5c1.9,0.4,5.1,1,8.5,1.8c-1.8,2.5-3.8,5.3-5.7,7.9c-0.7,1-1.5,1.9-2.3,2.8
	c1.8,1.2,3.9,3.5,5.4,3.2c1.8-0.3,4.9-3.5,4.6-4.4c-1.1-3,0.5-3.7,2.4-4.5c3.7-1.7,5.1-4.8,7-8.3c4.9-8.5,8.5-19,20.4-20.8
	c0.7-0.1,1.6-0.8,1.9-1.4c4.5-9.6,15.4-11,22.4-17.3c1.4-1.3,3-2.4,4.5-3.7c6.1-5.3,12.2-10.7,17.7-15.5c4-0.1-2.5,6.4,3.9,4.4l0,0
	c1.4,0.1,2.8,0.1,4.2,0.2c0.2,0.4,0.3,0.9,0.5,1.3c-1.4,1.1-2.8,2.3-4.2,3.3c-3.3,2.4-7.2,4.2-10,7c-5.7,5.7-11.9,10.8-17.8,16.2
	c-4,3.7-8.9,6.4-13.4,9.6c-2.2,1.6-3.8,3.4-3,6.7c0.8,3.3-1.3,5.3-4.1,6.5c-8.4,3.6-13.6,10.6-19.2,17.4c-3.2,3.9-7.8,6.6-11.8,9.8
	c-0.4-0.4-0.9-0.7-1.3-1.1c0,3.6,0,7.1,0,11.1c0.8-0.2,1.4-0.3,1.8-0.6c2.3-1.9,4.5-3,6.7,0c2.3,3,0.5,5.8-1.6,7.2
	c-2.7,1.9-6.1,2.6-10.2,4.1c7.7-0.4,14.7-0.4,21.6-1.3c11-1.5,22.1-2.9,32.9-5.5c20-4.8,39.9-10.4,59.7-15.8
	c11.5-3.1,22.9-6.8,34.5-9.7c4.9-1.2,10.2-0.9,15.3-1.3c15.9-1.3,31.9-2.1,47.6,1.5c12.9,2.9,26.2,8.1,29.8,22.1
	c1.5,5.9-0.7,11.4-3.7,16.4c-6.3,10.6-16.9,16.8-26.2,24.2c-2.6,2.1-5.1,4.2-7.9,6.1c-9.1,6.2-18.5,11.9-27.5,18.3
	c-9.2,6.6-19.4,9.2-30.6,8.7c2.7,14,3,14.7-9.9,20.7c-6.9,3.2-14.9,4.6-22.6,5.1c-18.4,1.1-35.7-4.6-52.5-11.4
	c-5.1-2-9.7-5.1-15.1-8.1c2.4-0.1,4.3-0.2,6.8-0.4c-4.4-7.5-10.6-12.6-17.2-17.3c-2.6-1.9-4.6-4.6-6.9-6.9c0.1-0.1,0.2-0.3,0.3-0.4
	c5.3,3.4,10.5,6.8,15.8,10.2c0.5-0.4,1-0.7,1.4-1.1c-2.1-3.5-3.3-8.4-6.4-10.4c-7.9-5.1-16.6-9-25-13.4c-2.5-1.3-4.9-2.9-7.5-3.6
	C361.3,362.2,359.6,363.5,358.2,364.1z M292.8,382.2c-1.7,3.7-3.4,7.3-5.1,11c0.5,0.2,1,0.4,1.5,0.6c0.5-1.8,1-3.5,1.6-5.6
	c1.1,1,1.8,1.6,3.3,2.9c1.9-3.5,3-7.5,5.7-9.6c1.8-1.4,3.1-1.7,2.7-4.4c-0.4-3-2.6-3.1-4.6-3.4c-4.1-0.6-5.6-3.2-5.1-7
	c0.1-0.5,2-0.7,3.1-1.1c0.5,0.3,0.9,0.6,1.4,1c0.2-4.2,0.5-8.4,0.7-12.6c1.2-0.2,2.8-0.9,3.4-0.4c0.7,0.6,0.9,2.4,0.6,3.4
	c-1.1,3.6-0.5,6.5,2.3,8.9c1.7,1.4,3.4,2.6,5.8,4.4c0.4-5,0.9-10.3,1.4-15.7c1.6,2.2,2.4,4.5,2.7,6.9c0.3,2.6-0.1,5.4,4,3.5
	c-0.3-1.9-0.5-3.6-0.9-6.2c6.3,3.8,11.7,7,17.9,10.7c-0.5-1.7-0.5-2.1-0.7-2.3c-3.9-3.9-7.5-7.9-6.4-14.3c0.1-0.7-2.2-1.9-3.3-2.9
	c-0.8-0.8-1.5-1.7-2.2-2.6c1.2-0.6,2.5-1.8,3.4-1.5c1.6,0.6,2.9,2.1,4.5,3.1c1.1,0.7,2.4,1.3,3.6,1.9c-2-5.9-9.6-6.6-10.6-14.8
	c4.5,4.1,8.5,8.6,11.2,1.1c-3-2.2-6-4.4-9.8-7.1c5.4-0.4,9.5-0.7,13.5-1c0-0.5,0-1-0.1-1.5c-3.9-0.3-7.9-0.5-11.8-0.8
	c-0.1-0.6-0.2-1.3-0.3-1.9c3.2-1.5,6.3-2.9,9.5-4.4c-3.9,1.8-5.4-0.8-6.9-3.3c-2.3-3.9,0.1-6.1,2.9-8.1c2.3-1.8,4.7-3.6,7-5.3
	c-0.7-0.7-1.4-1.3-2-2c-1.9,2.2-3.7,4.5-5.6,6.7c-2,0.7-4,1.4-6,2c-0.2-0.3-0.3-0.7-0.5-1c1.6-2.2,3.3-4.5,4.9-6.7
	c-0.4-0.3-0.9-0.6-1.3-0.8c-0.7,1-1.3,2.1-2.1,3c-0.9,0.9-2,1.5-3.1,2.3c-2.4-5.2-6.6-7.3-11.9-6.2c-2.2,0.4-5.2,2.1-6.4,1.2
	c-3.3-2.4-4.8,0-6.9,1.3c-0.9,0.5-2.2,0.7-3.2,0.5c-4.4-1-6.4,1.9-8.7,4.1c2.2,2.4,4,4.2,5.7,6c-0.5,0.6-1,1.2-1.5,1.8
	c-2-1.4-5.2-2.3-5.9-4.2c-2.1-5.7-5.1-3.6-8.4-1.8c-0.9,0.5-2,0.8-3.8,1.6c2.7,3.6,5.4,7.1,8,10.7l0,0c1.3,1.5,2.6,3,3.9,4.7
	c-6.5,5-5.8-4.4-10.5-5.2c1.1,2.5,1.9,4.2,2.6,5.8c-1.3,1-2.5,2-3.8,2.9c5-0.5,6.7,1,8.4,7.6c-1.5,0.3-3.1,0.6-4.6,1
	c3.5,4.4,7.1,4.2,11,0.9c0.9-0.8,2.7-0.5,3.7-0.6c-2.1,5.6-4,10.7-5.8,15.7c0.4,0.1,0.7,0.2,1.1,0.3c4-3.2,8.1-6.3,13-10.2
	c-0.5,4-0.8,6.6-1.1,9.2c-1.1,2.7-2.3,5.3-3.4,8c-0.5-0.2-1-0.4-1.5-0.6c0.4-2.2,0.9-4.3,1.3-6.5c-0.6-0.2-1.3-0.4-1.9-0.6
	c-1,2.8-1.8,5.6-2.9,8.3c-0.6,1.5-1.6,3-2.7,4.2c-0.7,0.8-1.9,1.2-1.6,1.1c0.9,3.3,1.8,5.3,1.8,7.3c0,1-1.5,2.4-2.7,2.9
	c-1.9,1-4,1.4-6,2.1c0.1,0.3,0.3,0.5,0.4,0.8c4.3-0.5,8.5-0.9,12.8-1.4C292,380.5,292.4,381.4,292.8,382.2z M411,357
	c-1.2,0.3-2.5,1-3.7,0.8c-4.4-0.8-8.8-1.8-13.1-2.8c-7.5-1.6-15-3.3-22.4-5c-0.2,0.6-0.3,1.2-0.5,1.7c29.9,16.5,63.1,22.6,96.2,28.9
	c-1.4-1.9-2.8-3.7-4.6-4.6c-5.5-3-10.9-6.1-16.8-8.3c-9.7-3.6-18.8-9.3-29.7-8.9C414.7,359,412.8,357.7,411,357
	c1.9-0.2,3.9,0,5.7-0.5c1.5-0.4,2.6-1.7,4-2.7c-1.2-1.2-2.2-3.3-3.5-3.5c-6-1.2-12.1-2.1-18.2-2.7c-10.9-1.1-21.9-1.8-32.9-2.7
	c3,1.9,6.2,2.6,9.4,3.2c8.9,1.8,17.8,3.3,26.7,5.3C405.2,354.1,408.1,355.8,411,357z M102.2,306.4c0-0.8,0-1.6,0.1-2.3
	c-4.8-1.5-9.5-4.1-14.4-4.4c-9.4-0.6-18.8,0.2-28.2,0.2c-5.9,0-12.2,0.9-15.9-5.6c-0.4-0.7-2.8-1.1-3.8-0.6
	c-2.7,1.1-5.3,2.7-7.9,4.2c-7.9,4.6-10.3,13-5.4,20.7c4.1,6.4,8.2,13,13.5,18.4c7.2,7.3,15.5,13.5,23.3,20.1
	c11.7,9.9,24.2,18.8,39,23.5c6,1.9,12.2,3.5,18.5,1.1c8.1-3.1,16.1-6.1,23.8-9c0.5-1.7,0.5-3.7,1.5-4.9c4.7-5.3,5.3-8.5,1.5-14
	c-0.9-1.2-3.3-2.2-4.8-2c-6,1-12,2.4-17.9,3.8c-6.3,1.5-12.7,2.4-18.6,4.9c-4.5,1.9-8.1,5.7-12.2,8.6c-1,0.7-2.4,0.9-5,1.9
	c2.4-6.1,6.8-8.1,10.1-11c5.1-4.5,5.7-8.9-0.1-12.2c-5.5-3.1-7.1-7.9-8-13c-1.4-8.1-6.1-8.3-12.3-8c-1.9,0.1-3.9,0.8-5.8,1.5
	c-6.6,2.2-13.1,4.6-19.7,6.7c-1,0.3-2.2-0.2-3.4-0.3c0.3-1.2,0.2-3.3,0.8-3.6c8.4-3.2,16.7-7,25.4-8.7c2.8-0.5,4.1-1.1,6-2.9
	c3.5-3.3,7.5-6.2,11.5-8.9C96.4,308.7,99.4,307.7,102.2,306.4z M522.4,382.2c-0.6,0.2-1.1,0.5-1.7,0.7c-1.7-2.4-3.1-5-5.2-7
	c-2.3-2.2-5-4.5-7.9-5.4c-7-2.1-14.3-3.1-21.4-5.1c-8.7-2.5-8.5-2.6-14.7,4.3c-2.8,3.1-7.5,5.6-1,9.6c0.5,0.3,0.4,1.3,0.8,1.8
	c1.3,1.6,2.5,3.7,4.2,4.6c5.5,2.6,11.4,4.5,17,7.1c12,5.6,23.4,5.1,34.4-2.5c12.5-8.5,25.2-16.6,37.5-25.3
	c9.3-6.6,18.4-13.5,25.1-23.2c8.8-12.8,3.2-23-8.4-29c-1.6-0.8-4.1-0.3-6.1,0c-4.7,0.8-9.4,2.3-14.1,2.6c-8.8,0.4-17.6-0.2-26.5,0.2
	c-4.6,0.2-9.1,1.7-13.7,2.6c-0.1,0.7-0.2,1.5-0.3,2.2c6.7,5.7,13.4,11.3,20.1,16.9c0.2,0.2,0.6,0.3,1,0.2c9.3-0.3,16.5,5.5,24.5,8.8
	c3.6,1.5,3.7,3.8,1.1,6.5c-2.4-0.9-4.6-1.8-6.9-2.7c-6.7-2.7-13.5-5.2-20.1-8.3c-4.1-1.9-11.3,0.6-11.6,5.1
	c-0.3,5.5-2.9,9.2-7.1,12.5c-6.5,5-6.9,8.6-2.4,15.4c0.7,1.1,1.8,2,2.3,3.2C521.9,379.2,522.1,380.7,522.4,382.2z M478.6,416.7
	c-2.2,0-2.7,0.1-3.2,0c-0.6-0.2-1.3-0.6-1.7-1c-6-7.6-14.1-11.6-23.2-14.4c-4.7-1.4-9-4.3-13.5-6.5c-0.3,0.3-0.6,0.7-0.9,1
	c4.2,6.2,8.4,12.4,12.6,18.6c-0.6,0.5-1.2,0.9-1.9,1.4c-3.1-4.1-6-8.2-9.2-12.2c-3.1-3.9-5.7-8.8-9.8-11c-8.1-4.3-17-7-26.2-10.5
	c1.4,5.4,1.8,10.3,3.8,14.3c4,7.8,8.1,15.9,18.4,17.4c3.6,0.5,7.1,1.6,10.4,2.9c12,4.8,24.6,5.3,37.2,5.2c8.7-0.1,16.7-2.7,24.1-7
	c3.2-1.9,6.4-5.1,4.1-9c-2.4-4-5.8-8.7-9.8-10.4c-14.4-6-29.3-10.8-44-15.9c-1.5-0.5-3.2-0.1-4.9-0.1c-0.2,0.6-0.5,1.1-0.7,1.7
	c9.9,6.3,19.7,12.7,29.9,19.2c-4.9,4-2.5,6.4,1.2,9.1C474,411.2,475.7,413.6,478.6,416.7z M264.7,351.5c-4.8-2.8-8.9-5.5-8-11.4
	c0.9-5.9,5.7-7.5,10.7-8.6c0-0.4,0-0.9,0.1-1.3c-3-1.2-5.9-2.3-9-3.6c-0.8,3.1-1.2,4.9-1.9,7.7c-30.8-6.7-61.3-13.2-92.9-20.1
	c8.4,6.4,15.5,12.6,23.5,17.6c4.6,2.9,10.4,5.2,15.7,5.3c15.9,0.5,31.9-0.3,47.9-0.5c1.2,0,2.3,0.3,3.5,0.5c0,0.5,0.1,1,0.1,1.5
	c-1.6,0.3-3.1,0.7-4.7,0.7c-15.7,0.7-31.5,1.2-47.2,2.1c-1.7,0.1-3.2,2.1-4.8,3.2c1.7,0.7,3.4,2,5,1.9c10.8-0.6,21.5-1.6,32.2-2.5
	c5.1-0.4,10.2-1.1,15.4-1.3c1.2-0.1,2.5,1,3.8,1.5c-0.9,1-1.6,2.4-2.7,3c-3.5,2-7.1,3.7-10.6,5.5c3.1,0.2,5.8-0.5,8.5-1.4
	c2.4-0.8,4.7-2,7-3c0.2,0.4,0.4,0.8,0.6,1.2c-1.5,1.3-3.1,2.6-4.6,3.9c0.1,0.4,0.3,0.7,0.4,1.1C256.4,353.7,260.2,352.7,264.7,351.5
	z M411.8,508.4c0.2,0,0.4-0.1,0.5-0.1c-0.9-4.5-1.7-9.1-2.6-13.6c-1.3-6.6-0.6-14.2-9-17.2c-0.7-0.2-0.9-1.7-1.5-2.5
	c-3-3.9-9-3.3-10.6,1.2c-5,14.6-4.8,29.4,0.1,44c1,3,3.3,4.8,7,3.8c3.5-0.9,7.3-0.8,10.5-2.2c2.1-0.9,4-3.3,4.9-5.5
	C412.1,513.9,411.7,511.1,411.8,508.4z M127.1,349.8c3.8,0,6.5,0.2,9.1-0.1c2.9-0.3,6.7,0.5,6.8-4.5c0.1-4.9,3-10.1-3.9-13.2
	c-3.3-1.5-6-4.5-9.1-6.7c-0.9-0.6-2-1.4-3-1.3c-7.8,0.7-15.7,0.9-23.3,2.5c-10.2,2.1-11.6,8.2-4.4,16c1.6,1.7,4.3,2.9,4.9,4.9
	c2.4,8.3,7.9,7.3,13.9,5.3C121.7,351.6,125.1,350.5,127.1,349.8z M494.1,334.5c-5.7,4.3-12.1,7.7-16.2,12.8
	c-3.8,4.8,0.4,12.6,6.5,14.1c8,2,16.2,3.8,24.3,5.5c1.1,0.2,2.9-0.5,3.6-1.4c3.5-4.1,6.6-8.6,10.1-12.7c3.5-4,3.1-8.8-1.8-10.5
	C512.2,339.4,503.4,337.2,494.1,334.5z M212.3,515.4c9-13.8,11.7-28.7,11.2-44.5c0-1.1-1-2.6-1.9-3.1c-5-2.9-16.6,0.9-18.4,6.2
	c-3.1,9.7-6,19.5-8.7,29.3c-0.7,2.5-0.8,5.4,2.7,6.6C202.1,511.6,206.9,513.4,212.3,515.4z M447.4,344.6c-4.9,0.7-10.7,1.3-16.4,2.3
	c-3.3,0.6-6,2.2-5.9,6.2c0.1,4.2,3.3,4.8,6.3,5.9c10.2,4,20.3,8.1,30.5,12.1c1.1,0.4,3.1,0.4,3.8-0.3c5.1-5.2,10-10.5,9-18.8
	c-0.4-3.3-1.4-4.9-4.6-5.2C462.9,346.2,455.6,345.4,447.4,344.6z M159.8,335.1c0,0.1,0,0.1,0,0.2c-1.8,0-3.7,0-5.5,0
	c-6.5,0-8.7,2-7.1,8.5c1.2,4.8,4.2,9.2,6,13.9c1.3,3.3,3.3,4.5,6.5,3.4c4.7-1.5,9.3-3.2,14-4.8c6.5-2.3,13-4.6,19.5-7.1
	c0.8-0.3,1.4-1.8,1.5-2.8c0.9-5.8-1.5-8.6-8.6-9.3C177.3,336.2,168.6,335.8,159.8,335.1z M369.5,360.5c10.2,9.9,90.9,42.6,95.2,40.9
	C437.7,376.8,404.2,367.3,369.5,360.5z M241,415.9c-2,1.1-3.7,1.7-4.9,2.8c-3.7,3.6-7.5,7.1-10.5,11.2c-4.9,6.6-9.4,13.6-13.8,20.6
	c-2,3.2-1.3,5.8,2.6,7.3c2.9,1.1,5.8,2.6,8.4,4.4c3.7,2.5,6,0.8,7.7-2.3c6.9-12.6,9.1-26.5,11.2-40.4
	C241.7,418.6,241.2,417.6,241,415.9z M456.3,325.6c-0.1-0.5-0.3-1-0.4-1.5c-14.7,1.6-28.7,7.2-43.3,9.4c-14.9,2.3-29.7,4.9-44.5,7.3
	c0,0.6,0.1,1.2,0.1,1.8c2.2,0,4.5-0.1,6.7,0c8.9,0.4,18,0.2,26.8,1.6c10.9,1.7,21.5,4.4,31.4-3c2.2-1.7,4.5-3.3,6.8-4.8
	C445.4,332.8,450.8,329.2,456.3,325.6z M131.3,299.9c-12.4-10-75-16.5-84.8-6.9c1.6,0.9,3,2.4,4.5,2.4c7.1,0.2,14.2,0.2,21.3-0.1
	c9.9-0.4,19.7,0.3,28.5,5c6.5,3.5,13.5,4.3,20.5,5.1C125.8,306.1,128.8,303.7,131.3,299.9z M244,361.3c-0.2-0.7-0.4-1.4-0.6-2.1
	c-2.1,0.5-4.2,1.3-6.3,1.6c-14.4,2-28.9,3.9-43.3,6c-2,0.3-4,1.5-5.8,2.6c-11.3,6.3-22.5,12.6-33.7,18.9c-1.1,0.6-2.1,1.4-3.2,2
	c0.2,0.4,0.3,0.8,0.5,1.2C183.3,384.5,213.4,372.1,244,361.3z M488,313.3c2.5,1.9,4.4,4.6,6.3,4.6c7.7,0,16.1,1.1,22.9-1.7
	c9.2-3.8,18.1-3.9,27.5-4c5.2-0.1,10.5,0.5,15.7,0.1c4.4-0.3,8.8-1.5,14.1-2.5C557.2,301.5,509.5,303.3,488,313.3z M393.4,467.8
	c0.7-0.3,2.2-0.8,3.6-1.5c1.6-0.8,3-2.1,4.7-2.7c5.4-1.9,5.9-2.7,3.8-7.8c-4.9-11.6-12.7-21.3-21-30.6c-1.1-1.2-3.2-1.4-4.9-2.1
	c-0.4,1.9-1.4,3.9-1,5.6c2.1,10.7,4.5,21.3,7,32C386.3,464.3,387.5,467.9,393.4,467.8z M155.2,366.2c0.2,0.8,0.3,1.5,0.5,2.3
	c31.2-4.6,62.6-8,91.4-22.5c-10.8,0.8-21.4,2-32.1,3.4c-9.5,1.2-19.2,0.9-28.1,5.6c-4.9,2.6-10.4,4.2-15.7,6.1
	C165.9,362.9,160.6,364.5,155.2,366.2z M440.1,340.4c0.2,0.4,0.4,0.8,0.6,1.3c8.3,0.4,16.8-0.5,24.7,1.5c9.6,2.4,15.3-3.3,21.9-7.5
	c0.8-0.5,1.4-3.3,1.1-3.5c-2.4-1.8-4.9-3.9-7.7-4.5c-3.8-0.9-7.9-0.6-11.9-0.6c-2.8,0-6.1-0.6-8.2,0.6
	C453.5,331.4,446.9,336,440.1,340.4z M180.2,333.2c-1.8-2.5-2.5-3.8-3.6-4.8c-5.3-4.8-10.6-9.4-18.5-9.3c-6.1,0-12.2-1.5-18.3-1.5
	c-2,0-4.8,2-5.7,3.8c-0.6,1.2,1.3,4.1,2.8,5.5c1.4,1.4,3.6,2.6,5.6,2.9c9.7,1.1,19.4,1.9,29.1,2.8
	C174,332.8,176.4,332.9,180.2,333.2z M534.4,335.2c-2.5-1.6-5.1-3-7.4-4.8c-2.9-2.2-5.8-4.4-8.2-7.1c-2.6-2.8-10.2-4.3-13.1-1.9
	c-0.7,0.5-0.6,2.2-0.5,3.3c0.1,1.4,0.5,2.7,0.8,4.1c-1.2-1-2.7-1.7-3.5-2.9c-4.6-6.8-9.4-7-15.1-0.5c3.4,6.2,8.6,8.3,15.5,8.7
	c4.2,0.2,6.8,0.5,6.8-4.6c4.1,3.3,7.8,6.3,11.5,9.2C526.6,342.8,530.4,339.8,534.4,335.2z M118.2,309.3c-5.7-1.7-9.7-3.1-13.8-0.1
	c-2,1.4-4.3,2.4-6.5,3.6c-3.2,1.7-6.6,3.2-9.5,5.3c-1.3,0.9-2.6,3.7-2.1,4.8c2,4.5,10.2,4.8,13.3,1c2-2.5,4.4-4.8,7-6.8
	C110,314.6,113.7,312.4,118.2,309.3z M160.1,315.4c-3-5.2-19.6-14-24.4-12.9c-1.4,0.3-3.7,3-3.6,3.2c1.8,2.8,3.6,7,6.2,7.6
	C145.3,314.8,152.6,314.8,160.1,315.4z M462,322.1c0.2,0.8,0.3,1.7,0.5,2.5c6.2,0,12.5,0.6,18.6-0.3c2.6-0.4,6.7-3.8,6.6-5.7
	c-0.1-3.7-3.9-4.7-7.7-3.8c-1.1,0.3-2.4,0.1-3.4,0.5C471.4,317,465.9,318.2,462,322.1z M107.7,321.7c6.7-0.4,13-0.4,19.1-1.3
	c2.2-0.3,5.3-2.7,5.7-4.7c0.4-1.9-1.9-6-3.4-6.3c-2.8-0.5-6.5,0.5-9,2.1C115.9,314.3,112.2,318,107.7,321.7z M389.2,282.1
	c0-0.1-0.6-1-1-2c-2.1-5.3-4.1-5.8-7.7-1.3c-2.7,3.3-5.3,6.8-7.4,10.5c-1.2,2.2-1.4,4.9-2,7.4c0.5,0.2,1.1,0.5,1.6,0.7
	C378,292.5,383.2,287.7,389.2,282.1z M194.3,433.1c-0.7-0.7-1.5-1.4-2.2-2.2c-6.5,6.4-13.2,12.8-19.4,19.4c-1.1,1.1-0.5,3.7-0.7,5.7
	c0.8,0.4,1.7,0.7,2.5,1.1C181,449.1,187.6,441.1,194.3,433.1z M323.4,372.6c-0.4,0.2-1.4,0.6-2.1,1.3c-1.1,1.2-3.1,3.3-2.8,3.8
	c2.2,3.7,4.9,7.1,7.5,10.7c0.7-0.6,1.4-1.2,1.5-1.2c-1.7-2.8-3.2-5.3-4.6-7.7c8.2,0.3,9.4,6.4,11.5,11.7c2.7-4.7,0.7-7.7-2.4-10.4
	C329.2,378.3,326.5,375.6,323.4,372.6z M265,381c3.5-2.5,2.8-5.4,0.7-7.8c-1.1-1.3-3.6-2.8-4.7-2.3c-3.7,1.6-7.1,4-10.6,6.2
	c0.2,0.8,0.4,1.7,0.6,2.5C256.9,374.1,260.5,380.8,265,381z M269.9,347.9c0-4.1,0-8.2,0-12.4c-4.9-0.7-9.1,1.5-9.4,5.3
	C260.3,343.8,265.7,348,269.9,347.9z M269.2,352.5c-0.2,0.4-0.4,0.8-0.6,1.3c3.2,2.2,6.4,4.3,10.3,7c-0.3,0.6-1.2,2.3-1.6,3.1
	c1.4,1.6,2.5,2.8,3.7,4.2c1.2-1.3,2.5-2.6,3-3.2c-3.1-4.7-5.6-8.6-8.1-12.3C273.7,352.5,271.4,352.5,269.2,352.5z M414.1,258.8
	c-0.3-0.5-0.6-1-0.9-1.4c-6.6,1.3-17.8,9-18.4,13.9C401.7,266.8,407.9,262.8,414.1,258.8z M346.7,348.8c0.3,0.7,0.7,1.4,1,2.1
	c3.4-1.6,7-2.8,10.1-4.9c0.8-0.5,0.4-3.5-0.1-5.3c-0.2-0.6-2.9-1.2-3.1-0.9c-0.9,1.4-1.4,3.1-2,4.8c-0.2,0.4-0.1,0.9-0.2,1.1
	C350.4,346.8,348.5,347.8,346.7,348.8z M299.6,394c4.3,5.7,5.8,6.2,12.7,4.2c-0.8-3.4-1.6-6.8-2.4-10.2c-0.2,0.1-0.5,0.1-0.7,0.2
	c0.2,3.1,0.3,6.1,0.5,9.2c-0.4,0.1-0.7,0.1-1.1,0.2c-0.9-2-1.9-4-2.8-5.9C303.6,392.5,301.6,393.2,299.6,394z M305,379.7
	c3.7,3.4,6.5,5.9,9.8,9c-1.8-4.9-3.4-9.3-5.5-15C307.6,376.3,306.2,378.1,305,379.7z M311.6,563.1c-6,0-10.9,0-16.8,0
	C300.8,570.2,305.7,564.6,311.6,563.1z M324.6,392.1c-2.8-1.8-4.8-3.1-7-4.5c0,2.9,0,5.6,0,8.4C320.2,394.5,322.1,393.5,324.6,392.1
	z M355.3,352.9c2.8,1.5,4.9,2.7,8.2,4.5c-1.3-4-2-6.1-2.8-8.7C359.1,350,357.6,351.2,355.3,352.9z M198.1,544.7
	c-0.6-0.3-1.2-0.5-1.8-0.8c-1.5,1.9-3,3.9-5.1,6.6c1.9,0.3,4.4,1.1,4.6,0.6C196.9,549.2,197.4,546.9,198.1,544.7z M278.8,391.7
	c-3-0.5-4.6-0.7-6.1-1c-0.9,2-2,4.2-3.3,7.1C272.6,395.7,275.3,394,278.8,391.7z M246.2,383.7c-2.9,2.5-5.7,5-8.9,7.7
	C242.3,390.8,245.6,388.8,246.2,383.7z"/>
<path class="st0" d="M353.8,371.8c1.3-3.2,3.2-1.5,4.7-0.4c2.6,1.9,4.9,4.1,7.5,5.9c2.2,1.5,4.7,2.6,7.1,3.9
	c0.1,0.1,0.4,0.1,0.5,0.2c2.3,6.5,9,6.2,13.7,9c3,1.8,4.1,4.5-1.6,6.6c9.2,5.5,19.4,9.7,17.9,22.6c7.9,3.7,14.1,9.5,18.4,17.3
	c1.9,3.4,4.7,4.3,8.4,5.2c4.2,1,7.8,4.5,12.1,5.8c5.5,1.7,9.5,7.9,16.3,5.4c0.5-0.2,1.9,0.7,2,1.1c0.2,3,0.8,6.2,0,9
	c-0.4,1.5-2.9,3.1-4.7,3.5c-2.3,0.4-5-0.1-7.3-0.8c-1-0.3-1.4-2.1-2.8-4.2c2.8,0.4,4.2,0.6,5.5,0.8c0.1-0.3,0.3-0.6,0.4-1
	c-1.4-0.9-2.7-2.1-4.3-2.6c-6.8-2.1-13.9-3.6-20.5-6.2c-4.9-1.9-10-4.5-13.7-8.1c-6.1-5.8-11.2-12.7-16.8-19
	c-1.3-1.4-3.1-2.4-4.6-3.6c-3-7-6.3-13.9-9-21c-2.6-6.7-5.2-8.7-12-9.2c-4.2-0.3-8.5-1.3-12.6-2.5c-1.3-0.4-2.2-2.3-3.3-3.6
	c1.6-1.4,3-3.2,4.9-4.1c1.4-0.7,3.3-0.1,5-0.1c0.2-0.3,0.3-0.6,0.5-0.9c-3.8-2.8-7.5-5.6-11.3-8.5
	C354.1,372.1,353.9,371.9,353.8,371.8z M400.5,423.7c-0.4,0.4-0.8,0.9-1.2,1.3c6.3,6.6,12.6,13.3,19.5,20.5
	C420,437.4,408.2,424.3,400.5,423.7z M387.6,406.3c1.9,3.5,3.6,6.2,4.8,9.1c2.1,4.9,4.7,3.7,7.9,0.8
	C397,412.1,396.4,405.5,387.6,406.3z"/>
<path class="st0" d="M222.2,281.7c10.1-3.3,18.5,2.7,26.8,8.6c4.8,3.4,9.3,7.3,13.9,11c-6.2,6.3-8.7,6.1-16.5,3.2
	c-8.6-3.2-17.7-5.1-26.7-7.1c-3.4-0.8-4.9-1.5-3.1-5.2c0.5-1-0.3-3.1-1.2-4.1c-5.5-6-11.1-11.8-16.7-17.6
	c-3.5-3.7-5.4-9.1-11.2-10.5c-0.8-0.2-1.5-1.2-2.2-1.9c-2.8-2.8-5.6-5.6-8.3-8.6c-0.7-0.7-0.5-2.2-1.1-3c-1.5-2-3.3-3.9-5-5.8
	c-1-1.2-2.7-2.2-3-3.6c-0.6-3.1,3.5-7.7,6.8-8c5.9-0.7,10.8,1.9,11.7,6.4c-1.6,0-3.2,0-4.9,0c-0.5,3.1-0.4,5.1,3.1,6.8
	c2.6,1.2,3.8,5.2,6.3,6.6c3.8,2,3.9,9.8,10.8,6.9c0.9-0.4,3,0.7,4,1.7c3.4,3.4,6.9,6.7,9.6,10.7C217.9,272,219.6,276.6,222.2,281.7z
	 M246,296.6c0.3-0.3,0.5-0.7,0.8-1c-0.7-1.3-1.1-3.3-2.3-3.9c-5.5-2.6-10.9-5.4-16.7-7c-3.2-0.9-6.3,1.2-7.1,4.5
	C229.4,291.7,237.7,294.2,246,296.6z M213.2,280.3c0.7-0.5,1.3-0.9,2-1.4c0.4-9.6-9.3-12.7-13.4-20.8c-1.8,2.2-2.9,3.5-4.3,5.1
	C202.9,269.1,208,274.7,213.2,280.3z"/>
<path class="st0" d="M155.3,467.6c-0.6,2.8-0.8,5.3-1.8,7.4c-0.6,1.3-2.5,2.1-4,2.8c-3.5,1.6-7,3-10.5,4.5c0.1,0.4,0.3,0.8,0.4,1.2
	c1.6-0.1,3.1-0.2,4.7-0.3c0.3,0.4,0.6,0.9,0.9,1.3c-1.4,0.9-2.7,2.3-4.3,2.6c-5.1,1-12.9-2-13.8-4.9c-1.3-4.3,0.6-8.9,5-11.5
	c0.2,1.3,0.4,2.4,0.7,3.7c1-0.3,1.8-0.8,2.5-0.8c7.6-0.3,14.5-2.2,19.6-8.6c0.9-1.1,3.8-0.6,5.7-0.8c-0.2,2.4-0.4,4.8-0.8,7.2
	c-0.1,0.4-1.9,0.9-2.1,0.7C156.7,470.8,156.2,469.5,155.3,467.6z M139.5,476.6c-4.3-0.7-7.4,0.1-8.7,5
	C135.6,482.8,137.6,480.1,139.5,476.6z"/>
<path class="st0" d="M439,237c-0.2-1.9-0.5-3.7-0.7-5.6c-0.1-1.1,0.3-2.6-0.3-3.2c-3.5-3.5-0.7-5.4,1.8-7.2c1.7-1.2,3.6-2.6,5.6-2.8
	c1.6-0.1,4.6,1.1,4.9,2.2c0.8,3,0.7,6.3,0.3,9.3c-0.2,1.4-2,2.8-3.4,3.6C444.6,234.9,441.7,235.8,439,237C439,237,439,237,439,237z"
	/>
<path class="st0" d="M383.8,381.2c-5.9-3.6-11.9-7.1-17.7-10.8c-0.8-0.5-0.8-2.3-1.2-3.5c1,0.4,2.1,0.7,3.1,1.1
	c2.7,1.8,5.5,3.5,8,5.5c2.9,2.3,5.5,4.9,8.2,7.3C384,381,383.9,381.1,383.8,381.2z"/>
<path class="st0" d="M163.7,413.7c5.6-0.5,11.2-1,16.9-1.5c0.1,0.8,0.2,1.6,0.3,2.4c-5.6,0.6-11.2,1.3-16.8,1.9
	C163.9,415.6,163.8,414.6,163.7,413.7z"/>
<path class="st0" d="M251.1,316c2.8,0.3,5,0.6,8,0.9C254.7,321.9,253.3,321.7,251.1,316z"/>
<path class="st0" d="M159.2,415.9c-3.2,0-6.7,1.8-9.4-1.2c0.1-0.6,0.2-1.1,0.3-1.7c3.1,0.4,6.2,0.9,9.4,1.3
	C159.3,414.8,159.2,415.3,159.2,415.9z"/>
<path class="st1" d="M298,287c1.3-2.3,2.7-4.6,4-7c1.3,1.3,2.7,2.7,4,4C304.5,288.2,301.2,287.4,298,287z"/>
<path class="st0" d="M291.7,379.7c0.6-1.3,1.2-2.7,1.9-4c0.5,0.1,0.9,0.2,1.4,0.4c0,3.3,0,6.7,0,10c-0.5,0-1.1,0.1-1.6,0.1
	c-0.2-1.3-0.3-2.7-0.5-4C292.4,381.4,292,380.5,291.7,379.7z"/>
<path class="st0" d="M263,498.8c0-0.4-0.2-1.6-0.3-3.6c7.5,1,14.7,0.5,21.6,2.5c0,0.4-0.1,0.9-0.1,1.3c-2.7,1.1-5.3,2.2-7.3,3
	C272.2,501,267.9,499.9,263,498.8z"/>
<path class="st0" d="M340.2,496.2c0.1,0.1,1.4,0.7,1.4,1.3c0,1.1-0.5,2.9-1.3,3.2c-2.4,1-5,1.6-7.5,1.9c-0.7,0.1-2-1-2.4-1.9
	c-0.2-0.5,0.5-2.1,1.2-2.3C334.1,497.5,336.8,497,340.2,496.2z"/>
<path class="st0" d="M303.7,527.3c-0.3,1.8-0.5,3.7-0.8,5.5c-2.6-0.5-5.2-1-7.7-1.7c-0.1,0-0.2-1.7,0.2-2.1c0.5-0.6,1.5-1.1,2.4-1.2
	C299.4,527.4,301.1,527.4,303.7,527.3z"/>
<path class="st0" d="M311.5,496c0.8,3.2,1.4,5.5,2.4,9.1c-3.4-1.5-5.5-2.4-8.5-3.7C307.4,499.5,309.1,498.1,311.5,496z"/>
<path class="st0" d="M323.5,494.9c2.5,2.3,4,3.7,5.5,5c-0.2,0.6-0.3,1.2-0.5,1.7c-2.1-0.2-4.2-0.4-6.3-0.6
	C322.5,499.4,322.9,497.6,323.5,494.9z"/>
<path class="st0" d="M285.1,499.8c2.8-1.4,4.5-2.3,6.7-3.4c0.6,2.3,1.1,4,1.7,6.3C290.9,501.8,288.9,501.1,285.1,499.8z"/>
<path class="st0" d="M308.6,342.1c0-12.6,0-24.8,0-37c0.7-0.1,1.4-0.2,2.1-0.2c0.4,1.3,1.1,2.6,1.2,4c0.1,1.5-0.4,2.9-0.5,4.4
	c-0.7,9.3-0.7,9.3,5.9,15.2c-2,0.1-3.5,0.2-5,0.3c-0.9,4.5-1.8,9-2.8,13.4C309.4,342.2,308.3,342,308.6,342.1z"/>
<path class="st0" d="M313.9,342.3c2.5,3.9,4.5,6.9,6.3,10c0.7,1.2,1.1,2.7,1.7,4.2C317.5,356,312.8,348.3,313.9,342.3z"/>
<path class="st0" d="M280,322c-1.2-2.9-2.4-5.9-3.7-9c3.3-2.2,4.2-1.4,8,9.7C282.6,322.4,281.3,322.2,280,322L280,322z"/>
<path class="st0" d="M472.4,400.3c8.1,2.5,16.2,5,24.3,7.5c-0.2,0.7-0.4,1.5-0.6,2.2c-8.1-2.4-16.2-4.8-24.2-7.3
	C472.1,402,472.3,401.1,472.4,400.3z"/>
</svg>
