<?xml version="1.0" encoding="utf-8"?>
<!-- Generator: Adobe Illustrator 14.0.0, SVG Export Plug-In . SVG Version: 6.00 Build 43363)  -->
<!DOCTYPE svg PUBLIC "-//W3C//DTD SVG 1.1//EN" "http://www.w3.org/Graphics/SVG/1.1/DTD/svg11.dtd">
<svg version="1.1"
	 id="Layer_1" xmlns:dc="http://purl.org/dc/elements/1.1/" xmlns:ns1="http://sozi.baierouge.fr" xmlns:inkscape="http://www.inkscape.org/namespaces/inkscape" xmlns:sodipodi="http://inkscape.sourceforge.net/DTD/sodipodi-0.dtd" inkscape:version="0.40+cvs" sodipodi:docname="Pesca.svg" xmlns:svg="http://www.w3.org/2000/svg" xmlns:rdf="http://www.w3.org/1999/02/22-rdf-syntax-ns#" sodipodi:docbase="F:\openclip\svg temporanei" xmlns:cc="http://web.resource.org/cc/" sodipodi:version="0.32"
	 xmlns="http://www.w3.org/2000/svg" xmlns:xlink="http://www.w3.org/1999/xlink" x="0px" y="0px" width="612px" height="792px"
	 viewBox="0 0 612 792" enable-background="new 0 0 612 792" xml:space="preserve">
<sodipodi:namedview  id="base" inkscape:current-layer="Layer_1" inkscape:zoom="1.5012511" inkscape:pageshadow="2" inkscape:window-width="640" inkscape:cx="133.19900" borderopacity="1.0" inkscape:cy="125.89500" inkscape:window-x="110" inkscape:window-y="110" pagecolor="#ffffff" bordercolor="#666666" inkscape:pageopacity="0.0" inkscape:window-height="540">
	</sodipodi:namedview>
<path id="path5" fill="#FFC35A" d="M336.465,106.78c26.993,7.873,53.183,22.488,74.594,40.329
	c10.314,8.594,21.71,16.704,31.381,26.153c9.512,9.29,17.482,19.938,26.994,29.359c1.906-7.314,7.535-18.351,12.152-24.298
	c0.919-1.188,5.192-4.099,6.754-5.739c2.711-2.847,2.551-5.693,7.421-6.412c-6.524-1.854-0.805-14.064,7.42-9.957
	c5.881,2.938,6.524,3.775,12.819,3.88c4.204,0.071,8.293-0.466,12.497,0c-5.33,13.506-7.374,31.981-17.321,43.061
	c-8.109,9.006-15.967,18.696-25.891,25.788c-6.479,4.645-24.03,7.666-14.496,14.848c4.87,3.68,12.772,2.123,18.562,1.013
	c12.797-2.456,24.191-12.339,36.987-16.229c7.558-2.307,15.254-4.457,23.088-5.707c6.524-1.043,21.342,0.264,26.351-3.912
	c4.065-3.391,31.519-24.586,35.746-19.374c2.067,2.55-3.079,8.365-4.066,10.462c-2.918,6.317-4.158,13.196-7.421,19.573
	c-6.18,12.109-18.607,28.388-31.771,32.498c-15.874,4.962-32.989,3.606-48.887,8.675c18.194,27.972,38.388,51.889,50.908,83.431
	c12.865,32.416,19.643,63.061,19.643,97.82c0,8.109,1.516,16.196,1.332,24.282c-0.138,7.26-2.274,13.463-4.709,20.584
	c-4.687,13.646-7.168,27.936-12.797,41.214c-13.416,31.749-36.297,48.015-60.832,70.298c-23.64,21.457-49.6,41.674-46.177,76.8
	c-5.628-0.322-16.632-7.19-20.078-10.637c-8.271-8.225-8.478-9.327-19.757-8.592c-4.526,0.275-8.982-1.241-13.83-1.011
	c-7.88,0.321-15.852-0.368-23.731-0.735c-7.029-0.345-14.151-0.965-21.204-0.965c-6.823,0-15.966,2.366-22.192-0.229
	c-7.19-3.01-14.886-1.976-22.421-2.551c-7.076-0.551-12.176-3.078-18.609-5.651c-7.19-2.871-14.22-5.215-21.089-8.431
	c-22.031-10.315-45.119-27.017-61.63-45.165c-6.584-7.26-14.317-14.267-22.75-19.298c-5.876,15.553-23.862,28.992-25.649,45.9
	c-1.597,15.094,6.148,35.632,11.14,49.599c-0.069-1.906-0.356-4.043-0.675-5.72c-5.33,33.426-48.375-31.52-55.459-38.595
	c-10.756-10.752-17.184-17.437-17.437-33.633c-0.271-17.345,6.125-34.253,6.75-51.644c-13.593,3.997-26.187,5.054-34.083,18.24
	c-4.374,7.282-10.03,13.21-17.211,17.207c-8.011,4.434-17.627,4.066-26.663,6.409C25.661,593.466,12.327,600.197,0,608.605
	c0.531-6.777,6.17-9.811,10.124-14.496c5.286-6.295,4.216-11.878,7.172-18.907c5.842-13.853,18.082-23.157,24.722-36.436
	c6.65-13.324,5.978-27.613,14.103-40.915c6.731-11.004,19.759-24.788,31.627-30.302c6.545-3.056,27.862-2.872,25.482-14.68
	c-1.252-6.226-3.869-17.138-6.919-22.123c-4.647-7.559-17.931-13.555-24.469-20.079c-6.499-6.479-21.673-7.466-30.201-7.926
	c-6.184-0.321-16.896-2.067-20.25-8.775c-3.942-7.857,17.016-26.051,20.786-33.173c6.906-13.048,5.874-29.192,5.874-43.426
	c0-15.086,2.831-31.349,5.578-46.171c5.92-31.958,22.447-56.636,41.007-82.345c19.426-26.908,44.908-50.417,75.919-63.174
	C231.225,104.838,284.04,107.439,336.465,106.78"/>
<path id="path7" fill="#FFFFFF" stroke="#FFFFFF" d="M334.099,117.579c14.863,3.131,27.314,10.304,40.111,18.128
	c5.857,3.586,12.152,7.972,18.653,10.25c6.915,2.417,5.882,4.351,10.086,8.068c7.695,6.802,16.38,12.456,23.961,21.599
	c6.639,7.997,22.422,22.043,24.811,31.724c1.287,5.197,1.562,16.116-5.904,10.462c-2.825-2.132-1.998-7.802-3.377-10.462
	c-3.147-6.108-8.454-11.905-12.818-17.547c-9.994-12.893-18.104-18.53-33.013-24.986c-13.577-5.888-27.499-11.355-41.903-14.838
	c-26.419-6.384-56.215-7.609-82.703-6.75c-2.986,0.096-9.396,0.445-11.463,3.039c-0.758,0.954-2.389,5.123,1.562,4.174
	c16.357-3.931,31.128-1.79,47.577-0.358c14.887,1.296,29.682,1.02,44.017,5.295c5.169,1.546,10.613,5.739,15.736,5.739
	c7.834,0,15.438,2.842,22.009,7.025c5.743,3.657,10.269,8.806,17.207,9.674c7.306,0.917,13.003,7.611,16.908,13.336
	c3.951,5.773,7.902,12.878,10.82,19.24c2.045,4.489,2.688,5.038,2.688,10.23c0,9.47,1.287,6.926-6.064,9.341
	c-13.232,4.337-28.464,2.741-41.857,6.75c-15.92,4.767-27.2,17.06-41.122,25.422c-4.916,2.949-10.43,1.647-15.92,3.938
	c-5.996,2.513-9.718,5.3-16.196,6.917c-7.489,1.873-13.278,6.341-20.239,9.281c-6.364,2.69-10.521,2.38-17.942,2.752
	c-14.542,0.731-28.487,3.896-42.799,5.854c-15.583,2.127-27.636,14.535-38.824,24.545c-10.191,9.118-19.199,21.503-26.339,33.127
	c-8.245,13.394-3.892,26.488-9.663,40.341c-6.816,16.357-8.693,32.002-11.238,49.646c-8.454-2.803-18.029,4.135-26.323-0.345
	c-9.242-5.009-13.747-18.792-22.672-25.156c-8.964-6.409-17.781-10.866-28.372-13.968c-8.454-2.458-21.285,1.355-28.264-2.044
	c17.857-18.471,50.759-39.284,37.46-70.202c-6.377,13.825-7.753,29.378-15.858,42.519c4.358-31.358-2.587-64.649,5.713-95.357
	c1.838-6.802,3.889-14.462,7.875-20.357c2.192-3.239,6.095-7.145,7.331-10.838c1.101-3.283,0.115-7.765,1.351-11.475
	c2.02-6.056,6.247-11.225,9.761-16.5c4.05-6.079,5.775-12.878,10.012-18.81c9.33-13.058,20.857-25.703,35.611-32.585
	c2.155-1.006,2.315-7.836,7.894-10.23c6.09-2.617,9.669-6.685,15.355-9.957c12.622-7.266,27.611-9.545,41.161-14.542
	c15.504-5.715,26.927-10.721,43.881-11.781C279.882,115.208,306.99,118.452,334.099,117.579"/>
<path id="path9" fill="#FFC35A" d="M234.211,153.013c-1.861,12.026-19.369,7.56-24.974,16.874
	c-10.729-3.602-0.322-8.969,7.257-11.137C222.024,157.169,229.642,153.84,234.211,153.013"/>
<path id="path11" fill="#FFFFFF" stroke="#FFFFFF" d="M512.623,190.473c-0.391-4.675,2.435-10.66,5.398-14.51
	C518.09,181.142,514.782,186.324,512.623,190.473"/>
<path id="path13" fill="#FFC35A" d="M161.32,196.549c-1.406,5.93-6.603,6.446-11.14,9.111c-6.998,4.11-4.903,6.391-8.773,11.813
	c-2.849,3.99-10.051,8.362-13.834,12.15c5.463-23.766,38.77-40.934,58.384-52.31C184.759,188.521,168.678,190.583,161.32,196.549"/>
<path id="path15" fill="#FFFFFF" stroke="#FFFFFF" d="M493.395,179.336c1.585-0.304,3.147-0.673,4.732-1.011
	C496.588,179.786,495.438,179.099,493.395,179.336"/>
<path id="path17" fill="#FFFFFF" stroke="#FFFFFF" d="M501.504,206.336c-6.708-0.331-7.099,8.987-12.819,11.135
	c1.953-7.652,8.753-13.476,11.464-20.922c2.274-6.278,4.204-9.733,6.754-15.523C504.237,189.281,505.363,198.732,501.504,206.336"/>
<path id="path19" fill="#FFFFFF" stroke="#FFFFFF" d="M494.405,189.462c-3.905,1.376-3.423,6.936-5.743,10.799
	c-5.399,8.994-13.371,14.894-23.272,18.223c6.755-5.829,9.626-13.834,15.507-20.249c2.78-3.005,6.203-7.949,8.799-10.125
	C491.533,186.565,498.241,180.712,494.405,189.462"/>
<path id="path21" fill="#FFFFFF" stroke="#FFFFFF" d="M560.223,258.306c-14.68,3.745-21.479-3.685-32.736-10.462
	c3.883-1.826,2.113-4.032-2.366-3.71c6.501-14.868,21.066-17.211,35.447-17.211c-1.93,4.231-16.724,16.366-14.863,20.921
	c1.999,4.848,12.658,1.769,15.874,1.013c0.139-0.342,0.759-1.978,1.012-2.702c-2.711-0.335-5.399-0.673-8.11-1.011
	c3.791-4.156,5.743-14.25,9.442-17.211c3.515-2.814,14.105-3.781,18.907-6.412c5.927-3.242,11.578-6.975,17.551-10.125
	C594.706,230.488,582.714,255.758,560.223,258.306"/>
<path id="path23" fill="#FFFFFF" stroke="#FFFFFF" d="M483.263,218.484c-4.135,4.479-10.2,7.271-16.195,8.268
	c-4.182,0.701-4.044,7.503-0.322,9.957c-17.022-6.692-4.641-4.223-3.377-14.85c7.673,2.619,15.645,1.799,18.218-7.087
	C481.977,215.369,483.309,218.602,483.263,218.484"/>
<path id="path25" fill="#FFC35A" d="M570.01,244.134h-3.377c6.064-5.739,12.152-11.475,18.218-17.211
	C586.137,237.069,572.376,235.774,570.01,244.134"/>
<path id="path27" fill="#FFC35A" d="M118.794,246.155c0.843-5.412,3.607-9.57,7.761-13.161
	C123.708,237.217,122.941,243.068,118.794,246.155"/>
<path id="path29" fill="#FFFFFF" stroke="#FFFFFF" d="M522.409,235.696c-6.042,5.681-15.76,23.43-24.282,12.148
	C504.789,241.678,514.185,239.063,522.409,235.696"/>
<path id="path31" fill="#FFFFFF" stroke="#FFFFFF" d="M470.122,252.232c24.812,16.846,59.087,33.359,72.09,62.11
	c3.423,7.606,4.365,15.911,8.041,23.272c3.63,7.236,7.443,14.335,10.935,21.641c6.984,14.588,13.417,28.786,16.242,44.843
	c5.445,30.945,5.651,63.039-1.447,93.455c-3.676,15.76-8.729,31.175-15.76,45.763c-8.155,16.885-18.401,27.521-32.828,39.192
	c-29.245,23.593-58.397,45.716-70.114,82.795c-2.596-4.342-5.468-1.011-9.098-2.688c-8.247-3.791-7.649-9.305-17.758-10.614
	c-16.609-2.183-33.403-1.746-49.989-3.676c-7.352-0.85-17.598-0.298-24.397-3.262c-6.088-2.642-7.604-5.789-15.691-4.894
	c-6.96,0.781-11.05-3.032-17.551-4.227c-7.995-1.447-13.623-1.608-20.745-5.744c-1.47-0.826-0.321-3.928-2.55-3.032
	c-0.896,0.368-1.493,0.574-2.343,0c-1.287-0.85-1.7-2.274-2.55-3.538c-2.757-4.157-13.324-5.375-17.942-7.948
	c-14.749-8.271-25.063-21.848-35.7-34.598c-18.036-21.641-48.267-47.049-48.267-77.925c0-4.319,0.193-8.478,0.57-12.796
	c0.161-1.861-5.351-5.95-6.644-8.294c-3.521-6.432-3.765-16.127-4.39-23.294c-1.174-13.463-5.295-31.152,1.687-43.534
	c-10.23-1.447,2.961-11.027-0.166-15.186c-6.131-8.178,3.542-27.315,6.244-36.458c2.201-7.443,4.737-14.749,8.436-21.595
	c4.22-7.799,10.841-12.109,15.858-18.895c0.641-0.866-0.462-3.55,0.675-5.063c1.649-2.196,3.311-0.287,4.558-2.532
	c3.65-6.57,9.527-4.762,15.351-7.255c7.283-3.113,9.626-8.248,18.562-8.436c8.707-0.184,16.426,3.262,24.305,6.412
	c4.549,1.819,8.225-1.146,13.485,2.364c2.16,1.436,4.089,3.235,6.088,4.894c2.412,2.015,1.838,3.951,3.377,5.569
	c5.974,6.242,18.838,3.841,23.616,12.823c3.285,6.191,0.942,4.698-2.688,8.098c-3.905,3.63-6.019,4.204-8.109,10.453
	c-1.126,3.446-2.091,6.547-4.732,9.121c2.895-6.249,4.732-13.761,2.711-20.584c-2.344,3.078-4.457,13.784-9.626,8.615
	c-4.847-4.87-12.704-10.108-19.734-7.604c4.043,3.147,8.086,6.294,12.153,9.442c-2.068-0.023-3.676,1.333-5.077,1.7
	c3.791,2.963,6.57,9.488,12.153,7.076c2.366,10.476-9.396,10.062-8.086,20.584c-1.355-0.322-2.711-0.667-4.066-1.011
	c-0.322,3.606-0.666,7.213-1.011,10.797c-7.765-4.526-40.203-22.101-47.578-16.862c11.739,12.52,31.427,15.277,46.567,21.939
	c-3.929,3.699-0.414,6.777-0.345,11.142c0.046,1.723,1.217,3.078,0.85,4.894c-0.482,2.389-5.422,1.608-5.56,2.183
	c-0.621,2.618,3.193,8.546,5.054,12.152c-3.791-0.528-6.088,2.183-4.043,6.065c-8.868-3.01-6.479,14.082,4.043,4.388
	c7.305,8.614,6.249,16.931-4.848,19.32c-13.347,2.871-26.396,2.183-37.676,11.05c9.625,0.275,19.045-1.378,28.349-3.698
	c3.584-0.896,19.734-8.523,20.263-3.377c0.046,0.459-51.115,13.898-42.202,20.584c10.315,7.719,42.132-28.946,49.966-9.442
	c1.654,4.158,1.93,9.258,2.251,13.715c0.735,9.351,5.146,7.053,10.223,11.602c3.102,2.757,5.858,9.189,5.054,13.164
	c-2.32-3.722-5.743-6.387-8.775-9.466c-1.355,4.939,1.884,8.087,4.227,11.992c4.664,7.766-5.903,12.383-11.302,16.357
	c-2.596,1.93-17.529,14.863-7.765,14.863c3.193,0,6.915-4.549,8.776-6.754c-1.677,6.846-0.528,8.133,5.904,3.538
	c5.353-3.813,10.499-7.65,14.014-13.325c-3.469,8.73-14.128,14.887-12.152,25.294c3.951-6.8,18.355-23.524,25.638-23.616
	c3.078-0.023,5.881,2.895,8.109,4.549c3.63,2.756,1.654,5.421,2.688,7.604c1.653,3.446,0.459,2.803,4.065,5.743
	c2.711,2.206,5.514,0.942,7.421,4.71c3.216,6.433-7.099,13.577-4.388,20.929c5.973-3.883,9.143-15.737,17.207-14.841
	c-3.745,4.687-7.421,9.579-6.088,15.852c4.043-4.021,8.982-8.914,9.465-14.841c0.758,3.928-1.355,7.121-1.355,10.958
	c0,1.677,1.952,4.525,4.043,3.883c1.493-0.46,3.768-10.361,4.388-12.153c7.903,4.182,17.644,3.653,26.12,6.065
	c9.971,2.849,9.029,9.855,15.393,15.553c2.137,1.884,4.756,0.804,7.099,1.677c4.778,1.792,8.615,7.122,9.603-1.86
	c0.437-3.837-0.505-7.489-0.505-11.303c0-4.871,4.227-6.64,4.388-10.453c0.229-4.802-5.881-7.995-4.043-13.509
	c0.712-2.182,5.903-4.548,7.604-6.914c1.792-2.527,3.768-8.707,6.915-9.971c6.317-2.527,15.989,8.201,21.388,11.51
	c8.133,5.008,15.943,10.591,24.168,15.507c0.321-0.345,0.666-0.689,1.011-1.011c-8.913-7.306-18.425-13.256-27.89-19.803
	c-12.934-8.96-17.068-15.002-8.224-28.304c4.709-7.075,2.986-21.112,14.014-14.496c3.768,2.274,13.623,5.56,17.367,2.872
	c-2.733-4.204-7.306-6.363-12.152-7.099c6.616-1.471,12.818,3.744,19.251,1.011c-9.143-2.642-17.689-9.419-27.683-7.076
	c1.654,1.218,3.263,2.757,5.055,3.699c-3.056-2.205-1.632-1.08-5.055,1.011c0.712-4.066,0.598-20.653,3.377-22.95
	c3.722-3.078,11.143,2.205,15.852-2.343c-2.067-1.654-3.606-3.217-6.064-3.722c4.503-0.437,9.626-6.134,3.032-8.11
	c-5.284-1.585-8.316,6.961-12.819,8.11c3.653-12.935-3.009-25.661-0.666-38.136c0.942-5.101-0.896-2.803,3.354-6.088
	c2.871-2.183,8.729-2.803,12.152-4.043c7.949-2.872,15.094-5.812,20.584-12.475c-9.993,1.286-18.654,3.399-27.659,8.086
	c6.938-5.215,14.634-8.546,20.239-15.529c-5.399,1.953-5.307-4.848-9.787-4.709c-5.146,0.138-4.893,8.775-8.431,12.153
	c-2.412,2.297-12.429,7.788-15.875,7.42c-2.779-0.299-7.649-10.407-7.075-0.345c-7.214-3.561-7.926-10.567-6.249-20.583
	c0.919-5.514-0.321-8.959-1.86-14.335c-1.815-6.433,4.434-5.858,7.42-9.281c8.063-9.189-3.308-3.009-6.064-7.443
	c-5.605-9.005,16.334-13.462,13.829-24.625c-3.859,3.4-25.522,25.728-28.67,23.614c-5.468-3.63-10.43-14.376-18.241-11.463
	c1.218,1.884,1.93,4.365,3.377,6.065c-2.504-2.114-6.523-2.665-8.775-4.709c-3.492-3.193-1.746-3.745-3.377-7.43
	c-2.711-6.136-3.515-6.791-2.344-13.836c0.759-4.682,3.584-8.411-1.011-12.151c-1.011,1.863-3.146,3.159-4.065,5.061
	c-0.299-2.07-1.792-3.997-2.022-6.074c-5.857,8.039-5.812,20.949-18.218,20.924c-5.421-0.012-10.406-3.09-16.195-2.702
	c0.712-5.732-0.115-13.375-7.099-14.51c1.194-4.36-0.414-9.258,1.011-13.499c1.769-5.289,6.479-9.801,9.511-14.561
	c5.812-9.129,15.346-22.091,24.926-27.623C423.602,241.807,449.929,247.175,470.122,252.232"/>
<path id="path33" fill="#FFFFFF" stroke="#FFFFFF" d="M536.929,261.007c-5.79,0.995-12.658,3.805-18.562,2.024
	c-6.754-2.047-12.359-8.176-4.044-12.148C522.042,247.196,532.954,256.075,536.929,261.007"/>
<path id="path35" fill="#FFC35A" d="M117.783,251.221c1.452,6.529-9.233,24.745-14.51,28.011
	C107.298,269.659,109.69,257.191,117.783,251.221"/>
<path id="path37" fill="#FFFFFF" stroke="#FFFFFF" d="M386.087,253.92c-5.491,4.105-9.511,9.819-15.53,13.161
	C374.37,262.073,380.298,254.205,386.087,253.92"/>
<path id="path39" fill="#FFFFFF" stroke="#FFFFFF" d="M365.824,270.457c-1.976,5.502-5.881,10.4-6.064,16.536
	c-0.092,3.017,2.618,6.001,1.86,8.271c-1.264,3.786-1.677,7.611-2.55,11.473c-0.919,4.243,2.573,17.719-2.021,17.719
	c-3.607,0-6.777-0.776-9.098,2.362c-1.447-9.842-15.415-12.173-22.284-17.211c-6.156-4.503-14.036-9.258-21.939-7.085
	c5.95,2.292,39.445,20.593,35.448,25.31c-2.298-5.5-6.341-5.961-11.143-8.098c-4.089-1.817-7.649-6.433-10.452-7.763
	c-2.252-1.052-6.961,0.402-9.81-0.673c-2.527-0.96-5.399-3.637-7.421-5.399c5.835-3.464-0.069-4.417,2.367-7.087
	c5.054-5.543,18.677-6.609,25.316-10.462c3.377-1.964,6.226-4.213,9.006-6.975c1.355-1.364,3.606,1.225,5.835,0.223
	c4.204-1.884,6.088-6.072,11.142-6.074c-6.409,9.387-5.605,20.653-8.018,31.172c-2.642,11.45-3.423,14.122,8.362,11.181
	c5.697-1.426-0.16-11.42-0.597-16.917C352.891,289.531,355.67,275.588,365.824,270.457"/>
<path id="path41" fill="#FFC35A" d="M339.176,305.893c-4.204-7.081-1.447-14.42,1.011-21.6
	C339.842,291.493,339.497,298.692,339.176,305.893"/>
<path id="path43" fill="#FFC35A" d="M97.197,299.818c-5.543,11.335-9.265-0.822-3.375-6.076
	C95.982,295.366,96.995,297.413,97.197,299.818"/>
<path id="path45" fill="#FFC35A" d="M461.668,329.178c-3.722,7.17-9.051,13.352-15.529,18.222
	C448.712,339.429,454.386,333.106,461.668,329.178"/>
<path id="path47" fill="#FFFFFF" stroke="#FFFFFF" d="M187.302,343.357c-0.983-4.135,2.536-6.363,4.726-9.456
	C191.141,337.315,189.303,340.554,187.302,343.357"/>
<path id="path49" fill="#FFFFFF" stroke="#FFFFFF" d="M414.436,351.788c12.176,5.881,15.645,24.352,29.222,27.269
	c2.619,0.552,5.789,4.457,5.537,7.834c-0.115,1.287-3.147,2.412-3.033,4.043c0.207,3.561,2.32,4.755,4.044,8.109
	c5.146,10.017,5.674,22.33,10.131,32.048c4.617,10.131,4.962,21.916,3.032,33.747c-3.032-1.332-4.296-4.617-6.754-7.075
	c-2.918-2.918-6.64,1.24-5.054,4.388c1.791,3.606,5.375,13.416,10.107,8.775c0,7.007-2.182,8.845-3.032,14.175
	c-0.598,3.722,1.31,5.835-0.666,9.786c-1.7,3.4-1.999,6.317-4.732,9.098c-1.011,1.057-4.916-0.919-6.088,0
	c-1.103,0.919-0.758,3.584-1.677,4.732c-2.183,2.688-3.768,6.846-5.767,9.833c-8.201,12.313-11.464,20.79-13.141,35.057
	c-0.345,3.01,0.804,5.215-1.011,7.926c-0.414,0.643-13.922-8.661-15.852-9.626c-13.669-6.777-29.13-10.545-42.96-17.781
	c-6.823-3.584-14.105-7.352-19.297-13.187c-2.711-3.032-11.464-20.653-13.233-20.653c-13.646,0-7.765-27.314-14.289-34.758
	c-4.318-4.962-7.397-0.368-8.271-9.971c-0.666-7.443-1.677-14.979-2.526-22.444c-2.344-20.813,4.502-33.932,11.165-53.022
	c5.077-14.496,9.327-34.988,28.67-36.734c0.598,8.707,13.049-3.17,17.759-3.882c8.155-1.264,16.908-0.942,25.086-0.184
	C403.523,340.394,409.542,342.254,414.436,351.788"/>
<path id="path51" fill="#FFC35A" d="M421.512,378.782c7.053,6.226,10.958,15.208,13.484,24.099
	c1.333,4.617,2.734,9.212,4.066,13.829c1.355,4.778,5.215,5.077,6.41,8.639c2.228,6.685,2.596,17.391,3.377,24.305
	c1.332,11.854-3.47,24.536-5.399,36.114c-1.607-1.93-4.434-2.826-6.088-4.732c-6.868,10.683-8.729,50.15-22.605,52.31
	c-0.391-0.459-1.401-2.044-1.677-2.688c10.82-6.479,6.295-19.986,10.637-29.544c4.457-9.786,9.718-32.874,17.367-37.951
	c3.791-2.527,2.872-9.648,2.366-13.509c-0.941-6.983-3.652-7.925-6.754-13.829c-3.285-6.271-1.47-13.669-2.688-20.424
	c-1.24-6.8-8.707-12.543-13.164-17.367c11.395-3.975-3.63-20.125-7.145-24.145c-11.142-12.704-25.707-27.108-44.154-25.477
	C384.64,332.312,412.437,370.925,421.512,378.782"/>
<path id="path53" fill="#FFFFFF" stroke="#FFFFFF" d="M303.728,353.465c-1.976-0.873-4.043-1.562-6.065-2.343
	C299.616,353.029,301.339,353.144,303.728,353.465"/>
<path id="path55" fill="#FFFFFF" stroke="#FFFFFF" d="M449.516,356.842c1.631-1.953,3.377-3.813,5.077-5.72
	C453.536,354.085,451.951,357.233,449.516,356.842"/>
<path id="path57" fill="#FFC35A" d="M353.672,358.198l0.345,3.377c-12.682-2.458-19.321,15.507-21.595,24.65
	c-1.678,6.731,2.389,27.935-6.755,21.917c-3.515,11.831,0.046,29.957,6.088,40.846c2.55,4.618,10.522,5.605,11.303,8.776
	c0.62,2.48-2.229,4.227-2.205,6.409c0.046,3.193,0.321,3.584,1.355,6.754c1.746,5.307,5.605,9.58,7.42,14.841
	c2.206,6.341,6.271,15.07,12.313,20.239c6.777,5.789,10.431,14.06,17.735,19.573c6.088,4.617,13.991,3.538,12.819,12.152
	c-8.454-3.583-15.76-11.026-22.629-17.022c-5.123-4.503-11.602-4.25-13.232-11.785c-2.044-9.58-10.384-16.61-15.162-24.812
	c-2.274-3.882-2.159-11.578-4.617-14.243c-3.562-3.883-6.02-8.546-7.053-13.761c-2.022-10.039-2.941-18.493-7.513-27.706
	c-5.767-11.647-3.79-17.735,3.032-29.038c5.928-9.74,6.157-17.919,9.281-28.349C336.419,365.043,348.112,346.274,353.672,358.198"/>
<path id="path59" fill="#FFC35A" d="M402.283,397.022c11.899,19.596,19.366,42.247,16.356,65.267
	c-0.988,7.397-0.482,15.346-2.872,22.468c-3.009,9.074-5.123,5.536-12.13,6.064c-0.138-1.86-1.148-7.374,0.322-8.752
	c2.205-2.091,3.652,2.412,5.743,1.332c6.501-3.354,2.895-9.901,3.883-16.701c0.597-4.204,3.285-6.708,2.526-11.303
	c-0.758-4.595-5.307-7.421-6.409-11.809c-1.264-5.077,5.628-7.397,4.549-10.637c-1.861-5.605-2.803-11.279-5.721-16.54
	c-2.021-3.63-11.188-7.443-11.992-9.604c-0.919-2.48,2.597-5.054,2.366-7.443c-0.734-7.167-11.188-16.885-16.54-20.905
	c-1.976-1.493-9.833-4.066-8.087-7.099c2.159-3.813,7.053,0.85,8.432,1.7C390.359,377.748,399.066,389.671,402.283,397.022"/>
<path id="path61" fill="#FFC35A" d="M379.999,389.924c-4.526,8.316-14.336-1.103-12.819-7.42
	C371.866,383.721,378.229,385.995,379.999,389.924"/>
<path id="path63" fill="#FFC35A" d="M343.563,427.393c6.846-1.493,5.767,8.432,6.57,13.485c1.24,7.949,2.733,16.059,5.582,23.64
	c2.711,7.213,6.616,12.934,11.625,18.723c3.905,4.503,7.765,4.136,11.303,10.292c2.733,4.71,3.768,10.384,9.12,13.164
	c2.251,1.148,7.306-0.23,9.12,1.677c7.145,7.581-4.296,10.292-9.12,11.142c-0.598-3.239-3.193-3.698-4.388-6.409
	c-2.159-4.87-0.528-8.592-5.743-12.497c-4.503-3.377-11.464-5.077-14.175-10.453c-1.952-3.905,0.896-6.11-2.504-9.832
	c-2.205-2.436-3.699-5.308-5.054-8.271c-5.996-12.957-31.267-65.52-14.037-75.054C336.81,407.223,340.324,418.135,343.563,427.393"
	/>
<path id="path65" fill="#FFFFFF" stroke="#FFFFFF" d="M167.394,420.294c0.691-6.593,1.5-13.508,4.385-19.573
	C170.461,407.085,169.457,414.597,167.394,420.294"/>
<path id="path67" fill="#FFC35A" d="M386.087,415.24c-5.33,6.409-8.248-8.799-9.465-12.153
	C383.238,404.167,383.651,411.335,386.087,415.24"/>
<path id="path69" fill="#FFFFFF" stroke="#FFFFFF" d="M170.091,444.6c0.335-7.168-6.154-12.451-2.362-19.573
	C166.716,431.826,171.798,437.685,170.091,444.6"/>
<path id="path71" fill="#FFC35A" d="M393.852,439.522c-6.8,3.239-10.499-8.408-9.465-13.141
	C389.165,429.414,393.162,433.71,393.852,439.522"/>
<path id="path73" fill="#FFFFFF" stroke="#FFFFFF" d="M151.866,470.927c-8.063,1.861-15.371,4.25-20.586,11.143
	c-4.092-5.422-9.628-8.041-15.693-10.637c-8.576-3.676-5.38-3.4-1.183-8.615c2.743-3.4,6.637-9.052,10.8-11.142
	c6.986-3.492,14.953-1.401,22.272-3.377C147.235,456.385,154.559,462.473,151.866,470.927"/>
<path id="path75" fill="#FFFFFF" stroke="#FFFFFF" d="M176.165,485.768c-2.036-12.589-7.228-26.351-4.386-39.146
	C173.893,459.716,175.113,472.558,176.165,485.768"/>
<path id="path77" fill="#FFC35A" d="M403.294,457.764c-4.343,0.896-8.408-3.929-9.442-7.099
	C398.217,450.986,402.19,454.409,403.294,457.764"/>
<path id="path79" fill="#FFC35A" d="M382.71,474.97c0.896-0.78,1.792-1.585,2.688-2.366c-9.098-9.441,22.33-8.913,8.454,0
	c-6.226-5.329-5.284,6.295-13.508,3.033c-9.81-3.883-9.787-15.576-9.787-23.961C375.473,459.211,374.508,469.503,382.71,474.97"/>
<path id="path81" fill="#FFFFFF" stroke="#FFFFFF" d="M136.008,461.462c-1.576-2.366-3.152-4.709-4.728-7.075
	C134.365,456.109,136.775,458.544,136.008,461.462"/>
<path id="path83" fill="#FFFFFF" stroke="#FFFFFF" d="M123.857,479.703c5.394,3.652,1.962,6.776-1.349,9.786
	c-5.752,5.215-10.25,2.343-16.538-0.345c2.892,7.03-5.93,13.601-12.148,14.841c-5.072,1.034-12.332-1.585-17.889-1.011
	c-6.407,0.666-12.521,2.297-18.562,4.388c1.579-8.638,11.404-12.728,17.89-17.207c3.871-2.665,5.065-3.102,8.773-4.043
	c2.736-0.689,4.098,1.746,7.084-0.345c-1.183-0.735-7.083-2.113-7.42-2.688c-1.817-3.102,5.769-4.824,9.784-6.433
	C104.941,472.099,115.176,470.697,123.857,479.703"/>
<path id="path85" fill="#FFFFFF" stroke="#FFFFFF" d="M155.241,489.145c-14.965,8.087-27.329,19.665-33.748,35.77
	c-3.026,7.604-2.245,11.923-9.785,15.69c-4.525,2.274-9.853,2.825-14.51,4.894c10.049-17.046-13.552-41.237,17.209-42.523
	c0.349,6.708-9.192,27.223-5.061,30.37c16.449-15.713,1.597-39.376,26.998-48.588c4.562-1.654,8.312-3.698,13.331-3.698
	C154.545,481.059,153.288,486.388,155.241,489.145"/>
<path id="path87" fill="#FFFFFF" stroke="#FFFFFF" d="M399.916,483.057c-1.631,0.253-3.399,0-5.054,0
	C397.78,480.277,398.147,481.679,399.916,483.057"/>
<path id="path89" fill="#FFFFFF" stroke="#FFFFFF" d="M296.652,483.057c-2.297,3.01-5.927,3.883-9.442,5.077
	C289.278,484.825,293.275,484.665,296.652,483.057"/>
<path id="path91" fill="#FFFFFF" stroke="#FFFFFF" d="M509.269,485.768h7.076H509.269"/>
<path id="path93" fill="#FFFFFF" stroke="#FFFFFF" d="M104.62,489.145c-2.596,0.023-4.107,0.552-5.734-2.021
	C100.611,487.651,104.117,488.892,104.62,489.145"/>
<path id="path95" fill="#FFC35A" d="M450.871,499.275c-3.492,3.285-8.432,2.643-11.809,6.065c-2.94-7.972,4.848-13.026,9.442-18.218
	C452.065,490.087,451.514,495.577,450.871,499.275"/>
<path id="path97" fill="#FFC35A" d="M410.369,512.439c1.838-4.503,1.999-9.511,5.398-13.164
	C416.136,504.008,415.492,510.739,410.369,512.439"/>
<path id="path99" fill="#FFFFFF" stroke="#FFFFFF" d="M157.943,529.646c-8.186-4.916-14.354-10.338-24.301-11.143
	c5.192-7.856,13.348-12.934,20.926-18.217C155.928,508.603,169.709,523.375,157.943,529.646"/>
<path id="path101" fill="#FFFFFF" stroke="#FFFFFF" d="M86.397,507.362c-3.972,7.788-16.952,11.923-20.894,16.563
	c-2.13,2.504-15.852,15.254-15.217,17.873c0.763,3.147,5.878,0.069,7.084-1.355c-3.308,14.979-19.077,24.834-28.011,36.436
	c7.172,0,7.027,0.207,11.812-4.043c3.729-3.309,6.795-8.179,9.789-12.153c6.23-8.247,12.796-16.356,18.562-24.972
	c0,14.404,0.751,32.024-11.135,42.523c0.786,0.689,1.574,1.355,2.359,2.021c-14.409,4.273-29.243,4.917-43.534,10.132
	c4.229-11.625,11.962-19.964,19.238-29.705c8.392-11.211,10.526-19.917,12.148-33.402C50.348,512.738,73.882,501.159,86.397,507.362
	"/>
<path id="path103" fill="#FFFFFF" stroke="#FFFFFF" d="M94.496,536.722c0.937,8.914-5.674,15.461-11.475,21.273
	c-3.501,3.492-3.802,8.201-6.412,11.809c-2.325,3.216-6.766,5.835-9.784,8.431c2.568-11.969,9.348-27.039,7.586-39.353
	c-1.089-7.628-0.889-9.052,4.055-14.979c3.935-4.732,8.553-8.34,14.344-10.453C95.049,520.525,97.204,529.898,94.496,536.722"/>
<path id="path105" fill="#FFC35A" d="M476.188,525.58l0.345,4.066c-3.722-2.021-7.421-4.066-11.143-6.088
	C468.905,519.929,480.23,517.746,476.188,525.58"/>
<path id="path107" fill="#FFFFFF" stroke="#FFFFFF" d="M154.23,534.034c0.462,14.841-16.435,13.324-22.948,23.111
	c-1.831,2.757-10.96,4.364-6.074,9.947c5.029-6.64,12.298-9.672,19.573-13.164c4.383,17.644-10.521,32.783-9.536,50.403
	c0.903,16.15,15.606,34.758,22.7,48.818c-2.426-19.344-14.836-35.058-17.887-54.148c-2.162-13.554,4.638-18.126,9.451-29.198
	c1.645-3.791,0.025-7.65,4.045-11.143c6.589,12.222,15.512,24.742,17.389,38.779c0.914,6.846-2.973,20.399-10.299,24.328
	c-0.621-1.999-3.619-5.376-5.063-2.366c-1.429,2.986,5.537,12.819,7.425,14.52c2.75,2.48,6.049,2.319,8.773,6.064
	c3.812,5.261,3.49,21.985-2.699,25.316c4.011,4.525,9.095,1.057,8.773,10.131c-6.302-0.437-19.01-9.051-22.272-14.519
	c-0.459-0.759-0.854-5.928-1.686-7.742c-0.779-1.7-3.456-5.789-4.386-7.099c-2.711-3.791-6.625-7.604-9.789-11.142
	c-1.914-2.137-5.603-8.271-7.928-10.108c-6.302-5.055-14.682-5.468-14.682-15.393c0-13.554,1.174-27.131,2.858-40.547
	c0.926-7.397,1.783-14.772,3.007-22.123c0.753-4.503-0.172-14.703,2.238-18.471C132.148,517.471,150.851,526.706,154.23,534.034"/>
<path id="path109" fill="#FFFFFF" stroke="#FFFFFF" d="M189.667,530.657c-2.576-2.045-5.535-4.802-5.739-8.432
	C188.336,522.594,188.828,528.016,189.667,530.657"/>
<path id="path111" fill="#FFFFFF" stroke="#FFFFFF" d="M179.54,552.252c4.726,6.064,6.837,13.83,11.475,19.918
	c-5.628,2.94-5.583,6.386-7.089,11.808c-0.65,2.344-0.453,4.549-1.686,6.754c-1.323,2.366-4.321,1.126-6.074,5.744
	c-1.92-7.535-4.399-14.496-7.186-21.733c-2.245-5.835-2.901-18.057-6.648-21.801c-3.749-3.768-10.412-0.414-5.906-7.949
	c2.601-4.342,8.438-6.731,12.658-9.281C171.807,541.776,174.862,549.334,179.54,552.252"/>
<path id="path113" fill="#FFFFFF" stroke="#FFFFFF" d="M414.436,537.732c2.825,1.264,1.493,8.408,0.321,10.132
	C414.757,544.625,414.849,540.375,414.436,537.732"/>
<path id="path115" fill="#FFFFFF" stroke="#FFFFFF" d="M218.69,580.256c-4.964-4.801-9.143-11.233-9.453-18.218
	C212.759,566.357,224.202,574.191,218.69,580.256"/>
<path id="path117" fill="#FFFFFF" stroke="#FFFFFF" d="M149.167,608.605c-1.463-3.378-2.924-6.755-4.388-10.108
	C146.78,601.759,149.907,605.228,149.167,608.605"/>
<path id="path119" fill="#FFFFFF" stroke="#FFFFFF" d="M269.659,622.779c-9.97-1.103-22.651-10.246-24.995-20.239
	C252.36,603.734,265.202,617.519,269.659,622.779"/>
<path id="path121" fill="#FFFFFF" stroke="#FFFFFF" d="M167.394,625.49l-1.689,3.377
	C165.815,628.706,167.706,624.824,167.394,625.49"/>
<path id="path123" fill="#FFFFFF" stroke="#FFFFFF" d="M327.022,648.44c-6.363-1.471-14.702-0.827-19.573-5.743
	C314.479,643.869,321.762,644.765,327.022,648.44"/>
</svg>
