<?xml version="1.0" encoding="utf-8"?>
<!-- Generator: Adobe Illustrator 23.0.1, SVG Export Plug-In . SVG Version: 6.00 Build 0)  -->
<svg version="1.1" id="Layer_1" xmlns="http://www.w3.org/2000/svg" xmlns:xlink="http://www.w3.org/1999/xlink" x="0px" y="0px"
	 viewBox="0 0 506 492" style="enable-background:new 0 0 506 492;" xml:space="preserve">
<style type="text/css">
	.st0{fill:#FFFFFF;}
	.st1{fill:#D89F3A;}
</style>
<g>
	<path class="st0" d="M203.8,96.8l-0.5,2.3c0.1,0.1,0.2,0.2,0.3,0.3L203.8,96.8z M185.8,45.2c0.3,0,0.5-0.1,0.8-0.3
		c0-0.2,0.1-0.5,0.1-0.7c0.2-2.4-0.7-4.5-1.8-4.5c-0.3,0-0.5,0.1-0.8,0.3c0,0.2-0.1,0.5-0.1,0.7C183.9,43.1,184.7,45.1,185.8,45.2
		 M215.3,106.8c3.4,1.3,7.2,2.1,11.2,2.4l-7.4-18.8l0,0c-1.1,0-2.2-0.2-3.2-0.4c-3.2-0.7-6.3-1.6-9.4-2.6L204,99.6
		C207.4,102.6,211.2,105.2,215.3,106.8 M220.5,87.1c-1.2,0-2.2-0.2-3.2-0.4c-3.5-0.7-6.8-1.7-10.1-2.9l-0.2,0.9
		c3.1,0.9,6.3,1.8,9.4,2.4c0.9,0.2,1.9,0.3,2.7,0.4c0.4,0,0.7,0,1.2-0.1l0.3-0.1L220.5,87.1L220.5,87.1 M235.5,84
		c-2,0.5-3.9,1-5.9,1.4c-2,0.4-3.9,0.9-5.9,1.2l-0.4,0.1l0.1,0.2l4.3-0.8l5.9-1.1l0.7-0.1l0.2-0.1l0.3-0.1c0.4-0.2,0.8-0.4,1.2-0.6
		l-0.2-0.2L235.5,84z M172.4,40.6c0.9,0.6,2.5-0.4,3.7-2.1c0.2-1,0-1.7-0.5-2.1c-0.9-0.6-2.5,0.4-3.7,2.1
		C171.7,39.5,171.9,40.3,172.4,40.6 M177.3,33.4L177.3,33.4L177.3,33.4L177.3,33.4 M441.6,202.9c0.6,0.3,1.1,0.7,1.7,1.1l0.2-0.2
		c-0.6-0.5-1.3-0.9-2-1.3c0,0.1-0.1,0.2-0.1,0.3L441.6,202.9 M238.5,82.6l-0.2,0.1l0,0.1L238.5,82.6c1.7-0.9,3.5-1.9,5.2-2.9
		c1-0.5,2-1.1,2.9-1.6c-0.4-0.2-0.8-0.4-1.2-0.6c-1.5,1.1-2.9,2.3-4.5,3.4C240.2,81.4,239.4,82,238.5,82.6 M237.2,85.8l-0.2,0.1
		l-0.2,0.1l13.9,20.1c0.9-0.3,1.9-0.7,2.7-1.1L237.2,85.8z M200.6,79.7c-1.6-1.2-3.1-2.3-4.7-3.5c-1.2-0.9-2.4-1.8-3.5-2.7
		c-0.2,0.8-0.4,1.6-0.6,2.5c1.2,0.7,2.4,1.4,3.6,2.2c1.7,1,3.3,2.1,5,3.1c1.4,0.9,2.8,1.8,4.1,2.7l0.1-1.2
		C203.3,81.7,201.9,80.7,200.6,79.7 M187.1,37.7L187.1,37.7l-0.4-0.2c0.6,0.9,1.1,1.8,1.5,2.9c0-1.3-0.2-2.4-0.7-3.1
		c-0.1,0.1-0.2,0.2-0.3,0.3L187.1,37.7 M196.9,74.8c1.7,1,3.3,2.1,5,3.1c1.6,1,3.2,2,4.8,3c3.7,1.1,7.5,2.3,11.2,3
		c0.9,0.2,1.9,0.3,2.7,0.4c0.4,0,0.7,0,1.2-0.1l1.5-0.3l5.9-1l5.9-1.1l0.7-0.1l0.2-0.1l0.3-0.1c0.4-0.2,0.8-0.4,1.2-0.7l2.6-1.5
		c1.4-0.8,2.8-1.6,4.2-2.5c-16.9-7.5-39.4-8.9-51.4-7.7c0,1-0.1,2-0.2,3C194.1,73.1,195.5,73.9,196.9,74.8 M175.8,33.2L175.8,33.2
		c-0.5,0.1-1,0.4-1.5,0.9c0.5-0.2,1-0.4,1.6-0.5C175.9,33.5,175.9,33.4,175.8,33.2 M222.2,91.3l5,18c0.7,0.1,1.4,0.1,2.2,0.1
		L222.2,91.3z M186.2,36.5l0.1-0.1l0,0c-0.2,0-0.4,0-0.6,0.1l0.2,0.2C186.1,36.6,186.2,36.6,186.2,36.5 M433.9,193.7
		c0.7-0.5,0.4-2.1-0.6-3.6c-1-1.5-2.4-2.3-3.1-1.9c-0.4,0.3-0.5,0.9-0.3,1.6C431.5,190.6,432.9,191.9,433.9,193.7 M262.9,98l0.2-0.2
		c0.7-3.2-0.4-6.6-3.4-10.1c-3.2-3.8-7.5-6.9-12.4-9.4c-2.6,1.9-5.1,3.9-7.7,5.8l-0.2,0.1l14.3,20.7
		C257.7,103.1,260.9,100.8,262.9,98 M250.3,106.3l-16.1-19l-0.2,0.1c-2,0.5-3.9,1-5.9,1.4c-1.3,0.3-2.7,0.6-4.1,0.9l5.4,19.8
		C236.7,109.6,244.1,108.5,250.3,106.3 M202.4,98.2l0.7-12.2c-1.3-1-2.7-1.9-4-2.9c-1.6-1.2-3.1-2.3-4.7-3.5c-1-0.8-2-1.6-3-2.3
		c-0.4,1.2-0.9,2.3-1.5,3.4c-0.1,0.4-0.3,0.8-0.5,1.2C192.3,86.4,196.8,92.8,202.4,98.2 M456,278.2c0.8-0.3,1.5-0.9,2.1-1.8
		c0.5-1.6,0.8-3.5,0.9-5.6c-1,1.2-2.3,2.3-3.7,3.2l0.2,2.8l-1.5-2.2c-0.1,0.1-0.2,0.1-0.4,0.2l0.2,3.5
		C454.7,278.4,455.4,278.4,456,278.2 M396.8,227.3c-1.5-0.3-2.9-0.6-4.4-0.9c-1.5-0.3-2.9-0.7-4.4-1.1l-0.1,0l-1.4,1.6l0.4,0.1
		l4.3,0.8l4.4,0.8l1,0.2l0.4-1.4L396.8,227.3z M386.7,223c0.3,0.2,0.6,0.4,0.9,0.5l0.2,0.1l0.2,0l0.5,0.1l4.3,0.8l4.4,0.8l1.1,0.2
		c0.4,0.1,0.6,0.1,0.9,0.1c0.6,0,1.3-0.1,2-0.3c2.8-0.5,5.6-1.4,8.4-2.2c2.4-1.5,4.8-3.1,7.2-4.5c0-0.9,0-1.9,0.1-2.8
		c-8.3-0.8-23,0-35,4.4c0.9,0.5,1.8,1.1,2.8,1.6L386.7,223z M385.9,224.2c-0.6-0.4-1.2-0.9-1.8-1.3c-1-0.8-2.1-1.5-3.1-2.3
		c-1.1,0.4-2.2,0.9-3.2,1.4c1.9,1,3.7,2.1,5.5,3.2l1.5,0.9l1.2-1.7L385.9,224.2 M401.6,227.4c-0.8,0.1-1.5,0.3-2.4,0.3h0l-0.4,1.1
		c0.3,0,0.6-0.1,1-0.2c2.8-0.5,5.6-1.4,8.4-2.2c0.4-0.2,0.8-0.5,1.1-0.7l-0.1-0.4C406.7,226.1,404.2,226.9,401.6,227.4 M423.6,197.1
		L423.6,197.1c-0.2-1.7-0.9-3-1.6-3.2l0,0.1C422.2,195.6,422.8,196.9,423.6,197.1 M381,189.3l13.2-22.8l-14.6-25.3h-29.7l-13.1,22.7
		l14.7,25.5H381z M411.1,224.5c1.4-0.9,2.8-1.8,4.3-2.6c0.6-0.3,1.1-0.7,1.7-1c0-0.3-0.1-0.5-0.1-0.8c-1.9,1.5-3.9,2.9-5.8,4.3
		L411.1,224.5z M392,243.7l3.6-13l-0.3-0.1c-1.5-0.3-2.9-0.6-4.4-0.9c-1.5-0.3-2.9-0.7-4.4-1.1l-0.1,0L376,240.9
		C380.7,242.8,386.4,243.8,392,243.7 M375.5,240.7l2.9-4.1l-3.4,3.9C375.2,240.5,375.3,240.6,375.5,240.7 M368.2,235.3
		c1.4,2,3.8,3.7,6.7,5l9.2-13.1c-0.5-0.3-1-0.7-1.4-1c-1.8-1.3-3.5-2.7-5.3-4c-3.7,1.8-6.9,4.1-9.3,6.9c-0.4,0.4-0.7,0.9-1,1.3
		C366.7,232.1,367,233.8,368.2,235.3 M463.6,209.6c-0.4,0.1-0.7,0.3-1.1,0.4l3.2,6.5c0.9,0.1,1.9,0.3,2.8,0.3L463.6,209.6z
		 M464.2,207.2c1.6-0.6,3.1-1.3,4.6-2c0.6-0.3,1.3-0.7,1.8-1l0.2-0.2c-2.2,1.1-4.5,1.9-6.8,2.7L464.2,207.2z M446.2,206.6
		c0.1,0.1,0.2,0.3,0.3,0.4C446.5,206.8,446.4,206.7,446.2,206.6L446.2,206.6 M298.3,170.5l-13.2,22.8l14.6,25.3h29.7l13.1-22.7
		l-14.7-25.5H298.3z M479,216c1.9-0.6,3.9-1.4,5.8-2.5l-12.9-7.7l0,0c-0.7,0.5-1.4,0.9-2.1,1.2c-1.5,0.7-3.1,1.4-4.6,2l3.9,7.8
		C472.4,217.2,475.8,217,479,216 M481.8,191.7l-0.1,0.2l18.6,5.9c0.6-1.7,0.8-3.3,0.8-4.7c-0.1-3.6-2.4-5.8-6.9-6.7
		c-3.4-0.7-7.2-0.6-11,0.1c-0.3,1.1-0.6,2.1-0.9,3.2C482.3,190.3,482.1,191,481.8,191.7 M453.8,206c2.8-0.3,5.7-0.6,8.5-0.8
		c2.7-1,5.4-2.1,8-3.4c0.6-0.3,1.3-0.7,1.8-1c0.3-0.2,0.4-0.3,0.7-0.6l0.7-0.8l3-3.3l3-3.3l0.3-0.4l0,0c0.8-1.9,1.5-3.9,2.4-5.8
		c-12.8,2.6-26.4,11.4-33.6,17.7c0.5,0.7,1,1.4,1.5,2.1C451.3,206.3,452.6,206.2,453.8,206 M480.8,193.8l-0.1,0.1l0,0
		c-0.1,0.4-0.2,0.7-0.3,1.1l-0.1,0.2l18.2,5.7c0.7-1,1.3-2,1.8-3L480.8,193.8z M474.4,203.2c-0.3,0.3-0.5,0.7-0.8,1l-0.2,0.3
		l11.9,8.9c1-0.6,2-1.2,3-1.9L474.4,203.2z M460.8,208.6c0.5-0.2,1.1-0.4,1.6-0.6l-0.5-0.8c-2.7,0.1-5.4,0.1-8,0.2
		c-1.1,0-2.2,0-3.3,0c0.4,0.7,0.7,1.4,0.9,2.1c0.3,0,0.6-0.1,0.8-0.1C455.2,209.1,458,208.8,460.8,208.6 M498.4,201.2l-19-4.1
		l-0.1,0.1c-0.9,1.2-1.9,2.4-2.8,3.5c-0.3,0.3-0.5,0.6-0.8,1l12.7,9.5C492.3,208.5,495.8,204.9,498.4,201.2 M111.6,37.6
		c0.2,0.4,0.4,0.9,0.6,1.3l0.1,0.2l0.2,0.2l0.5,0.5l4,4.4l4,4.4l1,1.1c0.3,0.4,0.6,0.5,0.9,0.8c0.7,0.5,1.6,0.9,2.4,1.4
		c3.4,1.7,7.1,3.2,10.7,4.6c1.9,0.2,3.7,0.3,5.6,0.5c1.9,0.2,3.9,0.4,5.8,0.6c0.9,0.1,1.7,0.2,2.6,0.3c0.7-1.2,1.5-2.4,2.3-3.4
		c-9-8.2-26.5-20-43.5-24.4c0.6,1.5,1.2,3.1,1.8,4.6L111.6,37.6z M448.6,234.8c0.2-1.1,0.2-2.2-0.2-3.3c-0.1-0.2-0.1-0.4-0.2-0.6
		l-1.9,0.6c-1.2,1.3-2.7,2.3-4.3,3.2l0.2,2.5l-1.3-2c-0.2,0.1-0.3,0.2-0.5,0.2l0.3,4c0.7-0.1,1.4-0.3,2.1-0.5
		C445.2,238.1,447.3,236.6,448.6,234.8 M434.9,239c1.6,0.6,3.3,0.8,5.1,0.6l-2.2-3.4c-1.1,0.2-2.1,0.3-3.2,0.3
		c-0.8,0-1.6-0.1-2.5-0.2l-0.6,0.2C432.3,237.6,433.5,238.4,434.9,239 M431.4,226.5c0.4,0.5,1.1,0.6,1.7,0.3
		c0.5-0.4,0.6-1.1,0.3-1.7c-0.4-0.5-1.1-0.6-1.7-0.3C431.2,225.2,431,225.9,431.4,226.5 M437.6,224.5c0.4,0.5,1.1,0.6,1.7,0.3
		c0.5-0.4,0.6-1.1,0.3-1.7c-0.4-0.5-1.1-0.6-1.7-0.3C437.4,223.2,437.2,224,437.6,224.5 M442.6,225.9c0.4,0.5,1.1,0.6,1.7,0.3
		c0.5-0.4,0.6-1.1,0.3-1.7c-0.4-0.5-1.1-0.6-1.7-0.3C442.3,224.7,442.2,225.4,442.6,225.9 M442.8,221.1c0.4,0.5,1.1,0.6,1.7,0.3
		c0.5-0.4,0.6-1.1,0.3-1.7c-0.4-0.5-1.1-0.6-1.7-0.3C442.5,219.8,442.4,220.6,442.8,221.1 M421.7,212.5c-0.1,0.5-0.1,1-0.1,1.5
		c0,1.8,0.2,3.6,0.7,5.3c0.5,1.7,1.3,3.3,2.4,4.6c-0.8-1.5-1.3-3.2-1.6-4.8c-0.3-1.7-0.2-3.3,0.1-4.9c0-0.1,0.1-0.3,0.1-0.4
		c0.1,0.8,0.3,1.5,0.5,2.2c0.5,1.7,1.3,3.3,2.4,4.6c-0.8-1.5-1.3-3.2-1.6-4.8c-0.3-1.7-0.2-3.3,0.1-4.9c0.1-0.7,0.3-1.5,0.5-2.2
		c0.2-0.4,0.5-0.7,0.7-1.1c0.1-0.1,0.2-0.3,0.3-0.4l0.2-0.2c-0.1,0.2-0.1,0.4-0.2,0.6c-0.1,0.4-0.2,0.9-0.3,1.3
		c-0.2,1.3-0.3,2.5-0.2,3.7c0,0.5,0.1,0.9,0.1,1.4c0.2,1.7,0.7,3.3,1.4,4.8c0.7,1.5,1.6,2.9,2.7,4.1c-1.7-2.7-2.6-5.9-2.4-9
		c0-0.6,0.1-1.1,0.1-1.7c0.3,1.1,0.6,2.2,1.1,3.3c0.7,1.5,1.5,2.8,2.6,4c-0.4-0.2-0.8-0.1-1.2,0.1c-0.5,0.4-0.6,1.1-0.3,1.7
		c0.4,0.5,1.1,0.6,1.7,0.3c0.5-0.4,0.6-1.1,0.3-1.7c-0.1-0.2-0.3-0.3-0.5-0.4c-1.7-2.7-2.5-5.9-2.4-8.9c0-0.9,0.1-1.8,0.3-2.6
		l0.3,0.7l6.3,14.5l-3.7-15.2l4.4,10l-0.1,0c-0.5,0.4-0.6,1.1-0.3,1.7s1.1,0.6,1.7,0.3c0.5-0.4,0.6-1.1,0.3-1.7
		c-0.3-0.4-0.8-0.6-1.3-0.4l-2.3-9.2c0.8,0.7,1.6,1.4,2.3,2.3c2,2.4,3.3,5.4,3.6,8.6c0.1-1.6,0-3.3-0.4-4.9c-0.4-1.6-1-3.2-1.9-4.7
		c-0.8-1.5-1.9-2.8-3.2-4c-0.3-0.3-0.7-0.6-1-0.9c0.7,0.2,1.3,0.4,2,0.8c0.6,0.3,1.1,0.6,1.7,0.9c0.2,0.3,0.5,0.5,0.7,0.8
		c2,2.4,3.3,5.4,3.6,8.6c0.1-1.6,0-3.3-0.4-4.9c-0.1-0.6-0.3-1.1-0.5-1.7c0.8,0.9,1.5,1.8,2,2.8c0.8,1.5,1.4,3.1,1.7,4.8
		c0-1.7-0.3-3.5-0.9-5.1c-0.6-1.7-1.5-3.2-2.6-4.6c-0.6-0.8-1.3-1.5-2-2.1c2.4,1.1,4.5,2.9,6,5.2c0.5,1.1,0.8,2.2,1,3.4
		c0-0.7-0.1-1.3-0.2-2c0.4,0.8,0.8,1.5,1.1,2.4c1.1,3.2,1.1,6.5,0.2,9.4c-1.6,2.6-3.9,4.6-6.9,5.7c0.2-0.4,0.2-0.9-0.1-1.3
		c-0.4-0.5-1.1-0.6-1.7-0.3c-0.5,0.4-0.6,1.1-0.3,1.7c0.1,0.2,0.3,0.3,0.4,0.4c-1.1,0.2-2.3,0.3-3.4,0.3l-0.1-0.2
		c-0.4-0.5-1.1-0.6-1.7-0.3c-0.1,0.1-0.2,0.2-0.2,0.3c-2.4-0.5-4.7-1.6-6.6-3.3c0.5-0.4,0.6-1.1,0.2-1.6c-0.4-0.5-1.1-0.6-1.7-0.3
		l-0.2,0.2c-1.2-1.4-2.2-3.1-2.8-5C421.5,217.4,421.4,214.9,421.7,212.5 M433.6,233.1l-0.5,0.2c1,0.1,2,0.1,3,0l0,0
		C435.2,233.3,434.4,233.2,433.6,233.1 M456.4,262.9c0.3-1.5,0.3-3.1-0.3-4.6c-0.1-0.3-0.3-0.7-0.4-1c-1.3,1.6-2.9,2.9-4.8,3.9
		l0.2,2.5l-1.3-1.9c-0.2,0.1-0.3,0.2-0.5,0.3l0.3,4.7c0.8-0.1,1.6-0.2,2.4-0.5C453.8,265.6,455.4,264.4,456.4,262.9 M464.4,216.3
		l-4-5.9c-2.7,0.1-5.4,0.1-8,0.2c-0.2,0-0.4,0-0.5,0c0.2,0.8,0.4,1.5,0.5,2.3C455.4,214.1,459.8,215.5,464.4,216.3 M451.1,275.6
		c-0.5,0.1-1,0.2-1.6,0.3c1,0.8,2,1.4,3,1.8L451.1,275.6z M277.5,248.6l13.2-22.8L276,200.5h-29.7l-13.1,22.7l14.7,25.5H277.5z
		 M445.1,265.8c1.4,0.7,2.8,1,4.3,0.9l-2.6-3.8c-1.5,0.4-2.9,0.6-4.4,0.6c-0.1,0-0.2,0-0.4,0C442.9,264.4,443.9,265.3,445.1,265.8
		 M409.7,227.7L409.7,227.7l0.5,9.8c0.4-0.3,0.8-0.7,1.2-1L409.7,227.7z M149.3,317.3c0.6,0.1,1.3-0.3,1.8-1
		c0.1-0.4,0.2-0.9,0.2-1.4c0.4-3.3-0.5-6.2-2.1-6.3c-0.6-0.1-1.3,0.3-1.8,1c-0.1,0.4-0.2,0.9-0.2,1.4
		C146.8,314.3,147.7,317.1,149.3,317.3 M226,218.6l13.2-22.8l-14.6-25.3h-29.7l0,0.1c0.4,0.6,0.8,1.2,1.2,1.8
		c-0.4-0.6-0.9-1.1-1.3-1.7l-13,22.6l14.6,25.3H226z M277.8,188.9l13.2-22.8l-14.6-25.3h-29.7l-13.2,22.8l14.6,25.3H277.8z
		 M329.5,159.3l13.2-22.8l-14.6-25.3h-29.7l-13.2,22.8l14.6,25.3H329.5z M174.3,248.3l13.2-22.8l-14.6-25.3h-29.7L130,222.9
		l14.6,25.3H174.3z M329.2,278.3l13.2-22.8l-14.6-25.3H298L284.9,253l14.6,25.3H329.2z M277.5,308l13.2-22.8L276,259.8h-29.7
		l-13.2,22.8l14.6,25.3H277.5z M402.9,241.8c2.4-0.9,4.6-2.3,6.6-3.9l-1.9-9.4c-2.5,0.8-4.9,1.6-7.6,2.1c-0.7,0.1-1.4,0.2-2.2,0.3
		l-5.1,12.7C396.4,243.6,399.9,243,402.9,241.8 M380.7,308.3l13.2-22.8l-14.6-25.3h-29.7l-13.1,22.7l14.7,25.5H380.7z M419.4,227.4
		c-0.6-1-1.1-2.1-1.5-3.3c-0.2-0.7-0.4-1.4-0.6-2.1c-0.4,0.3-0.8,0.6-1.2,0.9c-1.6,1.2-3.2,2.4-4.9,3.6l0.5,9.6
		C414.8,233.4,417.3,230.3,419.4,227.4 M226,278l13.1-22.7l-14.7-25.5h-29.6l-13.2,22.8l14.6,25.3H226z M329.2,337.7l13.1-22.7
		l-14.7-25.5H298l-13.2,22.8l14.6,25.3H329.2z M439.6,253.1c2.5,1.1,5.3,1.2,8,0.3c2.4-0.8,4.4-2.3,5.6-4.2c0.4-1.6,0.3-3.3-0.2-4.9
		c-0.2-0.5-0.3-0.9-0.6-1.3l-1,0.3c-1.4,1.6-3.2,3-5.3,4.1l0.2,2.4l-1.2-1.9c-0.2,0.1-0.4,0.2-0.6,0.3l0.3,4.9l-2.7-4.1
		c-1.7,0.4-3.3,0.7-5,0.7c-0.6,0-1.1,0-1.7-0.1C436.5,251.2,437.9,252.4,439.6,253.1 M151.3,120.2c6.4,2.2,13.1,0,16.3-5
		c0.1-0.4,0.2-0.7,0.2-1.1l-1.3-0.4c-1.5,0.3-3,0.4-4.6,0.4c-2.3,0-4.6-0.3-6.8-0.9l-3.7,5.5l0.5-6.6c-3.7-1.5-6.9-3.8-9.3-6.6
		l-1-0.4C140.6,111.3,144.6,117.8,151.3,120.2 M159.4,132.6c0.1-0.2,0.1-0.4,0.2-0.6c-1.5,0.3-3.1,0.5-4.8,0.5c-2,0-4-0.3-6-0.8
		l-3.7,5.5c0.1,0,0.2,0.1,0.3,0.1C150.8,139.2,156.5,137.1,159.4,132.6 M138.5,131.3c1.4,2.8,3.7,4.9,6.7,6l0.5-6.7
		c-3.3-1.4-6.1-3.5-8.3-6C137.1,126.9,137.4,129.2,138.5,131.3 M139.2,153l0.4-5.4c-1.9-0.8-3.6-2-5.1-3.3
		C135.4,148.8,137,151.8,139.2,153 M168.6,100.8c1.9-0.7,3.4-1.8,4.5-3.2l-2.4-0.8c-1.1,0.2-2.1,0.2-3.2,0.2c-2.1,0-4.2-0.3-6.3-1
		l-3.1,4.7l0,0C161.6,102,165.4,102,168.6,100.8 M157.4,100.5l0.4-5.8c-2.3-1.1-4.4-2.7-6.1-4.5l-3.7-1.3
		C148.1,93.6,151.8,98.3,157.4,100.5 M48.7,301c0.2,0.6,0.4,1.3,0.7,1.8c0.1,0.1,0.1,0.3,0.2,0.3l0.2,0.3l0.6,0.8l5,6.4l5.1,6.4
		l1.3,1.6c0.4,0.5,0.7,0.8,1.2,1.2c0.9,0.7,2,1.4,3.1,2.1c4.5,2.6,9.4,4.9,14.2,7.1c2.5,0.4,5.1,0.7,7.6,1.2
		c2.6,0.4,5.3,0.8,7.9,1.3c1.2,0.2,2.3,0.4,3.5,0.6c1.2-1.9,2.6-3.7,4.1-5.3c-11.8-12.1-35.3-30-58.5-37.1c0.9,2.5,1.7,5.1,2.5,7.6
		L48.7,301z M47.9,306.1c0.1,0.1,0.1,0.3,0.2,0.3l0.2,0.3l0.6,0.8l0.1,0.1C48.6,307.1,48.3,306.6,47.9,306.1L47.9,306.1 M131.3,310
		c1.3,0.9,3.9-0.6,5.8-3.3c0.1-0.1,0.2-0.3,0.3-0.4c0.3-1.3,0.1-2.4-0.5-2.9c-1.3-0.9-3.9,0.6-5.8,3.3c-0.1,0.1-0.2,0.3-0.3,0.4
		C130.5,308.5,130.7,309.5,131.3,310 M151.7,73.5c0,0.9,0.8,1.7,1.7,1.7s1.7-0.8,1.7-1.7c0-0.9-0.8-1.7-1.7-1.7
		S151.7,72.6,151.7,73.5 M158.7,79c0,0.9,0.8,1.7,1.7,1.7c0.9,0,1.7-0.8,1.7-1.7c0-0.9-0.8-1.7-1.7-1.7
		C159.5,77.3,158.7,78.1,158.7,79 M161.3,71.9c0,0.9,0.8,1.7,1.7,1.7s1.7-0.8,1.7-1.7s-0.8-1.7-1.7-1.7S161.3,71,161.3,71.9
		 M167.5,82c0,0.9,0.8,1.7,1.7,1.7c0.9,0,1.7-0.8,1.7-1.7s-0.8-1.7-1.7-1.7C168.2,80.3,167.5,81.1,167.5,82 M170,75.2
		c0,0.9,0.8,1.7,1.7,1.7s1.7-0.8,1.7-1.7c0-0.9-0.8-1.7-1.7-1.7S170,74.3,170,75.2 M176.2,82.5c0,0.9,0.8,1.7,1.7,1.7
		c0.9,0,1.7-0.8,1.7-1.7s-0.8-1.7-1.7-1.7C177,80.7,176.2,81.5,176.2,82.5 M152.1,63.6L152.1,63.6c1.4-2.6,3.4-4.8,5.6-6.5
		c-0.4,0.7-0.7,1.4-1,2.2c-0.1,0.1-0.1,0.3-0.1,0.5c-0.5,0.9-1,1.9-1.3,2.9c-0.8,2.2-1.3,4.6-1.3,6.9c0.3-1.8,0.8-3.4,1.6-5
		c-0.1,0.6-0.1,1.1-0.1,1.7c0.2-1.1,0.5-2.1,0.8-3.1c1.1-2,2.5-3.7,4.2-5.2c1.6-1.5,3.5-2.7,5.4-3.7c0.3-0.2,0.6-0.3,1-0.4
		c-0.7,0.9-1.4,1.9-1.9,2.9c-0.7,1.3-1.4,2.6-1.9,4c-0.9,1.8-1.7,3.6-2.1,5.5c-0.5,2.2-0.7,4.4-0.5,6.6c0.2-2.1,0.7-4.1,1.5-6
		c0,0.9,0,1.8,0,2.7c0.2-1.7,0.5-3.3,1-4.9c0.7-1.2,1.4-2.3,2.3-3.4c1.3-1.6,2.9-3,4.5-4.1c0.8-0.5,1.6-0.9,2.4-1.2l-5.5,22l1.5-3.3
		l0,0l7.7-17.3c0.4,0.7,0.8,1.4,1,2.2c0.6,1.9,1,3.9,1,6c0.1,2.1-0.1,4.2-0.7,6.2c-0.1,0.5-0.3,0.9-0.4,1.3
		c-0.2,0.4-0.5,0.8-0.7,1.2c0.2-0.2,0.3-0.4,0.5-0.6c-0.5,1.3-1.2,2.6-1.9,3.9c1.5-1.6,2.7-3.5,3.6-5.5c0.3-0.6,0.5-1.3,0.8-1.9
		c0.3-0.5,0.5-0.9,0.7-1.4c0.9-2,1.5-4.2,1.9-6.5c0.1-0.5,0.1-1.1,0.2-1.6c0.6,1.5,1.1,3.2,1.4,4.9c0.4,2.2,0.5,4.4,0.1,6.7
		c-0.3,2.2-1.1,4.4-2.1,6.5c1.3-1.7,2.3-3.7,3-5.8c0.7-1.2,1.2-2.4,1.6-3.8c0.3-0.8,0.5-1.7,0.6-2.5c1.1,3.9,1.1,8.1-0.3,12.3
		c-2.4,4.4-6.2,7.6-10.6,9.3c0-0.1,0-0.2,0-0.4c0-0.9-0.8-1.7-1.7-1.7c-0.9,0-1.7,0.8-1.7,1.7c0,0.5,0.2,0.9,0.5,1.2
		c-1.7,0.3-3.4,0.4-5.1,0.2c0.2-0.3,0.3-0.6,0.3-1c0-0.9-0.8-1.7-1.7-1.7c-0.9,0-1.7,0.8-1.7,1.7c0,0.1,0,0.3,0.1,0.4
		c-0.3-0.1-0.7-0.2-1-0.3c-1.1-0.4-2.1-0.9-3.1-1.4c0.1-0.2,0.2-0.5,0.2-0.8c0-0.9-0.8-1.7-1.7-1.7c-0.5,0-0.9,0.2-1.3,0.6
		c-1.4-1.2-2.6-2.6-3.5-4.2c0.3-0.3,0.4-0.7,0.4-1.1c0-0.9-0.8-1.7-1.7-1.7l-0.1,0C150.7,73.6,150.5,68.5,152.1,63.6 M146.6,65.5
		c0.3-0.9,0.7-1.8,1.1-2.7c-0.6,0-1.3,0-1.9,0c-2,0-3.9-0.1-5.9-0.1c-1.6,0-3.3-0.1-4.9-0.2l-7.1,10.4c6.5-0.6,12.9-2.2,17.9-3.9
		C145.9,67.8,146.2,66.6,146.6,65.5 M147.2,59.4c-2,0-3.9-0.1-5.9-0.1c-1.6,0-3.3-0.1-4.9-0.2l-0.6,0.9c1.4,0.1,2.8,0.2,4.2,0.4
		c1.9,0.2,3.9,0.4,5.8,0.6c0.8,0.1,1.7,0.2,2.5,0.3c0.2-0.6,0.5-1.3,0.8-1.9C148.5,59.4,147.9,59.4,147.2,59.4 M150,149.3
		c-0.7,0.1-1.4,0.1-2.1,0.1c-1.6,0-3.2-0.2-4.8-0.6l-3,4.5C142.6,154.2,146.1,152.7,150,149.3 M123.8,54.6c-0.9-0.5-1.8-1-2.8-1.7
		l0,0l-0.6,0.3c0.3,0.3,0.5,0.5,0.8,0.7c0.7,0.5,1.6,0.9,2.4,1.4c3,1.5,6.3,2.8,9.5,4.1l0.4-0.9C130.3,57.4,127.1,56.2,123.8,54.6
		 M118.8,50.6c-1.3-1.5-2.6-3.1-3.9-4.6c-1.3-1.6-2.5-3.1-3.7-4.7l-0.1-0.2l-0.8,0.2c0.1,0.3,0.3,0.7,0.4,0.9l0.1,0.2l0.2,0.2
		l0.5,0.5l4,4.4l3.3,3.6l0.4-0.3L118.8,50.6z M109.7,38.3c-0.3-1-0.6-1.9-0.9-2.9c-0.5-1.8-1-3.6-1.5-5.4c-0.6-0.2-1.3-0.3-1.9-0.4
		c0.5,1,0.9,2.1,1.3,3.1c0.8,1.9,1.5,3.7,2.2,5.6l0.2,0.6l0.5-0.2L109.7,38.3 M85.4,49l22.9-7.1l-0.1-0.2l-24.2,5.1
		C84.5,47.5,84.9,48.2,85.4,49 M84,46.5l23.5-7.3c-0.1-0.2-0.1-0.4-0.2-0.5c-0.9-3.1-1.6-6.2-2.5-9.3c-5.4-1-10.7-1.3-15.6-0.2
		c-3.8,0.8-6.5,2.3-8.1,4.5c-0.1,0.6-0.2,1.2-0.2,1.8C80.8,38.8,82,42.6,84,46.5 M43.4,289.1c-0.5-0.1-1-0.3-1.5-0.4
		c0.5,1.3,1,2.7,1.5,4c0.7,1.9,1.3,3.8,1.9,5.7c0-0.2-0.1-0.4-0.1-0.6C44.5,294.9,44,292,43.4,289.1 M126.4,73l5.5-11.1
		c-3.3-1.1-6.5-2.4-9.6-3.9c-0.9-0.5-1.8-1-2.8-1.7l0,0l-17.3,10.2c3.5,2.3,7.2,4.2,10.8,5.3C117.3,72.9,121.9,73.2,126.4,73
		 M101.8,66l11.2-8.4l-12.6,7.4C100.9,65.4,101.3,65.7,101.8,66 M100.2,64.9l16.2-12c-1-1.2-2-2.4-3-3.6c-1.3-1.6-2.5-3.1-3.7-4.7
		l-0.1-0.2l-23.9,5C89.2,55.1,94.4,60.6,100.2,64.9 M226.3,367.8c1.3-0.6,2.6-1.3,3.9-1.8c-0.4-0.2-0.8-0.4-1.2-0.6
		c-2.2,1.5-4.4,3-6.7,4.5C223.6,369.1,224.9,368.4,226.3,367.8 M249.9,395.2c0.4-0.5,0.7-1,1-1.4c1.1-4.2-0.1-8.7-3.9-13.7
		c-4.1-5.4-9.7-10-16.2-13.8c-3.6,2.4-7.1,4.9-10.7,7.2c-0.4,0.3-0.8,0.5-1.3,0.8l18,29.5C242.5,401.7,247,398.8,249.9,395.2
		 M198.2,392l3.4,15.8c0.6,0.1,1.2,0.1,1.9,0.2L198.2,392z M233.5,405l-20.7-27.6l-0.3,0.1c-2.7,0.6-5.4,1-8.1,1.5
		c-2.2,0.4-4.4,0.7-6.6,1l6,28C213.9,408.9,224.6,407.8,233.5,405 M121.4,391.7c3.1-1,5.6-2.7,7.2-5.1l-3.2-1.3
		c-0.9,0.1-1.8,0.1-2.7,0.1c-3.5,0-6.9-0.6-10.3-1.8l-5.5,7.2l0,0C111.8,392.7,117,393.1,121.4,391.7 M96.2,381.3
		c2.2,4.1,6,7.4,10.7,9.4l1.2-9.2c-3.1-1.7-5.8-4-8.1-6.7l-5.4-2.2C94.1,375.4,94.6,378.4,96.2,381.3 M184.6,403.3
		c4.8,2.2,10.3,3.6,16.1,4.4l-8.9-27.2l0,0c-1.6-0.1-2.9-0.5-4.3-0.8c-4.5-1.2-8.8-2.8-13.1-4.5l-4.6,17.4
		C174.2,397,179.2,400.8,184.6,403.3 M162,358.5c2.2,1.5,4.4,3.1,6.5,4.6c2.1,1.5,4.2,3,6.2,4.5c5,1.8,10.1,3.7,15.1,5
		c1.3,0.3,2.5,0.6,3.7,0.7c0.6,0,1,0.1,1.7,0l2-0.2l8.1-1l8.1-1l1-0.1l0.3-0.1c0.1,0,0.2-0.1,0.4-0.1c0.5-0.2,1.2-0.5,1.7-0.8
		l3.6-1.8c2.4-1.2,4.7-2.4,7.1-3.6c-22.7-11.9-54.3-15.5-70.6-14.7c-0.1,1.6-0.3,3.2-0.6,4.8C158.3,355.9,160.2,357.2,162,358.5
		 M153.2,363.8c-0.1,0.2-0.2,0.5-0.3,0.7c-0.4,1-0.9,2-1.4,2.9c3.6,6.6,9.3,15.9,16.7,23.7l2.1-18c-1.7-1.4-3.5-2.8-5.2-4.3
		c-2.1-1.7-4.1-3.4-6.1-5.2c-1.4-1.2-2.8-2.5-4.2-3.7c-0.1,0.4-0.3,0.8-0.5,1.2C154.1,362.1,153.7,362.9,153.2,363.8 M139.9,366.3
		c0-1.2-1-2.2-2.2-2.2c-1.2,0-2.2,1-2.2,2.2c0,1.2,1,2.2,2.2,2.2C138.9,368.5,139.9,367.5,139.9,366.3 M131.8,357
		c0-1.2-1-2.2-2.2-2.2c-1.2,0-2.2,1-2.2,2.2c0,1.2,1,2.2,2.2,2.2C130.8,359.2,131.8,358.2,131.8,357 M128.6,365.8
		c0-1.2-1-2.2-2.2-2.2c-1.2,0-2.2,1-2.2,2.2c0,1.2,1,2.2,2.2,2.2C127.6,368,128.6,367,128.6,365.8 M124.4,373.8c0-1.2-1-2.2-2.2-2.2
		c-1.2,0-2.2,1-2.2,2.2c0,1.2,1,2.2,2.2,2.2C123.4,376.1,124.4,375.1,124.4,373.8 M120.5,352.7c0-1.2-1-2.2-2.2-2.2
		c-1.2,0-2.2,1-2.2,2.2c0,1.2,1,2.2,2.2,2.2C119.6,354.9,120.5,353.9,120.5,352.7 M117.2,361.9c0-1.2-1-2.2-2.2-2.2s-2.2,1-2.2,2.2
		c0,1.2,1,2.2,2.2,2.2S117.2,363.1,117.2,361.9 M108.1,354.7c0-1.2-1-2.2-2.2-2.2c-1.2,0-2.2,1-2.2,2.2c0,1.2,1,2.2,2.2,2.2
		C107.2,357,108.1,356,108.1,354.7 M146.4,351.9c1.1-2.8,1.7-5.9,1.9-8.9c1.9,6,1.8,12.5-0.5,18.6c-3.1,5.8-8,10.2-13.5,12.6
		c0.1-0.2,0.1-0.5,0.1-0.8c0-1.2-1-2.2-2.2-2.2c-1.2,0-2.2,1-2.2,2.2c0,0.8,0.5,1.5,1.1,1.9c-5.2,1.5-10.7,1.3-15.9-0.8
		c-0.8-0.3-1.6-0.7-2.3-1.1c1.2,0,2.2-1,2.2-2.2c0-1.2-1-2.2-2.2-2.2c-1.2,0-2.2,1-2.2,2.2c0,0.4,0.1,0.7,0.2,1
		c-2.9-1.9-5.3-4.5-7.1-7.5c0.4,0.2,0.8,0.4,1.2,0.4c1.2,0,2.2-1,2.2-2.2c0-1.2-1-2.2-2.2-2.2c-1.2,0-2.2,1-2.2,2.2l0,0.1
		c-0.4-0.8-0.8-1.7-1.2-2.6c-2.4-6.3-2.4-13.4,0.1-19.9c2.8-5.3,7-9.3,11.9-11.9c-2.1,2.3-3.8,4.9-5,7.8c-0.2,0.5-0.4,1-0.6,1.4
		c-0.3,0.6-0.6,1.2-0.9,1.9c-1.3,3-2.1,6.1-2.3,9.3c0.4-1.7,1-3.3,1.7-4.9c-0.1,0.5-0.1,1-0.2,1.6c0.3-1.2,0.6-2.3,1.1-3.4
		c0.3-0.6,0.7-1.3,1.1-1.9c1.6-2.6,3.8-4.8,6.1-6.7c2.3-1.9,4.9-3.4,7.6-4.6c0.6-0.2,1.1-0.4,1.7-0.6c-0.9,0.9-1.7,1.9-2.5,2.9
		c-0.5,0.7-1.1,1.4-1.5,2.1c-1.3,2-2.5,4.2-3.3,6.5c-0.9,1.7-1.6,3.4-2.1,5.1c-0.9,2.9-1.3,5.9-1.2,8.9c0.3-2,0.8-4,1.6-5.9
		c-0.1,0.9-0.1,1.7-0.1,2.6c0.3-2,0.8-3.9,1.5-5.7c1.2-2.3,2.8-4.5,4.5-6.4c1.9-2.1,4.1-3.9,6.5-5.2c1.1-0.7,2.2-1.1,3.3-1.5
		l-0.6,1.9l-8.7,27.6l14.1-27.4c0.5,1,0.9,2,1.2,3.2c0.7,2.6,1,5.4,0.9,8.3c-0.1,2.8-0.5,5.7-1.5,8.4c-0.1,0.3-0.2,0.6-0.4,0.9
		c-0.6,1.2-1.4,2.4-2.2,3.5c0.4-0.4,0.9-0.9,1.3-1.3c-0.8,1.6-1.7,3.2-2.7,4.7c2.1-2.1,3.9-4.5,5.4-7.2c0.6-1.1,1.1-2.3,1.6-3.5
		c1.4-2.6,2.4-5.5,3-8.5c0.2-1.2,0.4-2.4,0.5-3.6c0.8,2.2,1.3,4.5,1.6,6.8c0.3,3,0.3,6.1-0.4,9.1c-0.3,1.3-0.7,2.5-1.1,3.8
		c-0.3,0.5-0.5,1-0.8,1.5c0.2-0.2,0.3-0.5,0.5-0.7c-0.6,1.4-1.2,2.7-2,4c2-2.4,3.7-5.2,4.9-8.2c0-0.1,0.1-0.3,0.1-0.4
		C145.6,353.9,146,352.9,146.4,351.9 M166.7,365.5c-2-1.7-4.1-3.4-6.1-5.2c-1.5-1.3-3-2.7-4.6-4c-0.2,0.7-0.4,1.3-0.6,2
		c1.7,1.1,3.4,2.3,5.1,3.5c2.2,1.5,4.4,3.1,6.5,4.6c1.6,1.1,3.2,2.3,4.8,3.5l0-0.1C170.2,368.4,168.4,366.9,166.7,365.5
		 M219.7,381.5l14.3,23.4c0.9-0.3,1.7-0.6,2.6-0.9L219.7,381.5z M93.5,455.2c-0.6,0-1.1,0.1-1.7,0.1c-2.7,0-5.5-0.4-8.1-1.2l-5.3,7
		C82,462.4,87.4,460.3,93.5,455.2 M31.3,337.2l23.9-15.7c-1.4-1.8-2.7-3.7-4.1-5.5c-1.6-2.2-3.2-4.4-4.7-6.7l-0.1-0.2l-34,5.1
		C16.6,322.4,23.4,330.7,31.3,337.2 M33,338.5l12.2-8l-13.5,7C32.1,337.8,32.5,338.2,33,338.5 M11.9,313.6l25.4-6.3l-26.5,4
		C11.2,312.1,11.5,312.9,11.9,313.6 M66.3,350.1l8.9-15.6c-4.3-1.8-8.5-3.7-12.7-6c-1.2-0.8-2.4-1.5-3.6-2.5l0,0l-25.4,13
		c4.7,3.6,9.7,6.5,14.7,8.3C53.9,349.4,60.1,350.2,66.3,350.1 M10.7,311l33.4-8.3c-0.1-0.5-0.2-1.1-0.3-1.6c-1-4.2-1.7-8.4-2.6-12.6
		c-7.3-1.9-14.5-2.6-21.2-1.6c-5.8,0.9-9.8,3-12,6.4c-0.2,0.8-0.4,1.6-0.4,2.4C7,300.3,8.2,305.6,10.7,311 M87,439.6
		c7.7,3.2,16.4,0.1,20.4-6.7c0.1-0.2,0.1-0.3,0.2-0.5c-1.5,0.2-3.1,0.4-4.7,0.4c-3.3,0-6.7-0.5-10-1.6l-5.5,7.3l1.2-9.1
		c-4.6-2.3-8.4-5.5-11.2-9.3C75,427.9,79.1,436.4,87,439.6 M96.4,416.7c4.8,2,10.1,2.1,14.8,0.4c3.8-1.4,6.8-4,8.7-7.2
		c0.1-0.4,0.2-0.8,0.3-1.2l-1.7-0.7c-1.4,0.2-2.9,0.3-4.3,0.3c-3.7,0-7.5-0.6-11.2-1.9l-5.4,7.2l1.2-8.9c-4.8-2.4-9-5.7-12.1-9.7
		l-1.7-0.7l-0.1,0.3C82,403.1,87,412.8,96.4,416.7 M77.9,460.8l1.1-8.7c-3-1.5-5.5-3.6-7.7-5.9C72.1,454,74.3,459.1,77.9,460.8
		 M95,340.7c0.4-0.9,0.8-1.7,1.2-2.5c0.1-0.3,0.2-0.5,0.3-0.8c0-0.1,0.1-0.2,0.1-0.3c-0.8-0.1-1.7-0.1-2.5-0.2
		c-2.7-0.2-5.3-0.4-8-0.6c-2.2-0.2-4.5-0.4-6.7-0.6l-11.2,14.4c9.2-0.3,18.2-2.2,25.1-4.1C93.7,344.2,94.3,342.4,95,340.7
		 M86.5,333.3c-1.9-0.3-3.8-0.6-5.6-0.9l0,0c2.2,0.2,4.5,0.4,6.7,0.6c2.7,0.2,5.3,0.4,8,0.6c0.9,0.1,1.8,0.1,2.6,0.2
		c-0.2,0.4-0.5,0.9-0.7,1.4c-1-0.2-2.1-0.4-3.1-0.6C91.7,334.1,89.1,333.7,86.5,333.3"/>
	<path class="st1" d="M442.6,225.9c-0.4-0.5-0.3-1.3,0.3-1.7c0.5-0.4,1.3-0.3,1.7,0.3c0.4,0.5,0.3,1.3-0.3,1.7
		C443.7,226.6,443,226.5,442.6,225.9 M442.8,221.1c-0.4-0.5-0.3-1.3,0.3-1.7c0.5-0.4,1.3-0.3,1.7,0.3c0.4,0.5,0.3,1.3-0.3,1.7
		C443.9,221.8,443.2,221.6,442.8,221.1 M437.6,224.5c-0.4-0.5-0.3-1.3,0.3-1.7s1.3-0.3,1.7,0.3c0.4,0.5,0.3,1.3-0.3,1.7
		C438.8,225.2,438,225,437.6,224.5 M440.4,229.3c-0.1,0.1-0.2,0.3-0.3,0.4c-0.4,0.3-0.8,0.3-1.2,0.1c-0.2-0.1-0.3-0.2-0.4-0.4
		c-0.4-0.5-0.3-1.3,0.3-1.7c0.5-0.4,1.3-0.3,1.7,0.3C440.6,228.4,440.6,228.9,440.4,229.3 M436.5,217.9c0.1-0.1,0.2-0.1,0.3-0.2
		c0.5-0.1,1,0,1.3,0.4c0.4,0.5,0.3,1.3-0.3,1.7c-0.5,0.4-1.3,0.3-1.7-0.3C435.8,219.1,435.9,218.3,436.5,217.9L436.5,217.9
		 M431.4,219.6L431.4,219.6c0.2,0.1,0.4,0.2,0.5,0.4c0.4,0.5,0.3,1.3-0.3,1.7c-0.5,0.4-1.3,0.3-1.7-0.3c-0.4-0.5-0.3-1.3,0.3-1.7
		C430.5,219.5,431,219.4,431.4,219.6 M431.4,226.5c-0.4-0.5-0.3-1.3,0.3-1.7c0.5-0.4,1.3-0.3,1.7,0.3c0.4,0.5,0.3,1.3-0.3,1.7
		C432.6,227.1,431.8,227,431.4,226.5 M429,230.3c-0.5,0.4-1.3,0.3-1.7-0.3c-0.4-0.5-0.3-1.3,0.3-1.7c0.5-0.4,1.3-0.3,1.7,0.3
		C429.6,229.2,429.5,229.9,429,230.3 M435.4,229.8l0.1,0.2c0.2,0.5,0.1,1.1-0.4,1.4c-0.5,0.4-1.3,0.3-1.7-0.3c-0.3-0.4-0.3-1,0-1.4
		c0.1-0.1,0.1-0.2,0.2-0.3C434.2,229.1,435,229.2,435.4,229.8 M426.9,226.5L426.9,226.5c-0.6,0.4-1.3,0.3-1.7-0.2
		c-0.3-0.4-0.3-1,0-1.4l0.2-0.2c0.5-0.4,1.3-0.3,1.7,0.3C427.5,225.4,427.4,226.1,426.9,226.5 M175.4,87.8c0,0.1,0,0.2,0,0.4
		c-0.2,0.8-0.8,1.4-1.7,1.4c-0.5,0-0.9-0.2-1.2-0.5c-0.3-0.3-0.5-0.7-0.5-1.2c0-0.9,0.8-1.7,1.7-1.7S175.4,86.9,175.4,87.8
		 M176.2,82.5c0-0.9,0.8-1.7,1.7-1.7c0.9,0,1.7,0.8,1.7,1.7c0,0.9-0.8,1.7-1.7,1.7C177,84.2,176.2,83.4,176.2,82.5 M167.5,82
		c0-0.9,0.8-1.7,1.7-1.7c0.9,0,1.7,0.8,1.7,1.7c0,0.9-0.8,1.7-1.7,1.7C168.2,83.7,167.5,83,167.5,82 M167.6,88.3
		c0,0.4-0.1,0.7-0.3,1c-0.3,0.4-0.8,0.7-1.4,0.7c-0.8,0-1.5-0.5-1.6-1.3c0-0.1-0.1-0.3-0.1-0.4c0-0.9,0.8-1.7,1.7-1.7
		C166.9,86.6,167.6,87.3,167.6,88.3 M169.9,75.2c0-0.9,0.8-1.7,1.7-1.7c0.9,0,1.7,0.8,1.7,1.7c0,0.9-0.8,1.7-1.7,1.7
		C170.7,76.9,169.9,76.2,169.9,75.2 M161.3,71.9c0-0.9,0.8-1.7,1.7-1.7c0.9,0,1.7,0.8,1.7,1.7c0,0.9-0.8,1.7-1.7,1.7
		C162,73.7,161.3,72.9,161.3,71.9 M158.7,79c0-0.9,0.8-1.7,1.7-1.7c0.9,0,1.7,0.8,1.7,1.7c0,0.9-0.8,1.7-1.7,1.7
		C159.5,80.8,158.7,80,158.7,79 M154.3,79.7c0,0.4-0.2,0.8-0.4,1.1c-0.3,0.4-0.8,0.6-1.3,0.6c-0.9,0-1.7-0.8-1.7-1.7
		c0-0.9,0.7-1.6,1.6-1.7l0.1,0C153.6,78,154.3,78.7,154.3,79.7 M160.4,86.1c0,0.3-0.1,0.6-0.2,0.8c-0.3,0.5-0.8,0.9-1.5,0.9
		c-0.9,0-1.7-0.8-1.7-1.7c0-0.4,0.2-0.8,0.4-1.1c0.3-0.3,0.8-0.6,1.3-0.6C159.6,84.4,160.4,85.2,160.4,86.1 M151.7,73.5
		c0-0.9,0.8-1.7,1.7-1.7c0.9,0,1.7,0.8,1.7,1.7s-0.8,1.7-1.7,1.7C152.4,75.2,151.7,74.5,151.7,73.5 M132.2,375.5
		c-0.4,0-0.8-0.1-1.1-0.3c-0.7-0.4-1.1-1.1-1.1-1.9c0-1.2,1-2.2,2.2-2.2c1.2,0,2.2,1,2.2,2.2c0,0.3-0.1,0.5-0.1,0.8
		C133.9,374.9,133.1,375.5,132.2,375.5 M139.9,366.3c0,1.2-1,2.2-2.2,2.2c-1.2,0-2.2-1-2.2-2.2c0-1.2,1-2.2,2.2-2.2
		C138.9,364.1,139.9,365.1,139.9,366.3 M128.6,365.8c0,1.2-1,2.2-2.2,2.2c-1.2,0-2.2-1-2.2-2.2c0-1.2,1-2.2,2.2-2.2
		C127.6,363.6,128.6,364.5,128.6,365.8 M124.4,373.8c0,1.2-1,2.2-2.2,2.2c-1.2,0-2.2-1-2.2-2.2c0-1.2,1-2.2,2.2-2.2
		C123.4,371.6,124.4,372.6,124.4,373.8 M131.8,357c0,1.2-1,2.2-2.2,2.2s-2.2-1-2.2-2.2c0-1.2,1-2.2,2.2-2.2S131.8,355.7,131.8,357
		 M120.5,352.7c0,1.2-1,2.2-2.2,2.2c-1.2,0-2.2-1-2.2-2.2c0-1.2,1-2.2,2.2-2.2C119.6,350.5,120.5,351.5,120.5,352.7 M117.2,361.9
		c0,1.2-1,2.2-2.2,2.2c-1.2,0-2.2-1-2.2-2.2c0-1.2,1-2.2,2.2-2.2C116.2,359.7,117.2,360.7,117.2,361.9 M102.7,362.9l0-0.1
		c0-1.2,1-2.2,2.2-2.2c1.2,0,2.2,1,2.2,2.2c0,1.2-1,2.2-2.2,2.2c-0.5,0-0.9-0.1-1.2-0.4C103.2,364.2,102.8,363.6,102.7,362.9
		 M110.8,372.1c-0.1-0.3-0.2-0.6-0.2-1c0-1.2,1-2.2,2.2-2.2c1.2,0,2.2,1,2.2,2.2c0,1.2-1,2.2-2.2,2.2l0,0
		C111.9,373.3,111.2,372.8,110.8,372.1 M108.1,354.7c0,1.2-1,2.2-2.2,2.2c-1.2,0-2.2-1-2.2-2.2c0-1.2,1-2.2,2.2-2.2
		C107.2,352.5,108.1,353.5,108.1,354.7 M450.9,216.2c-0.2-1-0.4-2-0.7-3.1c-0.3-0.9-0.7-1.7-1.1-2.6c0.9,0,1.9,0,2.8,0
		c0.2,0,0.4,0,0.5,0c2.7,0,5.4-0.1,8-0.2l6.6,9.7C460.9,219.7,454.8,217.8,450.9,216.2 M454.5,281.5c-2.5,0.8-6.1-1.3-10.1-5.7
		c1,0.2,2.1,0.3,3.1,0.3c0.7,0,1.3-0.1,2-0.1c0.5-0.1,1-0.2,1.6-0.3l2.9,4.4l-0.4-5.3c0.1-0.1,0.2-0.1,0.4-0.2
		c0.4-0.2,0.9-0.4,1.3-0.7c1.4-0.9,2.7-1.9,3.7-3.2c-0.2,2.2-0.5,4.1-0.9,5.6C457.3,279.2,456.1,280.9,454.5,281.5 M439.2,264.1
		c-0.1-0.3-0.2-0.7-0.3-1c1.1,0.2,2.1,0.3,3.2,0.4c0.1,0,0.2,0,0.4,0c1.5,0,3-0.2,4.4-0.6l2.6,3.8l0.2,0.3l0-0.3l-0.3-4.7
		c0.2-0.1,0.4-0.2,0.5-0.3c0.4-0.2,0.8-0.3,1.1-0.5c1.9-1,3.5-2.4,4.8-3.9c0.2,0.3,0.3,0.6,0.4,1c0.5,1.5,0.6,3.1,0.3,4.6
		c-0.6,3-2.8,5.6-5.9,6.6c-2.3,0.8-4.7,0.6-6.9-0.4C441.5,268.1,439.9,266.3,439.2,264.1 M433.1,251.1c-0.2-0.5-0.3-0.9-0.3-1.4
		l1-0.3c0.6,0.1,1.2,0.2,1.8,0.3c0.6,0.1,1.1,0.1,1.7,0.1c1.7,0,3.3-0.2,5-0.7l2.7,4.1l-0.3-4.9c0.2-0.1,0.4-0.2,0.6-0.3
		c0.4-0.2,0.7-0.3,1.1-0.5c2-1.1,3.8-2.5,5.3-4.1l1-0.3c0.2,0.4,0.4,0.9,0.6,1.3c0.5,1.6,0.6,3.3,0.2,4.9c-0.8,3.3-3.4,6.3-7.1,7.5
		c-2.7,0.9-5.6,0.8-8-0.3C435.7,255.4,433.9,253.5,433.1,251.1 M429.1,238.1c-0.1-0.2-0.1-0.4-0.2-0.6l2.6-0.9l0.6-0.2
		c0.8,0.1,1.6,0.2,2.5,0.2c1.1,0,2.1-0.1,3.2-0.3l2.2,3.4l0.6,1l-0.1-1l-0.3-4c0.2-0.1,0.3-0.2,0.5-0.2c0.4-0.2,0.8-0.3,1.1-0.5
		c1.6-0.8,3-1.9,4.3-3.2l1.9-0.6c0.1,0.2,0.2,0.4,0.2,0.6c0.4,1.1,0.4,2.2,0.2,3.3c-0.6,3.2-3.4,6.2-7.3,7.5c-2.7,0.9-5.5,0.9-7.9,0
		C431.2,241.5,429.7,240,429.1,238.1 M420.9,223.1c-1.5-4.3-0.9-8.8,1.1-12.4c-0.1,0.6-0.2,1.2-0.3,1.8c-0.1,0.5-0.1,1-0.1,1.5
		c0,1.8,0.2,3.6,0.7,5.3c0.5,1.7,1.3,3.3,2.4,4.6c-0.8-1.5-1.3-3.2-1.6-4.8c-0.3-1.7-0.2-3.3,0.1-5c0-0.1,0.1-0.3,0.1-0.4
		c0.3-1.5,0.8-2.9,1.4-4.2c0.2-0.3,0.3-0.6,0.5-0.9c0.2-0.4,0.5-0.7,0.7-1.1c0.1-0.1,0.2-0.3,0.3-0.4l0.2-0.2
		c-0.1,0.2-0.1,0.4-0.2,0.6c-0.1,0.4-0.2,0.9-0.3,1.3c-0.2,1.3-0.3,2.5-0.2,3.7c0,0.5,0.1,1,0.1,1.4c0.2,1.7,0.7,3.3,1.4,4.8
		c0.7,1.5,1.6,2.9,2.7,4.1c-1.7-2.7-2.6-5.9-2.4-9c0-0.6,0.1-1.1,0.1-1.7c0.1-1,0.3-1.9,0.6-2.8c0.2-0.7,0.5-1.3,0.8-1.8l0.1,0.3
		l0.3,0.7l6.3,14.4l-4-16.3c0.5,0.2,1.1,0.5,1.6,0.9c0.4,0.2,0.7,0.5,1.1,0.8c0.8,0.7,1.6,1.4,2.3,2.3c2,2.4,3.3,5.4,3.6,8.6
		c0.1-1.6,0-3.3-0.4-4.9c-0.4-1.6-1-3.2-1.9-4.7c-0.8-1.5-1.9-2.8-3.2-4c-0.3-0.3-0.7-0.6-1-0.9c0.7,0.2,1.3,0.4,2,0.8
		c0.6,0.3,1.1,0.6,1.7,0.9c0.8,0.5,1.6,1.1,2.3,1.8c0.4,0.3,0.7,0.7,1.1,1.1c0.8,0.9,1.5,1.8,2,2.8c0.8,1.5,1.4,3.1,1.7,4.8
		c0-1.7-0.3-3.5-0.9-5.1c-0.6-1.7-1.5-3.2-2.6-4.6c-0.6-0.8-1.3-1.5-2-2.1c2.4,1.1,4.5,2.9,6,5.2c0.3,0.4,0.6,0.9,0.8,1.4
		c0.4,0.8,0.8,1.5,1.1,2.4c1.1,3.2,1.1,6.5,0.2,9.4c-1.3,4.2-4.3,7.6-8.5,9c-0.9,0.3-1.8,0.5-2.7,0.6c-1,0.1-2,0.1-3,0
		C427.7,232.6,422.8,228.8,420.9,223.1 M410.3,239.5l-0.1-2l-0.5-9.8l0,0c0.5-0.4,1-0.8,1.6-1.2c1.6-1.2,3.3-2.4,4.9-3.6
		c0.4-0.3,0.8-0.6,1.2-0.9c0.2,0.7,0.3,1.4,0.6,2.1c0.4,1.2,0.9,2.3,1.5,3.3c0.1,0.2,0.2,0.4,0.3,0.6
		C417.5,231.5,414.2,235.9,410.3,239.5 M401.5,245.1c-3,1.1-6.5,1.7-10.1,1.9l6.4-16l0,0l0.1,0c0.8,0,1.5-0.1,2.2-0.3
		c2.6-0.5,5.1-1.3,7.6-2.1l2.2,11.2C407.4,242,404.5,244,401.5,245.1 M404,249c-0.7,1.1-1.5,2.2-2.2,3.4c-0.4,0.6-0.7,1.1-1,1.7
		c-0.2,0.3-0.3,0.6-0.5,0.9c-0.1,0.2-0.2,0.3-0.2,0.5l-0.1,0.3c0,0.1-0.1,0.3-0.1,0.4c0.1,2.8,0.2,5.3,0.3,8l0.3,7.9
		c0.2,1.3-0.4,2.5-0.9,3.7c-0.3,0.7-0.7,1.4-1,2.1l-14.8-25.7h-34.1l-15-26l14.9-25.8h34.5l7.7-13.3c1.5,2.8,3.1,5.7,4.7,8.5
		l0.6,1.1c0.1,0.2,0.2,0.4,0.4,0.6c0.2,0.2,0.3,0.4,0.5,0.5c0.7,0.6,1.4,1.1,2,1.6c1.4,1,2.7,1.9,4.1,2.8c2.8,1.8,5.6,3.6,8.4,5.3
		l4.2,2.6c0.5,0.3,1,0.7,1.6,1c-0.1,0.2-0.2,0.5-0.3,0.7c-13-1.4-41.1,0.9-52.9,14.6c-5.6,6.5-3.4,11.8-1.6,14.4
		c4.4,6.3,15.5,10.1,26.3,10.1c4.6,0,9.2-0.7,13.1-2.2c0.6-0.2,1.1-0.5,1.7-0.7C404.4,248.4,404.2,248.7,404,249 M379.2,311.6h-29.6
		l-14.9-25.9l14.8-25.6h29.7l14.6,25.3l0.2,0.4L379.2,311.6z M327.7,341H298l-14.9-25.7l14.9-25.7h29.6l14.7,25.5l0.2,0.4L327.7,341
		z M276,311.3h-29.7l-14.9-25.7l14.9-25.7H276l14.6,25.3l0.2,0.4L276,311.3z M194.8,281.3L180,255.5l14.9-25.7h29.6l14.7,25.5
		l0.2,0.4l-14.8,25.6H194.8z M172.8,251.6h-29.7l-14.9-25.7l14.9-25.7h29.7l14.6,25.3l0.2,0.4L172.8,251.6z M181.7,193.3l13-22.6
		c0.4,0.6,0.9,1.1,1.3,1.7c-0.4-0.6-0.8-1.2-1.2-1.8l0-0.1h29.7l14.6,25.3l0.2,0.4l-14.9,25.7h-29.7L180,196.2L181.7,193.3z
		 M233.5,163.6l13.2-22.8h29.7l14.6,25.3l0.2,0.4l-14.9,25.7h-29.7l-14.9-25.7L233.5,163.6z M285.2,133.9l13.2-22.8h29.7l14.6,25.3
		l0.2,0.4l-14.9,25.7h-29.7l-14.9-25.7L285.2,133.9z M327.7,281.6H298l-14.9-25.7l14.9-25.7h29.7l14.6,25.3l0.2,0.4L327.7,281.6z
		 M233.2,223.2l13.1-22.7H276l14.9,25.7L276,251.9h-29.6l-14.9-25.9L233.2,223.2z M342.8,196.3l-14.8,25.6h-29.7l-14.9-25.7
		l14.9-25.7h29.6l14.7,25.5L342.8,196.3z M379.5,192.6h-29.6L335,166.7l1.7-2.9l13.1-22.7h29.7l14.9,25.7L379.5,192.6z M376,240.9
		l10.5-12.3l0.1,0c1.5,0.4,2.9,0.7,4.4,1.1c1.5,0.3,2.9,0.7,4.4,0.9l0.3,0.1l-4.6,16.3c-6.2,0.2-12.7-1-17.6-3.2L376,240.9z
		 M368,229.1c2.4-2.8,5.6-5.1,9.3-6.9c1.8,1.3,3.5,2.7,5.3,4c0.5,0.3,0.9,0.7,1.4,1c0.1,0.1,0.3,0.2,0.4,0.3l0.2,0.1l-9.1,13l-2.1,3
		c-2.9-1.3-5.3-3-6.7-5c-1.8-2.6-1.7-5.3,0.3-8.2C367.3,230,367.7,229.6,368,229.1 M417.1,220.9c-0.6,0.3-1.1,0.6-1.7,1
		c-1.4,0.9-2.9,1.7-4.3,2.6c-0.6,0.4-1.2,0.8-1.9,1.2c-0.4,0.2-0.8,0.5-1.1,0.7c-2.8,0.8-5.6,1.7-8.4,2.2c-0.3,0.1-0.6,0.1-1,0.2
		c-0.4,0.1-0.7,0.1-1.1,0.1c-0.3,0-0.5,0-0.9-0.1l-0.1,0l-1-0.2l-4.4-0.8L387,227l-0.4-0.1l-0.1,0l-0.2,0l-0.2-0.1
		c-0.3-0.1-0.6-0.3-0.9-0.5l-0.4-0.2l-1.5-0.9c-1.8-1.1-3.6-2.2-5.5-3.2c1-0.5,2.1-0.9,3.2-1.4c0.3-0.1,0.7-0.3,1-0.4
		c11.9-4.5,26.7-5.2,35-4.4c-0.1,0.9-0.2,1.8-0.1,2.8c0,0.5,0,1,0.1,1.5C417,220.3,417,220.6,417.1,220.9 M422.4,200.4
		c-0.8,0.1-1.7-1.3-1.9-3.1c-0.2-1.8,0.4-3.3,1.2-3.4l0.3,0c0.8,0.2,1.4,1.5,1.6,3.1l0,0.1C423.8,198.9,423.2,200.3,422.4,200.4
		 M428.7,191.6c0.7-0.5,2.1,0.4,3.1,1.9c1,1.5,1.3,3.1,0.6,3.6c-0.7,0.5-2.1-0.4-3.1-1.9C428.2,193.6,428,192,428.7,191.6
		 M498.5,201l-18.2-5.7l0.1-0.2c0.1-0.4,0.2-0.7,0.3-1.1c0.1-0.4,0.2-0.7,0.3-1.1c0.6-2.1,1.1-4.3,1.7-6.4c0.2,0,0.4-0.1,0.6-0.1
		c3.8-0.7,7.5-0.8,11-0.1c4.5,1,6.7,3.2,6.9,6.7c0.1,1.5-0.2,3.1-0.8,4.7c-0.4,1.1-0.9,2.2-1.4,3.3L498.5,201z M486.9,214.6
		l-1.7-1.3l-11.9-8.9l0.2-0.3c0.3-0.3,0.5-0.6,0.8-1c0.4-0.5,0.8-1,1.3-1.5c0.3-0.3,0.5-0.6,0.8-1c1-1.1,1.9-2.3,2.8-3.5l0.1-0.1
		l19,4.1l0.5,0.1C496.3,206.1,491.9,211,486.9,214.6 M451.5,209.5c-1,0.1-1.9,0.2-2.8,0.3c-0.6-1-1.3-2-2.1-2.8
		c-0.1-0.1-0.2-0.3-0.3-0.4l0,0c0.7-0.7,1.5-1.4,2.4-2.2c7.2-6.3,20.8-15.1,33.6-17.7c-0.9,1.9-1.6,3.9-2.4,5.8l0,0l-0.8,2
		c-0.1,0.3-0.3,0.7-0.4,1l-0.1,0.2l-0.1,0.1l-0.3,0.4l-3,3.3l-3,3.3l-0.7,0.8c-0.2,0.2-0.3,0.3-0.5,0.4l-0.2,0.2
		c-0.5,0.4-1.2,0.7-1.8,1c-1.5,0.7-3,1.4-4.6,2c-0.6,0.2-1.2,0.5-1.8,0.7c-0.5,0.2-1.1,0.4-1.6,0.6c-2.8,0.2-5.7,0.5-8.5,0.8
		C452,209.4,451.8,209.4,451.5,209.5 M477.5,219.4c-3.2,0.9-6.6,1.1-10,0.9l-5-10.2c0.4-0.1,0.7-0.3,1.1-0.4c0.5-0.2,1-0.4,1.6-0.6
		c1.6-0.6,3.1-1.2,4.6-2c0.7-0.4,1.4-0.7,2.1-1.2l0,0l14.8,8.8C483.8,216.8,480.6,218.4,477.5,219.4 M147.8,320.6
		c-1.6-0.2-2.5-3-2.1-6.3c0.2-2,0.9-3.7,1.7-4.7c0.6-0.7,1.2-1.1,1.8-1c1.6,0.2,2.5,3,2.1,6.3c-0.1,0.5-0.1,0.9-0.2,1.4
		C150.5,318.9,149.2,320.8,147.8,320.6 M146.5,338.6c0.5,0.9,1,1.9,1.4,3c0.2,0.4,0.3,0.9,0.4,1.4c1.9,6,1.8,12.5-0.5,18.6
		c-0.1,0.2-0.2,0.5-0.3,0.7c-5.7,13.8-20.9,20.8-33.8,15.5c-6.2-2.6-11.1-7.6-13.6-14.1c-2.5-6.6-2.4-13.9,0.4-20.7
		c0.4-0.9,0.8-1.7,1.2-2.5c2.8-5.3,7-9.3,11.9-11.9c1.2-0.6,2.5-1.2,3.8-1.6c-1.8,1.4-3.5,2.9-5,4.5c-1.7,1.9-3.2,4-4.4,6.3
		c-0.3,0.6-0.6,1.2-0.9,1.9c-1.3,3-2.1,6.1-2.3,9.3c0.4-1.7,1-3.3,1.7-4.9c0.3-0.6,0.6-1.2,0.9-1.8c0.3-0.6,0.7-1.3,1.1-1.9
		c1.6-2.6,3.8-4.8,6.1-6.7c2.3-1.9,4.9-3.4,7.6-4.6c0.6-0.2,1.1-0.4,1.7-0.6c0.8-0.3,1.6-0.5,2.4-0.6c0.3-0.1,0.6-0.1,1-0.1l0,0
		c0.1,0,0.2,0,0.3,0c-0.3,0.2-0.6,0.4-0.9,0.6c-0.7,0.5-1.4,1-2,1.5c-1.8,1.5-3.4,3.1-4.7,4.9c-0.5,0.7-1.1,1.4-1.5,2.1
		c-0.7,1-1.3,2.1-1.8,3.2c-0.9,1.7-1.6,3.4-2.1,5.1c-0.9,2.9-1.3,5.9-1.2,8.9c0.3-2,0.8-4,1.6-5.9c0.3-0.8,0.7-1.7,1.1-2.5
		c0.1-0.2,0.2-0.4,0.4-0.7c1.2-2.3,2.8-4.5,4.5-6.4c1.9-2.1,4.1-3.9,6.5-5.2c1.1-0.7,2.2-1.1,3.3-1.5l-0.6,1.9l-8.7,27.6l14.1-27.4
		c0.5,1,0.9,2,1.2,3.2c0.7,2.6,1,5.4,0.9,8.3c-0.1,2.8-0.5,5.7-1.5,8.4c-0.1,0.3-0.2,0.6-0.4,0.9c-0.3,0.7-0.6,1.5-0.9,2.2
		c-0.8,1.6-1.7,3.2-2.7,4.7c2.1-2.1,3.9-4.5,5.4-7.2c0.6-1.1,1.1-2.3,1.6-3.5c0.6-1.7,1.1-3.4,1.5-5.2c0.6-3.1,0.8-6.2,0.5-9.4
		c0-0.4-0.1-0.8-0.2-1.3c0.4,0.6,0.7,1.3,1,2c0.2,0.6,0.5,1.2,0.7,1.8c0.8,2.2,1.3,4.5,1.6,6.8c0.3,3,0.3,6.1-0.4,9.1
		c-0.3,1.3-0.7,2.5-1.1,3.8c-0.1,0.3-0.2,0.6-0.3,0.9c-0.6,1.4-1.2,2.7-2,4c2-2.4,3.7-5.2,4.9-8.2c0-0.1,0.1-0.3,0.1-0.4
		c1.1-2.9,1.7-6,1.8-9.2C147,343.3,146.9,340.9,146.5,338.6 M154.6,359.6c0.1,0.1,0.2,0.2,0.3,0.3c1.4,1.2,2.8,2.5,4.2,3.7
		c2,1.8,4.1,3.5,6.1,5.2c1.7,1.5,3.5,2.9,5.2,4.3l-2.6,22.3c-8.1-8.2-14.2-18.2-17.9-25.1c0.6-0.9,1.2-1.9,1.7-2.9
		c0.5-0.9,0.9-1.9,1.4-2.9c0.1-0.2,0.2-0.5,0.3-0.7C153.8,362.4,154.2,361,154.6,359.6 M155.6,349.9c0.5,0,0.9-0.1,1.4-0.1
		c16.3-0.8,47.8,2.8,70.6,14.7c0.5,0.2,0.9,0.5,1.4,0.8c0.4,0.2,0.8,0.4,1.2,0.6c-1.3,0.6-2.6,1.2-3.9,1.8c-1.3,0.7-2.7,1.3-4,2
		c-1.1,0.6-2.2,1.1-3.3,1.7l-3.6,1.8c-0.6,0.3-1.2,0.6-1.7,0.8c-0.1,0-0.3,0.1-0.4,0.1l-0.3,0.1l-1,0.1l-8.1,1l-8.1,1l-2,0.2
		c-0.7,0.1-1.1,0.1-1.7,0c-1.2-0.1-2.4-0.4-3.7-0.7c-5-1.3-10.1-3.1-15.1-5c-0.5-0.4-1-0.7-1.4-1c-1.6-1.2-3.2-2.3-4.8-3.5
		c-2.2-1.6-4.3-3.1-6.5-4.6c-1.7-1.2-3.4-2.3-5.1-3.5c-0.2-0.1-0.4-0.2-0.5-0.4C155.5,355.3,155.7,352.6,155.6,349.9 M235.4,407.1
		l-1.4-2.3l-17.7-28.9c0.1-0.1,0.2-0.1,0.3-0.2c0.8-0.4,1.5-0.9,2.2-1.4c0.4-0.3,0.8-0.5,1.3-0.8c3.6-2.3,7.1-4.8,10.7-7.2
		c6.5,3.8,12.1,8.3,16.2,13.8c3.7,4.9,5,9.5,3.9,13.7c-0.4,1.7-1.3,3.2-2.5,4.8C245.6,402.1,241,405,235.4,407.1 M202.3,411.3
		l-6.7-31.1l0.6-0.1c0.5-0.1,1-0.1,1.5-0.2c2.2-0.3,4.4-0.7,6.6-1c2.7-0.4,5.4-0.9,8.1-1.5l0.3-0.1l20.7,27.6l1.7,2.2
		C225.8,410.8,213.7,412.3,202.3,411.3 M183.2,406.6c-5.5-2.5-10.4-6.3-14.8-10.7l5.6-20.9c0.2,0.1,0.4,0.1,0.5,0.2
		c4.2,1.7,8.5,3.3,13.1,4.5c1.4,0.3,2.8,0.7,4.3,0.8l0,0l10.1,30.8C195.2,410.6,188.7,409.1,183.2,406.6 M128.4,387.7
		c-1.4,3.4-4.4,6-8.4,7.2c-4.5,1.4-9.6,1.1-14.4-0.9c-4.8-2-8.7-5.3-10.9-9.5c-2-3.8-2.3-7.7-0.9-11.1c0.1-0.4,0.3-0.7,0.5-1
		l0.3,0.1l5.4,2.2c2.3,2.7,5,4.9,8.1,6.7l-1.2,9.2l0,0.3l0.2-0.2l5.5-7.2c3.4,1.2,6.9,1.8,10.3,1.8c0.9,0,1.8,0,2.7-0.1l3.2,1.3
		l0.1,0C128.7,387,128.5,387.4,128.4,387.7 M109.7,420.4c-4.7,1.8-9.9,1.6-14.8-0.4c-9.8-4-14.9-14.6-11.2-23.5
		c0.3-0.7,0.6-1.4,1-2.1l0.1-0.3l1.7,0.7c3.1,4,7.3,7.4,12.1,9.7l-1.2,8.9l5.4-7.2c3.7,1.2,7.5,1.9,11.2,1.9c1.4,0,2.9-0.1,4.3-0.3
		l1.7,0.7c-0.1,0.4-0.2,0.8-0.3,1.2c-0.1,0.5-0.3,0.9-0.5,1.3C117.7,415.4,114.2,418.7,109.7,420.4 M85.5,443
		c-8.4-3.5-12.5-13-9.1-21.2c0.2-0.6,0.5-1.2,0.8-1.7l0.1,0.1c2.9,3.8,6.7,7,11.2,9.3l-1.2,9.1l5.5-7.3c3.3,1.1,6.6,1.6,10,1.6
		c1.6,0,3.1-0.1,4.7-0.4c0,0.2-0.1,0.4-0.2,0.5c-0.1,0.4-0.3,0.9-0.5,1.3C103.5,442.5,93.9,446.4,85.5,443 M76.7,464.3
		c-4.5-1.9-7.1-9.2-7.2-20.2c0.5,0.7,1.1,1.4,1.7,2.1c2.1,2.4,4.7,4.4,7.7,5.9l-1.3,9.7l0.6-0.8l5.3-7c2.7,0.8,5.4,1.2,8.1,1.2
		c0.6,0,1.1,0,1.7-0.1c0.8,0,1.6-0.1,2.4-0.2C88.1,462.7,81.2,466.1,76.7,464.3 M65.6,353.5l13.8-17.7c2.2,0.2,4.5,0.4,6.7,0.6
		c2.7,0.2,5.3,0.4,8,0.6c0.8,0.1,1.7,0.1,2.5,0.2l0.1,0c-0.2,0.3-0.4,0.7-0.5,1c-0.4,0.8-0.8,1.7-1.2,2.5c-0.7,1.7-1.3,3.5-1.7,5.3
		c-0.2,1-0.4,2-0.6,3.1C85.4,351.2,75.5,353.3,65.6,353.5 M46.8,350.7c-5.7-2.1-11.4-5.6-16.7-9.9l3.4-1.8L59,326l0,0
		c1.2,1,2.4,1.7,3.6,2.5c4.1,2.3,8.3,4.3,12.7,6c0.1,0,0.2,0.1,0.3,0.1l-10.7,18.8C58.7,353.5,52.4,352.7,46.8,350.7 M9.3,314.6
		l2.9-0.4l34-5.1l0.1,0.2c1.5,2.3,3.1,4.5,4.7,6.7c1.3,1.9,2.7,3.7,4.1,5.5c0.3,0.4,0.5,0.7,0.8,1.1l0.4,0.5l-26.6,17.4
		C21,333.3,13.5,323.7,9.3,314.6 M6,299.1c0.2-2.2,0.9-4.1,1.9-5.7c2.2-3.4,6.2-5.6,12-6.4c6.7-1,13.9-0.3,21.2,1.6
		c0.9,4.2,1.6,8.4,2.6,12.6c0.1,0.5,0.2,1.1,0.3,1.6c0.2,0.8,0.4,1.6,0.6,2.4c0,0.1,0.1,0.2,0.1,0.3l-7.4,1.8l-25.4,6.3l-2.7,0.7
		C6.8,308.9,5.5,303.6,6,299.1 M78.8,332.1c-4.8-2.2-9.7-4.4-14.2-7.1c-1.1-0.7-2.3-1.3-3.1-2.1c-0.4-0.4-0.8-0.6-1.2-1.2l-1.3-1.6
		l-5.1-6.4l-5-6.3l-0.1-0.1l-0.6-0.8l-0.2-0.3c-0.1,0-0.1-0.2-0.2-0.3l0-0.1c-0.2-0.5-0.4-1.1-0.7-1.7l-1.3-3.8
		c-0.2-0.7-0.5-1.4-0.7-2.1c-0.6-1.9-1.2-3.8-1.9-5.7c-0.5-1.3-1-2.7-1.5-4c0.5,0.1,1,0.3,1.5,0.4c0.5,0.1,1,0.3,1.5,0.5
		c23.2,7.1,46.8,25,58.5,37.1c0.3,0.3,0.6,0.7,1,1c-2.5,2.1-4.7,4.7-6.6,7.6c-0.1,0-0.2,0-0.3-0.1c-1-0.2-2.1-0.4-3.1-0.6
		c-2.6-0.5-5.3-0.9-7.9-1.3c-1.9-0.3-3.8-0.6-5.6-0.9C80.2,332.3,79.5,332.2,78.8,332.1 M130.8,307.2c0.1-0.1,0.2-0.3,0.3-0.4
		c1.9-2.7,4.5-4.2,5.8-3.3c0.7,0.5,0.8,1.6,0.5,2.9c-0.2,1.1-0.8,2.4-1.7,3.7c-1.9,2.7-4.5,4.2-5.8,3.3
		C128.7,312.5,129.1,309.8,130.8,307.2 M161.8,91.7c-9.7-3.3-14.7-14.5-11.1-24.9c0.4-1.2,0.9-2.3,1.5-3.3c1.4-2.6,3.4-4.8,5.6-6.5
		c0.4-0.3,0.8-0.6,1.3-0.9l-0.2,0.2c-0.8,1.1-1.6,2.2-2.2,3.3c-0.5,0.9-1,1.9-1.3,2.9c-0.8,2.2-1.3,4.6-1.3,6.9
		c0.3-1.8,0.8-3.4,1.6-5c0.2-0.5,0.4-0.9,0.7-1.4l0,0c1.1-2,2.5-3.7,4.2-5.2c1.6-1.5,3.5-2.7,5.4-3.7c0.3-0.2,0.6-0.3,1-0.4
		c0.5-0.2,1-0.4,1.6-0.5c0.2,0,0.4,0,0.7,0c0.1,0,0.2,0,0.3,0c-0.6,0.4-1.1,0.8-1.6,1.3c-1.7,1.6-3.1,3.5-4.3,5.4
		c-0.1,0.2-0.3,0.5-0.4,0.7c-0.9,1.8-1.7,3.6-2.1,5.5c-0.5,2.2-0.7,4.4-0.5,6.6c0.2-2.1,0.7-4.1,1.5-6l0.1-0.3c0.3-0.7,0.6-1.3,1-2
		c0.7-1.2,1.4-2.3,2.3-3.4c1.3-1.6,2.9-3,4.5-4.1c0.8-0.5,1.6-0.9,2.4-1.2l-5.5,22l9.1-20.6l0,0c0.4,0.7,0.8,1.4,1,2.2
		c0.6,1.9,1,3.9,1,6c0.1,2.1-0.1,4.2-0.7,6.2c-0.1,0.5-0.3,0.9-0.4,1.3c-0.1,0.2-0.2,0.4-0.2,0.7c-0.5,1.3-1.2,2.6-1.9,3.9
		c1.5-1.6,2.7-3.5,3.6-5.5c0.3-0.6,0.5-1.3,0.8-1.9c0.5-1.5,0.9-3,1.1-4.6c0.3-2.3,0.3-4.6,0-6.9c-0.1-0.6-0.2-1.2-0.4-1.8
		c0.5,0.7,1.1,1.5,1.5,2.4c0.2,0.4,0.4,0.9,0.6,1.3c0.6,1.5,1.1,3.2,1.4,4.9c0.4,2.2,0.5,4.4,0.1,6.7c-0.3,2.2-1.1,4.4-2.1,6.5
		c1.3-1.7,2.3-3.7,3-5.8c0.1-0.1,0.1-0.3,0.2-0.4c0.7-2.3,1-4.7,1-7.1c0-0.6,0-1.3-0.1-1.9c0.5,1,0.9,2.1,1.2,3.2
		c1.1,3.9,1.1,8.1-0.3,12.3l0,0C182.3,89.4,171.5,95.1,161.8,91.7 M173,98.4c-0.9,2.5-3,4.5-5.9,5.7c-3.2,1.2-7,1.2-10.6,0
		c-7.1-2.5-11.4-9-9.5-14.5c0.1-0.3,0.2-0.5,0.3-0.8l0.7,0.2l3.7,1.3c1.7,1.8,3.8,3.4,6.1,4.5l-0.5,7l0.7-1l3.1-4.7
		c2.1,0.6,4.2,1,6.3,1c1.1,0,2.1-0.1,3.2-0.2l2.4,0.8l0.1,0C173.2,97.9,173.1,98.2,173,98.4 M149.9,123.5c-7.4-2.5-11.5-10-9.2-16.7
		c0.2-0.6,0.5-1.2,0.8-1.8l0.3,0.1l1,0.4c2.4,2.8,5.6,5,9.3,6.6l-0.5,6.6l3.7-5.5c2.3,0.6,4.6,0.9,6.8,0.9c1.5,0,3.1-0.2,4.6-0.4
		l1.3,0.4c-0.1,0.4-0.1,0.7-0.2,1.1c-0.1,0.3-0.1,0.5-0.2,0.8C165.1,122.6,157.2,126,149.9,123.5 M144,140.7c-3.1-1.1-5.5-3.2-7-6.1
		c-1.4-2.9-1.6-6.1-0.6-9.1c0.2-0.5,0.3-0.9,0.6-1.3c0.1,0.1,0.2,0.3,0.4,0.4c2.2,2.5,5,4.6,8.3,6l-0.5,6.7l0,0l0,0l3.7-5.5
		c2,0.5,4,0.8,6,0.8c1.6,0,3.2-0.2,4.8-0.5c0,0.2-0.1,0.4-0.2,0.6c-0.1,0.2-0.1,0.5-0.2,0.7C157.1,139.6,150.3,142.8,144,140.7
		 M138.5,156.7c-3.4-1.2-5.6-6.4-6.1-14.5c0.7,0.8,1.4,1.5,2.2,2.2c1.5,1.3,3.2,2.5,5.1,3.3l-0.4,5.4l-0.1,1.7l0.9-1.4l3-4.5
		c1.6,0.4,3.2,0.6,4.8,0.6c0.7,0,1.4,0,2.1-0.1c0.7-0.1,1.5-0.2,2.2-0.3C146.8,155,141.9,157.8,138.5,156.7 M125.5,76.2l9.5-13.8
		c1.6,0.1,3.3,0.1,4.9,0.2c2,0,3.9,0.1,5.9,0.1c0.7,0,1.3,0,1.9,0c-0.4,0.9-0.8,1.8-1.1,2.7c-0.4,1.2-0.7,2.3-0.9,3.5
		c-0.2,1-0.3,2-0.4,2.9C139.9,73.8,132.8,75.7,125.5,76.2 M111.7,75c-4.3-1.3-8.7-3.6-12.7-6.6l3.4-2l17.3-10.2l0,0
		c0.9,0.7,1.8,1.2,2.8,1.7c3.2,1.5,6.4,2.8,9.6,3.9l0.1,0.1L125,76.3C120.4,76.6,115.9,76.3,111.7,75 M82.6,50l3-0.6l23.9-5l0.1,0.2
		c1.2,1.6,2.5,3.2,3.7,4.7c1,1.2,2,2.4,3,3.6c0.3,0.3,0.6,0.7,0.9,1l0.3,0.3l-4.6,3.4L98.8,68.2C92,63.3,86,56.6,82.6,50 M79.5,38.8
		c0.1-2,0.7-3.7,1.7-5.2c1.6-2.2,4.3-3.7,8.1-4.5c4.9-1,10.1-0.8,15.6,0.2c0.8,3.1,1.6,6.2,2.5,9.3c0.1,0.2,0.1,0.4,0.2,0.5
		c0.2,0.8,0.4,1.6,0.7,2.4l0,0.1l0.1,0.2L85.4,49l-2.8,0.9C80.5,46,79.4,42.1,79.5,38.8 M148.4,61.3L148.4,61.3
		c-0.9-0.1-1.7-0.2-2.6-0.3c-1.9-0.2-3.9-0.4-5.8-0.6c-1.4-0.1-2.8-0.3-4.2-0.4c-0.5,0-1-0.1-1.4-0.1c-0.4-0.2-0.8-0.3-1.2-0.5
		c-3.2-1.3-6.5-2.5-9.5-4.1c-0.8-0.4-1.7-0.9-2.4-1.4c-0.3-0.2-0.5-0.4-0.8-0.7l-0.1-0.1l-1-1.1l-0.7-0.8l-3.3-3.6l-4-4.4l-0.5-0.5
		l-0.2-0.2l-0.1-0.2c-0.1-0.3-0.3-0.6-0.4-0.9c-0.1-0.1-0.1-0.2-0.2-0.4l-1.1-2.8c-0.7-1.9-1.5-3.7-2.2-5.6c-0.4-1-0.9-2.1-1.3-3.1
		c0.6,0.1,1.3,0.3,1.9,0.5c0.4,0.1,0.8,0.2,1.3,0.3c17,4.4,34.5,16.2,43.5,24.4c0.3,0.3,0.6,0.5,0.8,0.8
		C151.2,57.1,149.7,59.1,148.4,61.3 M171.5,39.1c0.1-0.2,0.2-0.4,0.4-0.5c1.3-1.7,2.9-2.7,3.7-2.1c0.5,0.3,0.7,1.1,0.5,2.1
		c-0.1,0.8-0.5,1.8-1.1,2.8c-1.3,2.1-3.1,3.3-4.1,2.7C169.9,43.3,170.2,41.2,171.5,39.1 M182.6,44c0.1-1.9,0.8-3.4,1.6-4
		c0.3-0.2,0.5-0.3,0.8-0.3c1.1,0.1,1.9,2.1,1.8,4.5c0,0.2,0,0.5-0.1,0.7c-0.3,2.1-1.2,3.7-2.3,3.6C183.2,48.5,182.4,46.4,182.6,44
		 M189.4,81.8c0.2-0.4,0.3-0.8,0.5-1.2l0.1-0.1c0.4-1.2,0.7-2.4,0.9-3.6c0.2,0.1,0.3,0.3,0.5,0.4c1,0.8,2,1.6,3,2.3
		c1.5,1.2,3.1,2.4,4.7,3.5c1.3,1,2.7,2,4,2.9l-1,16.7c-6.3-5.6-11.2-12.7-14.3-17.7C188.5,83.9,189,82.9,189.4,81.8 M191.2,69.4
		c0.5-0.1,1.1-0.1,1.6-0.2c12-1.2,34.5,0.2,51.4,7.7c0.4,0.2,0.8,0.4,1.2,0.5c0.4,0.2,0.8,0.4,1.2,0.6c-1,0.5-2,1.1-2.9,1.6
		c-1.7,1-3.5,2-5.2,3l-0.2,0.1l-2.4,1.4l-0.1,0c-0.4,0.2-0.8,0.5-1.2,0.6l-0.3,0.1l-0.2,0.1l-0.7,0.1l-5.9,1.1l-4.3,0.8l-1.6,0.3
		l-1.1,0.2l-0.3,0.1c-0.5,0.1-0.8,0.1-1.2,0.1c-0.8,0-1.8-0.2-2.7-0.4c-3.1-0.6-6.3-1.5-9.4-2.4c-0.6-0.2-1.2-0.4-1.9-0.6
		c-0.2-0.1-0.4-0.3-0.6-0.4c-1.4-0.9-2.7-1.8-4.1-2.7c-1.7-1-3.3-2.1-5-3.1c-1.2-0.7-2.4-1.5-3.6-2.2c-0.2-0.1-0.4-0.3-0.7-0.4
		C191.4,73.5,191.4,71.4,191.2,69.4 M261.4,101.4c-1.9,2.7-5.2,5.1-9.2,6.9l-15.4-22.2l0.2-0.1l0.2-0.1c0.7-0.5,1.4-1,2.1-1.5
		l0.1-0.1c2.6-1.9,5.1-3.9,7.7-5.8c4.9,2.5,9.2,5.6,12.4,9.4c3,3.5,4.1,6.9,3.4,10.1C262.8,99,262.2,100.2,261.4,101.4 M228.1,112.7
		l-6.2-22.6l0.4-0.1c0.6-0.1,1.2-0.2,1.8-0.4c1.4-0.3,2.7-0.6,4.1-0.9c2-0.4,3.9-0.9,5.9-1.4l0.2-0.1l16.1,19l1.7,2
		C245.3,111.4,236.5,113,228.1,112.7 M213.8,110.1c-4.1-1.6-7.9-4.2-11.3-7.2l3.2-15.8c0.2,0.1,0.5,0.2,0.7,0.2
		c3.1,1,6.2,1.9,9.4,2.6c1,0.2,2,0.4,3.2,0.4h0l8.8,22.3C222.9,112.6,218,111.7,213.8,110.1 M473.4,227.3c1.3,0.3,2.5,0.7,3.8,1.1
		c0.6,0.2,1.2,0.4,1.8,0.6c0.3,0.1,0.6,0.2,0.9,0.3c0.2,0.1,0.3,0.1,0.4,0.2l0.2,0.1l0,0c1.6,2,3.3,4.1,4.9,6.1l5,6.2
		c0.2,0.3,0.4,0.5,0.7,0.8c0.3,0.2,0.5,0.4,0.8,0.6c0.6,0.4,1.2,0.6,1.8,0.9c1.2,0.5,2.5,1,3.7,1.4c-1.2-0.5-2.4-1.1-3.6-1.7
		c-1.1-0.7-2.3-1.2-3-2.4l-4.6-6.5c-1.5-2.2-3-4.3-4.6-6.6c-0.1-0.1-0.2-0.2-0.3-0.3c-0.1-0.1-0.2-0.1-0.3-0.2
		c-0.2-0.1-0.3-0.2-0.5-0.3c-0.3-0.2-0.6-0.3-0.9-0.4c-0.6-0.3-1.3-0.5-1.9-0.8c-1.3-0.5-2.5-0.9-3.8-1.4c-1-0.3-2-0.6-3-1
		c2.6-0.1,5.2-0.4,7.6-1.1c13.6-4,26.9-19.3,26.5-30.2c-0.1-3.1-1.6-8.7-10-10.4c-18.1-3.9-42.7,12.4-51.6,21.3l-0.2,0.2
		c-0.5-0.4-1.1-0.7-1.7-1.1l-0.2-0.1l0-0.1c0-0.1,0.1-0.2,0.1-0.3c0.1-0.2,0.1-0.3,0.2-0.5l1.8-4.5c1.2-3,2.5-6,3.6-9
		c0.6-1.5,1.2-3,1.7-4.6c0.1-0.4,0.3-0.8,0.4-1.2l0.2-0.6l0.1-0.7c0.1-0.5,0-0.9-0.1-1.3l-0.1-1.2c-0.4-3.2-0.9-6.4-1.4-9.6
		c0.2,3.2,0.3,6.4,0.4,9.7l0,1.2c0,0.4,0,0.8-0.1,1.1l-0.1,0.5l-0.2,0.5c-0.1,0.4-0.3,0.7-0.5,1.1c-0.7,1.4-1.4,2.9-2.1,4.3
		c-1.5,2.8-3,5.7-4.6,8.5l-2.3,4.3c-0.2,0.3-0.4,0.7-0.6,1c-1.1-0.3-2.2-0.5-3.3-0.5c0.6-1.8,0.7-3.8,0-5.7c-0.2-0.5-0.4-1-0.6-1.4
		c-0.9-1.7-2.4-3-4-3.8c-0.4-0.2-0.7-0.3-1.1-0.4l0.3-0.1l0,0l0-0.1c0-0.1,0-0.2,0.1-0.3c0.1-0.2,0.1-0.5,0.2-0.7
		c0.1-0.5,0.3-1,0.4-1.4c0.3-1,0.6-1.9,0.9-2.9c0.7-1.9,1.3-3.8,2-5.8l0.3-0.7c0.1-0.2,0.2-0.6,0.2-0.8l0.1-1.5l0.1-3.1l0.1-6.1
		L433,172l-0.2,3l-0.1,1.5c0,0.4-0.3,0.9-0.5,1.4c-0.8,1.9-1.6,3.8-2.3,5.7c-0.4,1-0.7,1.9-1.1,2.9c-0.2,0.5-0.3,1-0.5,1.5
		c-0.1,0.2-0.2,0.5-0.2,0.8c0,0.1-0.1,0.3-0.1,0.4c0,0.1,0,0.1,0,0.2c-1.2-0.2-2.6-0.2-3.8,0.3c-1.1,0.4-2,1-2.8,1.7
		c-0.1-0.1-0.2-0.2-0.3-0.2c-0.2-0.2-0.4-0.3-0.6-0.5c-0.4-0.3-0.9-0.6-1.3-0.8c-0.9-0.5-1.7-1.1-2.6-1.6c-1.8-1-3.5-2.1-5.3-3.1
		c-0.4-0.3-1-0.5-1.2-0.8c-0.4-0.4-0.7-0.7-1-1.1l-2-2.3l-4-4.6l3.8,4.8l1.9,2.4c0.3,0.4,0.7,0.8,1,1.2c0.1,0.1,0.2,0.2,0.3,0.3
		c0.1,0.1,0.2,0.1,0.3,0.2l0.7,0.4c1.7,1.1,3.5,2.2,5.2,3.3c0.9,0.6,1.7,1.1,2.5,1.7c0.4,0.3,0.8,0.6,1.2,0.9
		c0.2,0.1,0.4,0.3,0.6,0.5l0.2,0.2c-1.7,2.2-2.3,5.2-1.3,8.2c0.7,2,1.9,3.5,3.5,4.6c-1,0.9-1.9,1.9-2.6,2.9
		c-0.5-0.3-1.1-0.5-1.6-0.8l-4.5-2.2c-3-1.4-5.9-2.9-8.8-4.4c-1.5-0.7-2.9-1.5-4.3-2.3c-0.7-0.4-1.4-0.8-2-1.2
		c-0.5-0.3-1-1.1-1.5-1.7c-1.9-2.6-3.7-5.3-5.6-7.9l11.7-20.3l-19.4-33.6h-34.1l-17.3-30h-38.8l-17.1,29.7h-34.6l-17.1,29.7h-34.6
		l-0.1,0.2c0-0.1-0.1-0.2-0.1-0.3l-0.1-0.6c0-0.4-0.1-0.9-0.1-1.3c0-0.9-0.1-1.8-0.1-2.7c0-1.8,0-3.7,0-5.5
		c0.1-7.3,0.3-14.6,0.6-21.9c0.2-3.6,0.4-7.3,0.8-10.9c0-0.5,0.1-0.9,0.1-1.4c0-0.5,0.1-1.1,0.1-1.6l-0.1-1.6l-0.2-1.5
		c-0.4-2-1-3.8-1.7-5.7c-1.7-3.9-3.8-7.6-6.3-11c0.5-1.9,0.9-3.8,1.3-5.6c1.8,2.2,3.7,4.4,5.5,6.6c4.5,5.5,9,11,13.3,16.6
		c1.1,1.4,2.1,2.8,3.1,4.3c0.5,0.7,1,1.4,1.5,2.2c0.2,0.4,0.5,0.7,0.7,1.1c0.1,0.2,0.2,0.3,0.3,0.5l0.1,0.2l0,0.1l0,0l0,0.1l0,0.2
		l0,0.3l0,2l0.1,8c0.1,3.6,0.1,7.1,0.2,10.7c0,0.5,0,0.9,0.1,1.4c0.1,0.5,0.2,0.9,0.4,1.3c0.3,0.9,0.7,1.7,1.1,2.4
		c0.8,1.6,1.8,3.1,2.8,4.6c-0.9-1.5-1.7-3.1-2.4-4.7c-0.4-0.8-0.7-1.6-1-2.5c-0.1-0.4-0.2-0.8-0.3-1.2c0-0.4,0-0.9,0-1.3
		c0.1-3.5,0.3-7.1,0.5-10.7l0.3-5.3l0.1-2.7l0.1-1.3l0-0.7l0-0.3l0-0.2c0,0,0-0.1,0-0.2c0-0.2-0.1-0.4-0.1-0.6
		c0-0.1-0.1-0.3-0.1-0.4c-0.1-0.3-0.2-0.5-0.3-0.7c-0.2-0.4-0.4-0.9-0.6-1.3c-0.4-0.8-0.9-1.6-1.4-2.4c-0.9-1.5-1.9-3-2.9-4.5
		c-1.2-1.8-2.4-3.5-3.6-5.2c3.2,2.6,6.7,4.7,10.5,6.2c5.2,2,11.2,2.9,17.4,2.9c14.3,0,29.2-5,34.9-13.1c4-5.7,3.3-12.2-2-18.5
		c-16.1-19-55.7-21.8-72.2-19.6c-0.3-1.2-0.7-2.4-1.2-3.5l1.1-0.6l5.6-3.3c3.8-2.2,7.5-4.3,11.3-6.6c1.9-1.1,3.7-2.3,5.6-3.5
		c0.5-0.3,0.9-0.6,1.4-1l0.7-0.5l0.7-0.6c0.5-0.5,0.7-1,1-1.5l0.8-1.4c2.2-3.8,4.3-7.6,6.3-11.4c-2.5,3.6-5,7.1-7.6,10.6l-1,1.3
		c-0.3,0.4-0.6,0.9-1,1.1l-0.6,0.4l-0.7,0.4c-0.4,0.3-0.9,0.5-1.4,0.8c-1.9,1-3.8,1.9-5.8,2.8c-3.9,1.8-7.9,3.5-11.9,5.3l-6,2.6
		l-1.4,0.6c-0.9-1.2-1.9-2.3-3-3.3c2.1-1.4,3.8-3.5,4.7-6.1c0.9-2.7,0.8-5.5,0-7.9c-0.4-1-0.9-2-1.5-2.9l0.4,0.1v0l0.1-0.1
		c0.1-0.1,0.2-0.2,0.3-0.3l0,0c0.2-0.2,0.5-0.4,0.8-0.6c0.5-0.4,1.1-0.8,1.7-1.2c1.1-0.8,2.2-1.5,3.4-2.3c2.3-1.5,4.6-3,6.9-4.4
		l0.9-0.5c0.3-0.1,0.7-0.5,0.8-0.7c0.5-0.5,0.9-1,1.3-1.6l2.6-3.2l5.2-6.4l-5.4,6.2l-2.7,3.1c-0.5,0.5-0.9,1-1.4,1.5
		c-0.3,0.3-0.4,0.4-0.7,0.6l-0.9,0.5c-2.4,1.4-4.8,2.7-7.1,4.1c-1.2,0.7-2.4,1.4-3.5,2.2c-0.6,0.4-1.2,0.7-1.7,1.1
		c-0.3,0.2-0.6,0.4-0.9,0.6c-0.1,0.1-0.2,0.2-0.3,0.2l-0.1,0.1c-0.1,0.1-0.1,0.1-0.2,0.2l-0.2-0.2c-1.1-1.2-2.5-2.1-4.1-2.7
		c-1.5-0.5-3-0.6-4.4-0.5l0,0l0,0c0-0.2-0.1-0.3-0.1-0.5c-0.1-0.3-0.2-0.7-0.3-1c-0.2-0.7-0.5-1.3-0.7-2c-0.5-1.3-1-2.6-1.5-3.9
		c-1-2.6-2.1-5.1-3.1-7.7l-0.4-1c-0.1-0.1-0.2-0.3-0.2-0.5c0-0.1,0-0.3-0.1-0.4c-0.1-0.7-0.1-1.4-0.2-2l-0.3-4.1L170,2.1l0.1,8.3
		l0.1,4.1c0,0.7,0,1.4,0.1,2.1c0,0.2,0,0.3,0.1,0.6c0,0.2,0.1,0.3,0.2,0.5l0.4,1c1,2.6,1.9,5.2,2.8,7.8c0.4,1.3,0.9,2.6,1.3,3.9
		c0.2,0.6,0.4,1.3,0.6,2c0.1,0.3,0.2,0.6,0.2,0.9l0,0.1c0,0.1,0.1,0.3,0.1,0.4c-0.5,0.1-1.1,0.3-1.6,0.5c-2.9,1.2-5.4,3.7-6.6,7.1
		c-0.9,2.6-0.9,5.3,0,7.7c-1.8,0.1-3.5,0.4-5.2,1c-0.4-0.7-0.7-1.5-1.1-2.2l-2.9-6c-2-4-3.9-8-5.8-11.9c-0.9-2-1.9-4-2.7-6
		c-0.4-1-0.9-2-1.1-3c-0.1-0.2-0.2-0.5-0.1-0.7c0-0.2,0-0.5,0-0.8l0-1.6c0.1-4.4,0.4-8.9,0.6-13.3c-0.7,4.4-1.4,8.8-2,13.2l-0.2,1.7
		c0,0.3-0.1,0.6-0.1,0.9c0,0.4,0,0.7,0.1,1c0.2,1.2,0.5,2.3,0.9,3.4c0.7,2.2,1.4,4.3,2.1,6.4c1.5,4.2,3,8.4,4.5,12.6l2.3,6.3
		c0.3,0.8,0.6,1.6,0.8,2.3c-0.5,0.3-1,0.6-1.4,0.9C143.5,40.8,112,20.4,88.5,25.3c-8.1,1.7-12.7,6.4-13,13.3
		c-0.6,14.2,17.3,34.8,35,40.2c1.2,0.4,2.3,0.6,3.5,0.8c-0.9,0.3-1.8,0.6-2.7,0.9c-1.7,0.6-3.4,1.2-5.1,1.8c-0.8,0.3-1.7,0.6-2.5,1
		c-0.4,0.2-0.8,0.4-1.3,0.6c-0.2,0.1-0.4,0.2-0.7,0.4c-0.1,0.1-0.2,0.1-0.3,0.2c-0.2,0.1-0.3,0.3-0.5,0.4l-0.2,0.2l-0.1,0.1
		l-0.2,0.3l-0.4,0.5l-0.8,1.1l-4.6,6.6c-2,2.9-4.1,5.8-6.2,8.7c-0.3,0.4-0.5,0.7-0.8,1c-0.3,0.3-0.6,0.6-1,0.8
		c-0.7,0.5-1.5,0.9-2.3,1.4c-1.6,0.8-3.2,1.6-4.8,2.2c1.7-0.6,3.4-1.2,5-1.9c0.8-0.4,1.6-0.8,2.4-1.2c0.4-0.2,0.8-0.5,1.1-0.8
		c0.3-0.3,0.6-0.7,0.9-1c2.3-2.7,4.5-5.5,6.8-8.3l3.4-4.2l1.7-2.1l0.8-1l0.4-0.5l0.2-0.3l0.1-0.1l0.1-0.1h0l0.1,0l0.2-0.1
		c0.2-0.1,0.3-0.2,0.5-0.2c0.4-0.2,0.8-0.3,1.2-0.4c0.8-0.3,1.6-0.6,2.5-0.8c1.7-0.5,3.4-1,5.1-1.4c4-1,8-2,12-3
		c6.5-0.3,12.9-1.7,18.2-3.3c-0.7,1.4-1.4,2.8-2,4.2c-4.6,1.2-9.1,2.9-13.3,5.2c-1.7,1-3.3,2.1-4.8,3.4l-1.1,1l-1,1.2
		c-0.3,0.4-0.6,0.9-0.9,1.3c-0.3,0.4-0.5,0.8-0.7,1.2c-1.9,3.1-4,6.1-6,9.1c-4.2,6-8.5,11.9-13,17.7c-1.1,1.5-2.2,2.9-3.4,4.3
		c-0.6,0.7-1.2,1.4-1.7,2.1c-0.3,0.3-0.6,0.7-0.9,1l-0.4,0.4c-0.2,0.1-0.3,0.2-0.5,0.3c-1.6,0.8-3.3,1.4-5,2
		c-1.7,0.6-3.5,1.2-5.2,1.7c1.8-0.4,3.6-0.9,5.3-1.4c1.8-0.5,3.5-1,5.3-1.7c0.2-0.1,0.4-0.2,0.7-0.3c0.2-0.1,0.4-0.3,0.6-0.5
		c0.4-0.3,0.7-0.7,1-1c0.6-0.7,1.3-1.3,1.9-2c1.2-1.4,2.5-2.7,3.7-4.1c4.8-5.5,9.6-11.1,14.2-16.9c2.3-2.9,4.6-5.8,6.7-8.8
		c0.3-0.4,0.6-0.8,0.8-1.1c0.2-0.3,0.5-0.6,0.7-0.9l0.8-0.8l0.9-0.8c1.3-1,2.8-1.8,4.3-2.6c2.8-1.3,5.7-2.3,8.8-3.1
		c-1.2,2.9-2.3,5.9-3.4,9c-9.7,28.3-12.3,61,2.1,66c1.1,0.4,2.3,0.6,3.5,0.6c13.7,0,29.8-25.3,38.7-51.3c1-2.8,1.8-5.5,2.6-8.3
		c1.5,2.1,2.9,4.3,4,6.5c0.7,1.6,1.4,3.1,1.8,4.7l0.3,1.2l0.2,1.2c0,0.4,0,0.8,0,1.2c0,0.4,0,0.9-0.1,1.4c-0.2,3.7-0.1,7.4-0.1,11.1
		c0.1,7.4,0.4,14.7,0.8,22c0.1,1.8,0.2,3.7,0.4,5.5c0.1,0.9,0.2,1.8,0.3,2.8c0.1,0.5,0.1,0.9,0.2,1.4c0.1,0.2,0.1,0.5,0.2,0.7
		c0.1,0.2,0.2,0.5,0.3,0.7l0.1,0.2l-16.6,28.7h-34.6l-19.4,33.6l19.4,33.6h34.6l12.1,20.9l-6.3,6.4l-4,4c-0.7,0.6-1.3,1.3-2,1.9
		c-0.4,0.3-0.5,0.5-1,0.7l-1.3,0.6c-3.4,1.6-6.7,3.3-10,5.1c-1.7,0.9-3.3,1.8-5,2.7c-0.8,0.5-1.6,0.9-2.5,1.4
		c-0.4,0.2-0.8,0.5-1.2,0.8c-0.2,0.1-0.4,0.3-0.6,0.4c-0.1,0.1-0.2,0.1-0.3,0.3c-1.5-1.8-3.4-3.3-5.6-4.2c-1.9-0.8-4-1.1-6-1
		c0-0.2-0.1-0.5-0.1-0.7c-0.1-0.5-0.2-0.9-0.4-1.4c-0.2-0.9-0.5-1.8-0.8-2.7c-0.5-1.8-1.1-3.6-1.7-5.4c-1.2-3.6-2.4-7.1-3.7-10.7
		l-0.5-1.3c-0.1-0.2-0.2-0.5-0.2-0.6c0-0.1,0-0.4-0.1-0.6c0-0.9-0.1-1.9-0.1-2.8l-0.1-5.6l0-11.3l-0.5,11.3l-0.2,5.6
		c0,0.9-0.1,1.9,0,2.8c0,0.2,0,0.5,0,0.8c0,0.3,0.1,0.5,0.2,0.7l0.4,1.3c1.1,3.6,2.2,7.2,3.2,10.8c0.5,1.8,1,3.6,1.5,5.4
		c0.2,0.9,0.5,1.8,0.7,2.7c0.1,0.4,0.2,0.9,0.3,1.3c0,0.2,0.1,0.4,0.1,0.5c-5,0.9-9.6,4.4-11.7,9.7c-1.4,3.5-1.6,7.2-0.7,10.5
		c-2.4,0-4.9,0.3-7.2,0.9l-1.3-3.1l-3.5-8.4c-2.4-5.6-4.7-11.1-7-16.7c-1.1-2.8-2.2-5.6-3.2-8.4c-0.5-1.4-1-2.9-1.3-4.1
		c-0.1-0.3-0.2-0.7-0.1-0.9c0-0.3,0-0.7,0-1.1l0.2-2.2c0.5-6,1.2-12,1.8-18.1c-1.3,5.9-2.6,11.8-3.8,17.8l-0.4,2.3
		c-0.1,0.4-0.1,0.8-0.2,1.2c-0.1,0.5,0,0.9,0,1.3c0.2,1.7,0.6,3.1,0.9,4.6c0.7,3,1.5,5.9,2.3,8.8c1.7,5.9,3.4,11.7,5.1,17.5l2.6,8.7
		l1,3.3c-0.6,0.3-1.2,0.6-1.8,1c-16.3-17.5-57.7-47.9-90.2-43.1c-11.2,1.7-18,7.8-19,17.4c-2,19.4,20.9,49,44.6,57.8
		c1.4,0.5,2.8,0.9,4.3,1.3c-1,0.3-2.1,0.5-3.1,0.8c-2.4,0.6-4.7,1.3-7.1,2c-1.2,0.4-2.4,0.7-3.5,1.2c-0.6,0.2-1.2,0.4-1.8,0.7
		c-0.3,0.1-0.6,0.3-0.9,0.4c-0.2,0.1-0.3,0.2-0.5,0.3c-0.2,0.2-0.4,0.3-0.7,0.5l-0.2,0.1l-0.1,0.1L31,364l-0.3,0.4l-0.6,0.7
		l-1.1,1.4l-6.8,8.6c-3,3.8-6,7.6-9.1,11.4c-0.4,0.5-0.8,0.9-1.2,1.3c-0.4,0.4-0.9,0.7-1.4,1c-1,0.6-2.1,1.2-3.2,1.7
		c-2.2,1-4.5,1.9-6.8,2.7c2.3-0.6,4.7-1.4,7-2.2c1.1-0.4,2.3-0.9,3.4-1.5c0.6-0.3,1.1-0.6,1.6-1c0.5-0.4,0.9-0.9,1.3-1.3
		c3.3-3.6,6.6-7.2,9.9-10.7l7.4-8.1l1.2-1.3l0.6-0.7l0.3-0.3l0.2-0.2l0.1-0.1l0,0l0.1,0l0.3-0.1c0.2-0.1,0.4-0.2,0.7-0.3
		c0.5-0.2,1.1-0.4,1.6-0.5c1.1-0.3,2.3-0.6,3.4-0.9c2.3-0.6,4.7-1.1,7.1-1.5c5.1-1,10.2-2,15.3-2.8c0.9,0,1.8,0,2.6,0
		c8.4,0,16.7-1.3,23.6-3c-1,1.7-2,3.5-2.9,5.3c-1.3,0.3-2.5,0.5-3.8,0.8c-5,1.2-10,2.9-14.8,5.2c-2.4,1.2-4.7,2.6-6.9,4.2l-1.6,1.3
		c-0.5,0.5-1,1-1.5,1.5c-0.5,0.5-0.9,1.1-1.4,1.7c-0.4,0.6-0.7,1-1.1,1.5c-2.8,4-5.9,8-8.9,11.9c-6.2,7.8-12.6,15.5-19.1,23.1
		c-1.6,1.9-3.3,3.8-5,5.6c-0.8,0.9-1.7,1.8-2.5,2.7c-0.4,0.4-0.9,0.9-1.3,1.3l-0.6,0.5c-0.3,0.1-0.5,0.3-0.8,0.4
		c-2.2,1-4.6,1.7-7,2.4c-2.4,0.7-4.8,1.3-7.2,1.9c2.5-0.4,4.9-0.9,7.4-1.4c2.4-0.5,4.9-1.1,7.3-2c0.3-0.1,0.6-0.3,0.9-0.4
		c0.3-0.2,0.6-0.4,0.8-0.6c0.5-0.4,1-0.8,1.4-1.3c0.9-0.9,1.8-1.7,2.7-2.6c1.8-1.7,3.6-3.5,5.3-5.3c7-7.1,13.9-14.4,20.7-21.9
		c3.4-3.7,6.7-7.5,9.9-11.5c0.4-0.5,0.8-1,1.2-1.4c0.4-0.4,0.7-0.8,1.1-1.2l1.2-1.1l1.3-1c1.9-1.3,4-2.3,6.1-3.2
		c3.9-1.6,8-2.7,12.2-3.5c-1.9,3.9-3.7,7.9-5.3,12c-15.5,37.8-21.6,82.2-2.4,90c1.8,0.7,3.6,1.1,5.6,1.1c7.6,0,16.5-5.5,26.1-16.4
		c10.9-12.3,21.5-30.3,29.8-50.5c1.5-3.7,2.9-7.4,4.2-11.1c1.9,3,3.6,6,4.9,9.2c0.9,2.2,1.6,4.4,2.1,6.6l0.3,1.6l0.1,1.6
		c0,0.5,0,1-0.1,1.6c0,0.5-0.1,1.2-0.2,1.9c-0.5,5.1-0.8,10.1-1,15.1c-0.4,10-0.7,20-0.7,30.1c0,2.5,0,5,0.1,7.5
		c0,1.3,0.1,2.5,0.1,3.8c0,0.6,0.1,1.3,0.1,1.9c0.1,0.3,0.1,0.7,0.2,1c0.1,0.3,0.2,0.6,0.4,0.9c1.1,2.3,2.5,4.4,3.8,6.5
		c1.4,2.1,2.8,4.2,4.2,6.2c-1.3-2.1-2.6-4.3-3.8-6.5c-1.2-2.2-2.4-4.4-3.3-6.6c-0.1-0.3-0.2-0.6-0.3-0.8l-0.1-0.8c0-0.6,0-1.2,0-1.8
		c0-1.2,0.1-2.5,0.1-3.7c0.1-2.5,0.2-5,0.4-7.5c0.7-10,1.5-19.9,2.6-29.8c0.6-4.9,1.2-9.9,2-14.7c0.1-0.6,0.2-1.2,0.3-1.9
		c0.1-0.7,0.2-1.4,0.2-2.2c0-0.7,0-1.4,0-2.1l-0.2-2.1c-0.4-2.7-1.1-5.3-1.9-7.8c-1.8-5-4.1-9.7-6.9-14.1c-0.3-0.5-0.6-0.9-0.9-1.3
		c0.8-2.5,1.5-5.1,2.2-7.6c2.3,3.1,4.6,6.3,6.9,9.4c5.7,7.8,11.4,15.7,16.8,23.7c1.4,2,2.7,4,3.9,6.1c0.6,1,1.3,2,1.8,3.1
		c0.3,0.5,0.6,1,0.8,1.5c0.1,0.3,0.2,0.5,0.3,0.7l0.1,0.3l0,0.1l0,0l0,0.8l-0.1,2.7l-0.4,10.9c-0.2,4.9-0.4,9.7-0.5,14.6
		c0,0.6,0,1.2,0,1.9c0.1,0.7,0.2,1.3,0.4,1.9c0.4,1.2,0.9,2.3,1.4,3.4c1,2.2,2.2,4.4,3.4,6.5c-1.1-2.2-2.1-4.4-2.9-6.7
		c-0.4-1.1-0.8-2.3-1.1-3.4c-0.1-0.6-0.2-1.2-0.3-1.7c0-0.5,0.1-1.2,0.1-1.8c0.5-4.8,1-9.7,1.5-14.5l1.4-12.7l0.1-0.9l0-0.5l0-0.2
		l0-0.1l0-0.2c0-0.3,0-0.6-0.1-0.8c-0.1-0.2-0.1-0.4-0.2-0.5c-0.1-0.4-0.2-0.7-0.4-1c-0.2-0.6-0.5-1.2-0.8-1.8
		c-0.5-1.1-1.1-2.2-1.7-3.3c-1.2-2.2-2.4-4.3-3.6-6.4c-1.3-2.2-2.6-4.4-3.9-6.5c4,3.5,8.4,6.5,13.1,8.6c8.3,3.8,18.4,5.5,28.5,5.5
		c18,0,36-5.6,43.8-15.3c6-7.5,5.6-16.6-1.3-25.7c-20.5-27.2-74.3-34.1-97-32.5c-0.3-1.5-0.8-3.1-1.4-4.6l1.5-0.8l7.9-4
		c5.3-2.7,10.6-5.3,15.9-8.1c2.6-1.4,5.3-2.8,7.9-4.3c0.6-0.4,1.3-0.8,1.9-1.2l1-0.6l1-0.8c0.7-0.6,1.1-1.3,1.5-1.9l1.3-1.9
		c3.3-5,6.4-10,9.5-15c-3.7,4.6-7.4,9.3-11.1,13.8l-1.4,1.7c-0.5,0.5-0.9,1.1-1.4,1.4l-0.8,0.5l-0.9,0.5c-0.6,0.3-1.3,0.6-1.9,0.9
		c-2.6,1.2-5.4,2.3-8.1,3.4c-5.5,2.1-11,4.2-16.6,6.2l-8.4,3.1l-2,0.7c-1.1-1.7-2.4-3.3-3.9-4.7c3-1.7,5.4-4.4,6.9-7.9
		c2.1-5.1,1.4-10.6-1.3-14.8l0.5,0.2l0,0.1l0.2-0.2c0.1-0.1,0.3-0.3,0.5-0.4c0.4-0.3,0.7-0.5,1.1-0.8c0.8-0.5,1.6-1,2.3-1.5
		c1.6-1,3.2-1.9,4.8-2.9c3.2-1.9,6.5-3.7,9.8-5.5l1.2-0.7c0.4-0.2,0.9-0.6,1.2-0.9c0.7-0.7,1.3-1.4,2-2l3.8-4.1l6-6.6l5,8.7h34.1
		l17.3,30h34.6l17.1,29.7h38.8l16.9-29.3h34.5l19.4-33.6l-4.5-7.8c0.4-0.7,0.8-1.4,1.2-2.1c0.3-0.6,0.6-1.2,0.9-1.8
		c0.1-0.3,0.2-0.6,0.3-1c0-0.4,0-0.7,0.1-1l0.2-7.9c0.1-2.6,0.1-5.3,0.2-7.9l0,0l0.1-0.2c0.1-0.1,0.1-0.2,0.2-0.4
		c0.1-0.3,0.3-0.5,0.5-0.8c0.3-0.5,0.7-1.1,1.1-1.6c0.8-1.1,1.5-2.1,2.4-3.2c1.4-1.8,2.8-3.6,4.3-5.4c4.4-3.3,8-7.5,10.8-11.3
		c0.2,0.9,0.4,1.8,0.6,2.7c-2.2,2.8-4,5.8-5.5,9.1c-0.5,1.3-1,2.7-1.3,4.2l-0.2,1.1l-0.1,1.2c0,0.4,0,0.8,0,1.2c0,0.4,0.1,0.7,0.1,1
		c0.3,2.7,0.4,5.4,0.6,8.1c0.3,5.4,0.4,10.9,0.4,16.3c0,1.4,0,2.7,0,4.1l-0.1,2l-0.1,1l-0.1,0.5c-0.1,0.1-0.1,0.3-0.2,0.4
		c-1.2,2.4-2.8,4.6-4.3,6.9c1.7-2.1,3.4-4.2,4.8-6.6c0.1-0.1,0.2-0.3,0.2-0.5c0-0.2,0.1-0.4,0.1-0.5l0.1-1l0.2-2
		c0.1-1.4,0.2-2.7,0.3-4.1c0.3-5.4,0.6-10.9,0.7-16.4c0-2.7,0.1-5.5,0-8.2c0-0.3,0-0.7,0-1c0-0.3,0-0.6,0-0.9l0.1-0.9l0.2-0.9
		c0.3-1.2,0.8-2.4,1.4-3.5c1-2,2.3-4,3.7-5.8c0.6,2.3,1.3,4.6,2.1,6.8c3.8,11.3,9,21.4,14.5,28.5c5,6.5,9.9,9.8,14.2,9.8
		c0.9,0,1.7-0.1,2.5-0.4c4.9-1.6,7.5-7.7,7.6-17.6c0.1-9-2-20.1-5.8-31.4c-0.7-2.1-1.5-4.1-2.2-6.1c1.8,0.5,3.6,1.2,5.3,2
		c1.1,0.6,2.2,1.2,3.2,2l0.7,0.6l0.6,0.6c0.2,0.2,0.4,0.4,0.5,0.7c0.2,0.2,0.4,0.6,0.6,0.8c1.6,2.3,3.3,4.4,5,6.6
		c3.4,4.3,6.9,8.5,10.5,12.6c0.9,1,1.8,2.1,2.7,3.1c0.5,0.5,0.9,1,1.4,1.5c0.2,0.2,0.5,0.5,0.7,0.7c0.1,0.1,0.3,0.2,0.4,0.4
		c0.2,0.1,0.3,0.2,0.5,0.3c2.6,1.1,5.2,1.7,7.9,2.4c-2.6-0.8-5.2-1.7-7.6-2.8c-0.2-0.1-0.3-0.2-0.4-0.2l-0.3-0.3l-0.7-0.7l-1.3-1.6
		c-0.8-1.1-1.7-2.1-2.5-3.2c-3.3-4.3-6.5-8.7-9.6-13.2c-1.5-2.2-3.1-4.5-4.5-6.8c-0.2-0.3-0.3-0.6-0.5-0.9c-0.2-0.3-0.4-0.7-0.7-1
		l-0.8-0.9l-0.8-0.8c-1.1-1-2.3-1.8-3.6-2.5c-2.8-1.6-5.7-2.7-8.7-3.6c-0.6-1.3-1.2-2.6-1.8-3.9c2.1,0.5,4.1,0.9,6.2,1.4
		C463.1,224.7,468.3,225.9,473.4,227.3"/>
</g>
</svg>
